<svg xmlns="http://www.w3.org/2000/svg" width="600" height="420" viewBox="0 0 600 420" font-family="sans-serif" font-size="12">

<rect width="600" height="420" fill="white"/>
<line x1="70" y1="235.802494335067" x2="560" y2="235.802494335067" stroke="#333" stroke-width="1.5"/>
<line x1="70" y1="328.78728818210607" x2="560" y2="328.78728818210607" stroke="#eee"/>
<text x="62" y="332.78728818210607" text-anchor="end" font-size="10">-40</text>
<line x1="70" y1="293.91799048946643" x2="560" y2="293.91799048946643" stroke="#eee"/>
<text x="62" y="297.91799048946643" text-anchor="end" font-size="10">-25</text>
<line x1="70" y1="259.04869279682674" x2="560" y2="259.04869279682674" stroke="#eee"/>
<text x="62" y="263.04869279682674" text-anchor="end" font-size="10">-10</text>
<line x1="70" y1="224.17939510418708" x2="560" y2="224.17939510418708" stroke="#eee"/>
<text x="62" y="228.17939510418708" text-anchor="end" font-size="10">5</text>
<line x1="70" y1="189.31009741154742" x2="560" y2="189.31009741154742" stroke="#eee"/>
<text x="62" y="193.31009741154742" text-anchor="end" font-size="10">20</text>
<line x1="70" y1="154.44079971890778" x2="560" y2="154.44079971890778" stroke="#eee"/>
<text x="62" y="158.44079971890778" text-anchor="end" font-size="10">35</text>
<line x1="70" y1="119.57150202626813" x2="560" y2="119.57150202626813" stroke="#eee"/>
<text x="62" y="123.57150202626813" text-anchor="end" font-size="10">50</text>
<line x1="70" y1="84.70220433362849" x2="560" y2="84.70220433362849" stroke="#eee"/>
<text x="62" y="88.70220433362849" text-anchor="end" font-size="10">65</text>
<rect x="177.5" y="217.68956048332146" width="30" height="35.77247723374825" fill="#ddd" stroke="#333"/>
<line x1="177.5" y1="238.48557347702572" x2="207.5" y2="238.48557347702572" stroke="#333" stroke-width="2"/>
<circle cx="187.5" cy="214.7504978495724" r="2" fill="#1f77b4" opacity="0.5"/>
<circle cx="190.5" cy="198.9236775513664" r="2" fill="#ff7f0e" opacity="0.5"/>
<circle cx="185.5" cy="299.2215822375563" r="2" fill="#2ca02c" opacity="0.5"/>
<circle cx="190.5" cy="232.12965104010757" r="2" fill="#2ca02c" opacity="0.5"/>
<circle cx="185.5" cy="228.67375665630692" r="2" fill="#2ca02c" opacity="0.5"/>
<circle cx="190.5" cy="214.08598171205568" r="2" fill="#2ca02c" opacity="0.5"/>
<circle cx="190.5" cy="221.85568468281957" r="2" fill="#2ca02c" opacity="0.5"/>
<circle cx="185.5" cy="175.56348890434083" r="2" fill="#2ca02c" opacity="0.5"/>
<circle cx="185.5" cy="246.7628733753911" r="2" fill="#2ca02c" opacity="0.5"/>
<circle cx="195.5" cy="245.56635854862094" r="2" fill="#1f77b4" opacity="0.5"/>
<circle cx="197.5" cy="238.34895682231485" r="2" fill="#1f77b4" opacity="0.5"/>
<circle cx="197.5" cy="267.43827010936207" r="2" fill="#1f77b4" opacity="0.5"/>
<circle cx="195.5" cy="270.0240262222221" r="2" fill="#1f77b4" opacity="0.5"/>
<circle cx="195.5" cy="252.65425087661248" r="2" fill="#1f77b4" opacity="0.5"/>
<circle cx="195.5" cy="252.90168218431302" r="2" fill="#ff7f0e" opacity="0.5"/>
<circle cx="195.5" cy="256.1435782562595" r="2" fill="#ff7f0e" opacity="0.5"/>
<circle cx="197.5" cy="225.16450036813026" r="2" fill="#ff7f0e" opacity="0.5"/>
<circle cx="195.5" cy="256.1145038764174" r="2" fill="#ff7f0e" opacity="0.5"/>
<circle cx="195.5" cy="252.240573761607" r="2" fill="#ff7f0e" opacity="0.5"/>
<circle cx="197.5" cy="255.58925023438763" r="2" fill="#2ca02c" opacity="0.5"/>
<circle cx="195.5" cy="288.0601428309609" r="2" fill="#2ca02c" opacity="0.5"/>
<circle cx="197.5" cy="246.27410780613724" r="2" fill="#2ca02c" opacity="0.5"/>
<circle cx="195.5" cy="279.73188006659154" r="2" fill="#2ca02c" opacity="0.5"/>
<circle cx="197.5" cy="232.96174014387438" r="2" fill="#2ca02c" opacity="0.5"/>
<circle cx="195.5" cy="261.32849365875" r="2" fill="#2ca02c" opacity="0.5"/>
<circle cx="195.5" cy="225.29584755254277" r="2" fill="#2ca02c" opacity="0.5"/>
<circle cx="183.5" cy="230.6753881545092" r="2" fill="#1f77b4" opacity="0.5"/>
<circle cx="187.5" cy="254.979214024142" r="2" fill="#1f77b4" opacity="0.5"/>
<circle cx="187.5" cy="251.96540988519038" r="2" fill="#ff7f0e" opacity="0.5"/>
<circle cx="187.5" cy="254.92700030480083" r="2" fill="#ff7f0e" opacity="0.5"/>
<circle cx="183.5" cy="262.3787110964338" r="2" fill="#ff7f0e" opacity="0.5"/>
<circle cx="187.5" cy="251.57816767900516" r="2" fill="#2ca02c" opacity="0.5"/>
<circle cx="183.5" cy="244.70163615831473" r="2" fill="#2ca02c" opacity="0.5"/>
<circle cx="183.5" cy="208.97630114312457" r="2" fill="#2ca02c" opacity="0.5"/>
<circle cx="183.5" cy="213.069549841657" r="2" fill="#2ca02c" opacity="0.5"/>
<circle cx="183.5" cy="215.91555352095628" r="2" fill="#2ca02c" opacity="0.5"/>
<circle cx="183.5" cy="239.2463159957335" r="2" fill="#2ca02c" opacity="0.5"/>
<circle cx="183.5" cy="253.90396540089407" r="2" fill="#2ca02c" opacity="0.5"/>
<circle cx="193.5" cy="224.80461310667462" r="2" fill="#1f77b4" opacity="0.5"/>
<circle cx="193.5" cy="242.5578388040523" r="2" fill="#1f77b4" opacity="0.5"/>
<circle cx="193.5" cy="253.85745896280685" r="2" fill="#ff7f0e" opacity="0.5"/>
<circle cx="186.5" cy="277.0095262477188" r="2" fill="#ff7f0e" opacity="0.5"/>
<circle cx="186.5" cy="227.79661596991875" r="2" fill="#ff7f0e" opacity="0.5"/>
<circle cx="195.5" cy="252.16273472888076" r="2" fill="#ff7f0e" opacity="0.5"/>
<circle cx="193.5" cy="198.52554534548804" r="2" fill="#2ca02c" opacity="0.5"/>
<circle cx="186.5" cy="201.19741168206184" r="2" fill="#2ca02c" opacity="0.5"/>
<circle cx="186.5" cy="239.5199300176543" r="2" fill="#2ca02c" opacity="0.5"/>
<circle cx="193.5" cy="276.2203249102457" r="2" fill="#2ca02c" opacity="0.5"/>
<circle cx="193.5" cy="223.77760444964082" r="2" fill="#2ca02c" opacity="0.5"/>
<circle cx="195.5" cy="197.4194991804106" r="2" fill="#2ca02c" opacity="0.5"/>
<circle cx="195.5" cy="223.7581639030085" r="2" fill="#2ca02c" opacity="0.5"/>
<circle cx="187.5" cy="210.71939893320362" r="2" fill="#1f77b4" opacity="0.5"/>
<circle cx="198.5" cy="253.3732174249537" r="2" fill="#1f77b4" opacity="0.5"/>
<circle cx="198.5" cy="217.5682218771071" r="2" fill="#1f77b4" opacity="0.5"/>
<circle cx="198.5" cy="226.85260644548433" r="2" fill="#ff7f0e" opacity="0.5"/>
<circle cx="187.5" cy="212.8901145197357" r="2" fill="#ff7f0e" opacity="0.5"/>
<circle cx="198.5" cy="213.8806069207264" r="2" fill="#ff7f0e" opacity="0.5"/>
<circle cx="187.5" cy="213.37097311286075" r="2" fill="#ff7f0e" opacity="0.5"/>
<circle cx="198.5" cy="209.66100125526475" r="2" fill="#2ca02c" opacity="0.5"/>
<circle cx="187.5" cy="197.35186020469908" r="2" fill="#2ca02c" opacity="0.5"/>
<circle cx="198.5" cy="194.84769277211933" r="2" fill="#2ca02c" opacity="0.5"/>
<circle cx="198.5" cy="210.84907405822983" r="2" fill="#2ca02c" opacity="0.5"/>
<circle cx="198.5" cy="231.10402452703138" r="2" fill="#2ca02c" opacity="0.5"/>
<circle cx="187.5" cy="221.12176548925285" r="2" fill="#2ca02c" opacity="0.5"/>
<circle cx="200.5" cy="220.62166092171714" r="2" fill="#2ca02c" opacity="0.5"/>
<circle cx="185.5" cy="204.00185468366428" r="2" fill="#1f77b4" opacity="0.5"/>
<circle cx="187.5" cy="283.7524524070236" r="2" fill="#1f77b4" opacity="0.5"/>
<circle cx="185.5" cy="227.05863589181493" r="2" fill="#1f77b4" opacity="0.5"/>
<circle cx="185.5" cy="194.96006347096085" r="2" fill="#1f77b4" opacity="0.5"/>
<circle cx="185.5" cy="281.4360964967493" r="2" fill="#1f77b4" opacity="0.5"/>
<circle cx="190.5" cy="194.54790967398043" r="2" fill="#1f77b4" opacity="0.5"/>
<circle cx="187.5" cy="246.6117925035104" r="2" fill="#1f77b4" opacity="0.5"/>
<circle cx="185.5" cy="210.3617258471816" r="2" fill="#1f77b4" opacity="0.5"/>
<circle cx="190.5" cy="192.41111287875708" r="2" fill="#1f77b4" opacity="0.5"/>
<circle cx="187.5" cy="217.8021225025113" r="2" fill="#1f77b4" opacity="0.5"/>
<circle cx="187.5" cy="197.43039509214876" r="2" fill="#1f77b4" opacity="0.5"/>
<circle cx="187.5" cy="221.9492702005405" r="2" fill="#1f77b4" opacity="0.5"/>
<circle cx="190.5" cy="200.06014834830788" r="2" fill="#ff7f0e" opacity="0.5"/>
<circle cx="185.5" cy="228.33700293285384" r="2" fill="#ff7f0e" opacity="0.5"/>
<circle cx="190.5" cy="199.90324680624275" r="2" fill="#ff7f0e" opacity="0.5"/>
<circle cx="187.5" cy="254.6793064781641" r="2" fill="#ff7f0e" opacity="0.5"/>
<circle cx="185.5" cy="204.23121706218646" r="2" fill="#ff7f0e" opacity="0.5"/>
<circle cx="185.5" cy="212.87658184184363" r="2" fill="#ff7f0e" opacity="0.5"/>
<circle cx="185.5" cy="193.979004903658" r="2" fill="#ff7f0e" opacity="0.5"/>
<circle cx="187.5" cy="216.68850758723298" r="2" fill="#ff7f0e" opacity="0.5"/>
<circle cx="190.5" cy="225.42426880683297" r="2" fill="#ff7f0e" opacity="0.5"/>
<circle cx="185.5" cy="281.0545330622994" r="2" fill="#ff7f0e" opacity="0.5"/>
<circle cx="190.5" cy="219.68343942147612" r="2" fill="#ff7f0e" opacity="0.5"/>
<circle cx="187.5" cy="223.2520212250619" r="2" fill="#ff7f0e" opacity="0.5"/>
<circle cx="190.5" cy="215.6116530180166" r="2" fill="#2ca02c" opacity="0.5"/>
<circle cx="187.5" cy="229.90176797189054" r="2" fill="#2ca02c" opacity="0.5"/>
<circle cx="187.5" cy="246.61113572613533" r="2" fill="#2ca02c" opacity="0.5"/>
<circle cx="187.5" cy="220.47694682090284" r="2" fill="#2ca02c" opacity="0.5"/>
<circle cx="187.5" cy="255.71705152095475" r="2" fill="#2ca02c" opacity="0.5"/>
<circle cx="185.5" cy="288.4768399799021" r="2" fill="#2ca02c" opacity="0.5"/>
<circle cx="190.5" cy="236.45996507390726" r="2" fill="#2ca02c" opacity="0.5"/>
<circle cx="190.5" cy="279.29252793616877" r="2" fill="#2ca02c" opacity="0.5"/>
<circle cx="187.5" cy="256.2120435897025" r="2" fill="#2ca02c" opacity="0.5"/>
<circle cx="187.5" cy="247.94769906188878" r="2" fill="#2ca02c" opacity="0.5"/>
<circle cx="185.5" cy="194.22558639601948" r="2" fill="#2ca02c" opacity="0.5"/>
<circle cx="187.5" cy="244.65770528664873" r="2" fill="#2ca02c" opacity="0.5"/>
<circle cx="185.5" cy="264.6923021323819" r="2" fill="#2ca02c" opacity="0.5"/>
<circle cx="190.5" cy="242.96570503258732" r="2" fill="#2ca02c" opacity="0.5"/>
<circle cx="185.5" cy="228.61399406436823" r="2" fill="#2ca02c" opacity="0.5"/>
<circle cx="187.5" cy="214.0507954093873" r="2" fill="#2ca02c" opacity="0.5"/>
<circle cx="190.5" cy="246.8395225829197" r="2" fill="#2ca02c" opacity="0.5"/>
<circle cx="187.5" cy="224.35776469659046" r="2" fill="#2ca02c" opacity="0.5"/>
<circle cx="185.5" cy="214.9833285294976" r="2" fill="#2ca02c" opacity="0.5"/>
<circle cx="190.5" cy="212.71393104611448" r="2" fill="#2ca02c" opacity="0.5"/>
<circle cx="190.5" cy="196.43135422309376" r="2" fill="#2ca02c" opacity="0.5"/>
<circle cx="185.5" cy="212.5748195636136" r="2" fill="#2ca02c" opacity="0.5"/>
<circle cx="197.5" cy="241.9693663489767" r="2" fill="#1f77b4" opacity="0.5"/>
<circle cx="195.5" cy="287.29231014244533" r="2" fill="#1f77b4" opacity="0.5"/>
<circle cx="195.5" cy="255.5472399226051" r="2" fill="#1f77b4" opacity="0.5"/>
<circle cx="195.5" cy="256.70948895665765" r="2" fill="#1f77b4" opacity="0.5"/>
<circle cx="197.5" cy="256.5294806077808" r="2" fill="#1f77b4" opacity="0.5"/>
<circle cx="197.5" cy="229.21303702893735" r="2" fill="#1f77b4" opacity="0.5"/>
<circle cx="197.5" cy="250.59249516963578" r="2" fill="#1f77b4" opacity="0.5"/>
<circle cx="195.5" cy="256.03797759166935" r="2" fill="#1f77b4" opacity="0.5"/>
<circle cx="195.5" cy="281.6690730801971" r="2" fill="#1f77b4" opacity="0.5"/>
<circle cx="195.5" cy="251.21332844897054" r="2" fill="#1f77b4" opacity="0.5"/>
<circle cx="195.5" cy="282.08048709924685" r="2" fill="#1f77b4" opacity="0.5"/>
<circle cx="195.5" cy="254.23485227168018" r="2" fill="#ff7f0e" opacity="0.5"/>
<circle cx="197.5" cy="241.26178670590906" r="2" fill="#ff7f0e" opacity="0.5"/>
<circle cx="195.5" cy="266.75260893688943" r="2" fill="#ff7f0e" opacity="0.5"/>
<circle cx="195.5" cy="254.54995165929182" r="2" fill="#ff7f0e" opacity="0.5"/>
<circle cx="195.5" cy="282.3264658410408" r="2" fill="#ff7f0e" opacity="0.5"/>
<circle cx="195.5" cy="245.3176708724312" r="2" fill="#ff7f0e" opacity="0.5"/>
<circle cx="197.5" cy="267.66579398975443" r="2" fill="#ff7f0e" opacity="0.5"/>
<circle cx="195.5" cy="282.1215382952466" r="2" fill="#ff7f0e" opacity="0.5"/>
<circle cx="197.5" cy="257.5420044666439" r="2" fill="#ff7f0e" opacity="0.5"/>
<circle cx="197.5" cy="244.20126959468016" r="2" fill="#ff7f0e" opacity="0.5"/>
<circle cx="197.5" cy="236.0966535121307" r="2" fill="#ff7f0e" opacity="0.5"/>
<circle cx="195.5" cy="256.8280220848452" r="2" fill="#2ca02c" opacity="0.5"/>
<circle cx="195.5" cy="291.1386000953727" r="2" fill="#2ca02c" opacity="0.5"/>
<circle cx="195.5" cy="212.49297496334253" r="2" fill="#2ca02c" opacity="0.5"/>
<circle cx="197.5" cy="242.37237693738214" r="2" fill="#2ca02c" opacity="0.5"/>
<circle cx="195.5" cy="213.73722994111782" r="2" fill="#2ca02c" opacity="0.5"/>
<circle cx="195.5" cy="226.40925760970546" r="2" fill="#2ca02c" opacity="0.5"/>
<circle cx="197.5" cy="261.83890029956353" r="2" fill="#2ca02c" opacity="0.5"/>
<circle cx="195.5" cy="272.1103729362037" r="2" fill="#2ca02c" opacity="0.5"/>
<circle cx="195.5" cy="219.79456554160848" r="2" fill="#2ca02c" opacity="0.5"/>
<circle cx="195.5" cy="239.65020172145833" r="2" fill="#2ca02c" opacity="0.5"/>
<circle cx="197.5" cy="243.5064802847153" r="2" fill="#2ca02c" opacity="0.5"/>
<circle cx="195.5" cy="280.0050922301823" r="2" fill="#2ca02c" opacity="0.5"/>
<circle cx="197.5" cy="236.69773378767718" r="2" fill="#2ca02c" opacity="0.5"/>
<circle cx="195.5" cy="217.68956048332146" r="2" fill="#2ca02c" opacity="0.5"/>
<circle cx="195.5" cy="219.22665891482214" r="2" fill="#2ca02c" opacity="0.5"/>
<circle cx="195.5" cy="217.9495248326208" r="2" fill="#2ca02c" opacity="0.5"/>
<circle cx="195.5" cy="287.55883055384436" r="2" fill="#2ca02c" opacity="0.5"/>
<circle cx="197.5" cy="237.09306846023185" r="2" fill="#2ca02c" opacity="0.5"/>
<circle cx="195.5" cy="262.9746209456082" r="2" fill="#2ca02c" opacity="0.5"/>
<circle cx="195.5" cy="283.4147410047717" r="2" fill="#2ca02c" opacity="0.5"/>
<circle cx="195.5" cy="267.15886338128064" r="2" fill="#2ca02c" opacity="0.5"/>
<circle cx="195.5" cy="208.46947420520658" r="2" fill="#2ca02c" opacity="0.5"/>
<circle cx="183.5" cy="251.9335912105697" r="2" fill="#1f77b4" opacity="0.5"/>
<circle cx="183.5" cy="272.99624195621107" r="2" fill="#1f77b4" opacity="0.5"/>
<circle cx="187.5" cy="250.82679720479862" r="2" fill="#1f77b4" opacity="0.5"/>
<circle cx="183.5" cy="253.5857820561446" r="2" fill="#1f77b4" opacity="0.5"/>
<circle cx="183.5" cy="262.61783691149446" r="2" fill="#1f77b4" opacity="0.5"/>
<circle cx="183.5" cy="241.6979232256834" r="2" fill="#1f77b4" opacity="0.5"/>
<circle cx="183.5" cy="254.54341475810676" r="2" fill="#1f77b4" opacity="0.5"/>
<circle cx="187.5" cy="250.16945162465063" r="2" fill="#1f77b4" opacity="0.5"/>
<circle cx="183.5" cy="251.0868362236113" r="2" fill="#1f77b4" opacity="0.5"/>
<circle cx="183.5" cy="250.669521651544" r="2" fill="#1f77b4" opacity="0.5"/>
<circle cx="183.5" cy="251.35272153037243" r="2" fill="#1f77b4" opacity="0.5"/>
<circle cx="187.5" cy="255.88430449907358" r="2" fill="#1f77b4" opacity="0.5"/>
<circle cx="187.5" cy="250.99155330100427" r="2" fill="#ff7f0e" opacity="0.5"/>
<circle cx="183.5" cy="251.3805708828261" r="2" fill="#ff7f0e" opacity="0.5"/>
<circle cx="187.5" cy="254.88052218138122" r="2" fill="#ff7f0e" opacity="0.5"/>
<circle cx="183.5" cy="231.05156119920113" r="2" fill="#ff7f0e" opacity="0.5"/>
<circle cx="183.5" cy="253.91958740808687" r="2" fill="#ff7f0e" opacity="0.5"/>
<circle cx="183.5" cy="255.14781476466098" r="2" fill="#ff7f0e" opacity="0.5"/>
<circle cx="187.5" cy="253.8730289611967" r="2" fill="#ff7f0e" opacity="0.5"/>
<circle cx="183.5" cy="252.02900436042796" r="2" fill="#ff7f0e" opacity="0.5"/>
<circle cx="183.5" cy="251.85463649004024" r="2" fill="#ff7f0e" opacity="0.5"/>
<circle cx="183.5" cy="273.46921882998294" r="2" fill="#ff7f0e" opacity="0.5"/>
<circle cx="183.5" cy="253.43436087683668" r="2" fill="#ff7f0e" opacity="0.5"/>
<circle cx="183.5" cy="251.24122659033947" r="2" fill="#ff7f0e" opacity="0.5"/>
<circle cx="183.5" cy="201.22500827092622" r="2" fill="#2ca02c" opacity="0.5"/>
<circle cx="183.5" cy="238.48557347702572" r="2" fill="#2ca02c" opacity="0.5"/>
<circle cx="187.5" cy="203.40468345942077" r="2" fill="#2ca02c" opacity="0.5"/>
<circle cx="187.5" cy="249.25337497185677" r="2" fill="#2ca02c" opacity="0.5"/>
<circle cx="183.5" cy="243.20117855948914" r="2" fill="#2ca02c" opacity="0.5"/>
<circle cx="187.5" cy="201.31358892539086" r="2" fill="#2ca02c" opacity="0.5"/>
<circle cx="183.5" cy="248.5019599704074" r="2" fill="#2ca02c" opacity="0.5"/>
<circle cx="183.5" cy="216.23982354953844" r="2" fill="#2ca02c" opacity="0.5"/>
<circle cx="187.5" cy="276.16985292961" r="2" fill="#2ca02c" opacity="0.5"/>
<circle cx="187.5" cy="265.6724919539322" r="2" fill="#2ca02c" opacity="0.5"/>
<circle cx="183.5" cy="254.6721055900902" r="2" fill="#2ca02c" opacity="0.5"/>
<circle cx="187.5" cy="253.23021916207992" r="2" fill="#2ca02c" opacity="0.5"/>
<circle cx="183.5" cy="247.29431984541267" r="2" fill="#2ca02c" opacity="0.5"/>
<circle cx="183.5" cy="208.83909993591806" r="2" fill="#2ca02c" opacity="0.5"/>
<circle cx="183.5" cy="251.98382628865178" r="2" fill="#2ca02c" opacity="0.5"/>
<circle cx="183.5" cy="249.35897023708733" r="2" fill="#2ca02c" opacity="0.5"/>
<circle cx="187.5" cy="199.96659974643464" r="2" fill="#2ca02c" opacity="0.5"/>
<circle cx="183.5" cy="234.2621502578394" r="2" fill="#2ca02c" opacity="0.5"/>
<circle cx="187.5" cy="250.42175701263932" r="2" fill="#2ca02c" opacity="0.5"/>
<circle cx="187.5" cy="248.09655640174697" r="2" fill="#2ca02c" opacity="0.5"/>
<circle cx="187.5" cy="227.26323592170837" r="2" fill="#2ca02c" opacity="0.5"/>
<circle cx="187.5" cy="213.1890407838623" r="2" fill="#2ca02c" opacity="0.5"/>
<circle cx="195.5" cy="251.97142896244955" r="2" fill="#1f77b4" opacity="0.5"/>
<circle cx="186.5" cy="253.31809401816835" r="2" fill="#1f77b4" opacity="0.5"/>
<circle cx="195.5" cy="228.08224355766683" r="2" fill="#1f77b4" opacity="0.5"/>
<circle cx="186.5" cy="276.47337780408577" r="2" fill="#1f77b4" opacity="0.5"/>
<circle cx="186.5" cy="225.97399891848576" r="2" fill="#1f77b4" opacity="0.5"/>
<circle cx="186.5" cy="252.5316434803158" r="2" fill="#1f77b4" opacity="0.5"/>
<circle cx="195.5" cy="253.9107497632802" r="2" fill="#1f77b4" opacity="0.5"/>
<circle cx="193.5" cy="253.80414165833352" r="2" fill="#1f77b4" opacity="0.5"/>
<circle cx="193.5" cy="228.26409618351911" r="2" fill="#1f77b4" opacity="0.5"/>
<circle cx="186.5" cy="227.20550002717022" r="2" fill="#1f77b4" opacity="0.5"/>
<circle cx="195.5" cy="229.54379603616658" r="2" fill="#1f77b4" opacity="0.5"/>
<circle cx="195.5" cy="234.67145441552643" r="2" fill="#1f77b4" opacity="0.5"/>
<circle cx="186.5" cy="229.3516249409349" r="2" fill="#1f77b4" opacity="0.5"/>
<circle cx="193.5" cy="225.2390364896596" r="2" fill="#ff7f0e" opacity="0.5"/>
<circle cx="186.5" cy="226.01710421198868" r="2" fill="#ff7f0e" opacity="0.5"/>
<circle cx="195.5" cy="253.73716163675311" r="2" fill="#ff7f0e" opacity="0.5"/>
<circle cx="193.5" cy="229.25850543194142" r="2" fill="#ff7f0e" opacity="0.5"/>
<circle cx="195.5" cy="236.3275116398404" r="2" fill="#ff7f0e" opacity="0.5"/>
<circle cx="186.5" cy="230.2271246516861" r="2" fill="#ff7f0e" opacity="0.5"/>
<circle cx="193.5" cy="227.3742254746109" r="2" fill="#ff7f0e" opacity="0.5"/>
<circle cx="186.5" cy="253.3578413507001" r="2" fill="#ff7f0e" opacity="0.5"/>
<circle cx="193.5" cy="253.8028577695381" r="2" fill="#ff7f0e" opacity="0.5"/>
<circle cx="186.5" cy="254.058478886403" r="2" fill="#ff7f0e" opacity="0.5"/>
<circle cx="195.5" cy="254.23617970119966" r="2" fill="#ff7f0e" opacity="0.5"/>
<circle cx="195.5" cy="227.2576713472726" r="2" fill="#ff7f0e" opacity="0.5"/>
<circle cx="193.5" cy="254.1623598673963" r="2" fill="#ff7f0e" opacity="0.5"/>
<circle cx="195.5" cy="258.14409635405116" r="2" fill="#2ca02c" opacity="0.5"/>
<circle cx="186.5" cy="227.00782118049463" r="2" fill="#2ca02c" opacity="0.5"/>
<circle cx="195.5" cy="226.37394622597998" r="2" fill="#2ca02c" opacity="0.5"/>
<circle cx="193.5" cy="222.59792974289442" r="2" fill="#2ca02c" opacity="0.5"/>
<circle cx="186.5" cy="232.80075188848966" r="2" fill="#2ca02c" opacity="0.5"/>
<circle cx="193.5" cy="246.96887898506742" r="2" fill="#2ca02c" opacity="0.5"/>
<circle cx="193.5" cy="218.6423400984527" r="2" fill="#2ca02c" opacity="0.5"/>
<circle cx="193.5" cy="224.58421017252837" r="2" fill="#2ca02c" opacity="0.5"/>
<circle cx="186.5" cy="236.09490295496659" r="2" fill="#2ca02c" opacity="0.5"/>
<circle cx="186.5" cy="206.96172752570715" r="2" fill="#2ca02c" opacity="0.5"/>
<circle cx="195.5" cy="249.21739886491466" r="2" fill="#2ca02c" opacity="0.5"/>
<circle cx="195.5" cy="245.30444906166755" r="2" fill="#2ca02c" opacity="0.5"/>
<circle cx="186.5" cy="198.42117908336564" r="2" fill="#2ca02c" opacity="0.5"/>
<circle cx="186.5" cy="222.27625129290527" r="2" fill="#2ca02c" opacity="0.5"/>
<circle cx="195.5" cy="224.47153007069818" r="2" fill="#2ca02c" opacity="0.5"/>
<circle cx="193.5" cy="196.72505995423825" r="2" fill="#2ca02c" opacity="0.5"/>
<circle cx="193.5" cy="241.35304358720737" r="2" fill="#2ca02c" opacity="0.5"/>
<circle cx="186.5" cy="230.2271246516861" r="2" fill="#2ca02c" opacity="0.5"/>
<circle cx="193.5" cy="229.93742632096527" r="2" fill="#2ca02c" opacity="0.5"/>
<circle cx="195.5" cy="214.0203940743001" r="2" fill="#2ca02c" opacity="0.5"/>
<circle cx="186.5" cy="229.3516249409349" r="2" fill="#2ca02c" opacity="0.5"/>
<circle cx="186.5" cy="224.49960163331747" r="2" fill="#2ca02c" opacity="0.5"/>
<circle cx="187.5" cy="252.85329744298627" r="2" fill="#1f77b4" opacity="0.5"/>
<circle cx="200.5" cy="219.59773357822783" r="2" fill="#1f77b4" opacity="0.5"/>
<circle cx="200.5" cy="214.25113823311926" r="2" fill="#1f77b4" opacity="0.5"/>
<circle cx="198.5" cy="251.3702665201907" r="2" fill="#1f77b4" opacity="0.5"/>
<circle cx="198.5" cy="216.66984747870745" r="2" fill="#1f77b4" opacity="0.5"/>
<circle cx="200.5" cy="251.23874721201886" r="2" fill="#1f77b4" opacity="0.5"/>
<circle cx="200.5" cy="251.25642301187847" r="2" fill="#1f77b4" opacity="0.5"/>
<circle cx="187.5" cy="253.0262583499499" r="2" fill="#1f77b4" opacity="0.5"/>
<circle cx="200.5" cy="252.95161201560424" r="2" fill="#1f77b4" opacity="0.5"/>
<circle cx="200.5" cy="217.19274411649283" r="2" fill="#1f77b4" opacity="0.5"/>
<circle cx="198.5" cy="253.141753057462" r="2" fill="#1f77b4" opacity="0.5"/>
<circle cx="187.5" cy="253.5792210041524" r="2" fill="#1f77b4" opacity="0.5"/>
<circle cx="200.5" cy="211.9914258005216" r="2" fill="#ff7f0e" opacity="0.5"/>
<circle cx="198.5" cy="253.12052309884356" r="2" fill="#ff7f0e" opacity="0.5"/>
<circle cx="198.5" cy="251.44162379282875" r="2" fill="#ff7f0e" opacity="0.5"/>
<circle cx="198.5" cy="221.89092349958148" r="2" fill="#ff7f0e" opacity="0.5"/>
<circle cx="200.5" cy="251.4781557340876" r="2" fill="#ff7f0e" opacity="0.5"/>
<circle cx="187.5" cy="210.3637819325196" r="2" fill="#ff7f0e" opacity="0.5"/>
<circle cx="198.5" cy="253.4620377170697" r="2" fill="#ff7f0e" opacity="0.5"/>
<circle cx="200.5" cy="251.2922586786575" r="2" fill="#ff7f0e" opacity="0.5"/>
<circle cx="200.5" cy="253.1497923186099" r="2" fill="#ff7f0e" opacity="0.5"/>
<circle cx="187.5" cy="252.98629909591304" r="2" fill="#ff7f0e" opacity="0.5"/>
<circle cx="200.5" cy="205.19882262494136" r="2" fill="#2ca02c" opacity="0.5"/>
<circle cx="200.5" cy="211.77863994651076" r="2" fill="#2ca02c" opacity="0.5"/>
<circle cx="200.5" cy="235.0342619683152" r="2" fill="#2ca02c" opacity="0.5"/>
<circle cx="200.5" cy="214.28837367724023" r="2" fill="#2ca02c" opacity="0.5"/>
<circle cx="200.5" cy="192.04273521842165" r="2" fill="#2ca02c" opacity="0.5"/>
<circle cx="198.5" cy="195.39791023860718" r="2" fill="#2ca02c" opacity="0.5"/>
<circle cx="200.5" cy="212.5991014532949" r="2" fill="#2ca02c" opacity="0.5"/>
<circle cx="200.5" cy="194.84954410337986" r="2" fill="#2ca02c" opacity="0.5"/>
<circle cx="200.5" cy="209.21648324568685" r="2" fill="#2ca02c" opacity="0.5"/>
<circle cx="200.5" cy="219.77254202822624" r="2" fill="#2ca02c" opacity="0.5"/>
<circle cx="187.5" cy="204.0982010995583" r="2" fill="#2ca02c" opacity="0.5"/>
<circle cx="187.5" cy="222.48196737294555" r="2" fill="#2ca02c" opacity="0.5"/>
<circle cx="187.5" cy="231.0669638000388" r="2" fill="#2ca02c" opacity="0.5"/>
<circle cx="187.5" cy="269.3829063224564" r="2" fill="#2ca02c" opacity="0.5"/>
<circle cx="198.5" cy="210.4935421467836" r="2" fill="#2ca02c" opacity="0.5"/>
<circle cx="187.5" cy="210.33799668089185" r="2" fill="#2ca02c" opacity="0.5"/>
<circle cx="187.5" cy="207.418193522116" r="2" fill="#2ca02c" opacity="0.5"/>
<circle cx="198.5" cy="213.98979595838858" r="2" fill="#2ca02c" opacity="0.5"/>
<circle cx="198.5" cy="212.08874126630408" r="2" fill="#2ca02c" opacity="0.5"/>
<circle cx="198.5" cy="269.59701017917774" r="2" fill="#2ca02c" opacity="0.5"/>
<circle cx="187.5" cy="211.91679134408795" r="2" fill="#2ca02c" opacity="0.5"/>
<circle cx="198.5" cy="208.09064113656368" r="2" fill="#2ca02c" opacity="0.5"/>
<text x="192.5" y="358" text-anchor="middle" font-size="11">mufu</text>
<text x="192.5" y="374" text-anchor="middle" font-size="9" fill="#666">n=293</text>
<rect x="422.5" y="199.3507667448084" width="30" height="52.55851889769937" fill="#ddd" stroke="#333"/>
<line x1="422.5" y1="233.9758727940272" x2="452.5" y2="233.9758727940272" stroke="#333" stroke-width="2"/>
<circle cx="435.5" cy="222.8400874691041" r="2" fill="#1f77b4" opacity="0.5"/>
<circle cx="430.5" cy="61.62309923087988" r="2" fill="#1f77b4" opacity="0.5"/>
<circle cx="435.5" cy="169.18937074542953" r="2" fill="#1f77b4" opacity="0.5"/>
<circle cx="435.5" cy="149.18835311897908" r="2" fill="#1f77b4" opacity="0.5"/>
<circle cx="432.5" cy="198.96655125043821" r="2" fill="#1f77b4" opacity="0.5"/>
<circle cx="432.5" cy="220.24351355928545" r="2" fill="#1f77b4" opacity="0.5"/>
<circle cx="435.5" cy="151.15941560776133" r="2" fill="#ff7f0e" opacity="0.5"/>
<circle cx="430.5" cy="102.46366030260614" r="2" fill="#ff7f0e" opacity="0.5"/>
<circle cx="435.5" cy="97.30256719818061" r="2" fill="#ff7f0e" opacity="0.5"/>
<circle cx="432.5" cy="174.62467631308087" r="2" fill="#ff7f0e" opacity="0.5"/>
<circle cx="430.5" cy="67.63259358717056" r="2" fill="#ff7f0e" opacity="0.5"/>
<circle cx="430.5" cy="153.87834951615517" r="2" fill="#ff7f0e" opacity="0.5"/>
<circle cx="440.5" cy="247.57244351851685" r="2" fill="#1f77b4" opacity="0.5"/>
<circle cx="440.5" cy="174.18377069293786" r="2" fill="#1f77b4" opacity="0.5"/>
<circle cx="442.5" cy="170.10666110058685" r="2" fill="#ff7f0e" opacity="0.5"/>
<circle cx="440.5" cy="170.7177836565185" r="2" fill="#ff7f0e" opacity="0.5"/>
<circle cx="432.5" cy="245.68945698135522" r="2" fill="#1f77b4" opacity="0.5"/>
<circle cx="432.5" cy="241.67572386192427" r="2" fill="#1f77b4" opacity="0.5"/>
<circle cx="432.5" cy="235.7001912088081" r="2" fill="#1f77b4" opacity="0.5"/>
<circle cx="428.5" cy="231.52458381330754" r="2" fill="#1f77b4" opacity="0.5"/>
<circle cx="428.5" cy="261.87313142042456" r="2" fill="#1f77b4" opacity="0.5"/>
<circle cx="432.5" cy="269.97948380178775" r="2" fill="#ff7f0e" opacity="0.5"/>
<circle cx="428.5" cy="241.3560239172618" r="2" fill="#ff7f0e" opacity="0.5"/>
<circle cx="432.5" cy="238.64043630225186" r="2" fill="#ff7f0e" opacity="0.5"/>
<circle cx="428.5" cy="232.20974308528787" r="2" fill="#ff7f0e" opacity="0.5"/>
<circle cx="440.5" cy="268.46582522582787" r="2" fill="#1f77b4" opacity="0.5"/>
<circle cx="438.5" cy="241.4297220117788" r="2" fill="#1f77b4" opacity="0.5"/>
<circle cx="431.5" cy="234.54569201191998" r="2" fill="#1f77b4" opacity="0.5"/>
<circle cx="438.5" cy="208.7383653181795" r="2" fill="#1f77b4" opacity="0.5"/>
<circle cx="438.5" cy="204.823597400371" r="2" fill="#1f77b4" opacity="0.5"/>
<circle cx="440.5" cy="273.9864294498233" r="2" fill="#ff7f0e" opacity="0.5"/>
<circle cx="440.5" cy="216.3018459246421" r="2" fill="#ff7f0e" opacity="0.5"/>
<circle cx="431.5" cy="206.81397802049892" r="2" fill="#ff7f0e" opacity="0.5"/>
<circle cx="432.5" cy="240.23156084583954" r="2" fill="#1f77b4" opacity="0.5"/>
<circle cx="432.5" cy="260.0523436253772" r="2" fill="#1f77b4" opacity="0.5"/>
<circle cx="432.5" cy="190.77523276347776" r="2" fill="#1f77b4" opacity="0.5"/>
<circle cx="445.5" cy="225.13423649266568" r="2" fill="#1f77b4" opacity="0.5"/>
<circle cx="445.5" cy="267.915488159205" r="2" fill="#ff7f0e" opacity="0.5"/>
<circle cx="443.5" cy="220.23798589166967" r="2" fill="#ff7f0e" opacity="0.5"/>
<circle cx="432.5" cy="196.44757767062563" r="2" fill="#ff7f0e" opacity="0.5"/>
<circle cx="432.5" cy="230.11092706649845" r="2" fill="#1f77b4" opacity="0.5"/>
<circle cx="432.5" cy="181.55008792528034" r="2" fill="#1f77b4" opacity="0.5"/>
<circle cx="430.5" cy="103.15348620916089" r="2" fill="#1f77b4" opacity="0.5"/>
<circle cx="430.5" cy="105.12352775063539" r="2" fill="#1f77b4" opacity="0.5"/>
<circle cx="430.5" cy="185.15744316761894" r="2" fill="#1f77b4" opacity="0.5"/>
<circle cx="435.5" cy="129.5895574266285" r="2" fill="#1f77b4" opacity="0.5"/>
<circle cx="435.5" cy="96.5255421027105" r="2" fill="#1f77b4" opacity="0.5"/>
<circle cx="432.5" cy="132.0137422002786" r="2" fill="#1f77b4" opacity="0.5"/>
<circle cx="432.5" cy="158.52734240063046" r="2" fill="#1f77b4" opacity="0.5"/>
<circle cx="430.5" cy="153.2609935278331" r="2" fill="#1f77b4" opacity="0.5"/>
<circle cx="432.5" cy="134.5430189219071" r="2" fill="#ff7f0e" opacity="0.5"/>
<circle cx="435.5" cy="134.6824190854947" r="2" fill="#ff7f0e" opacity="0.5"/>
<circle cx="432.5" cy="182.56054278769705" r="2" fill="#ff7f0e" opacity="0.5"/>
<circle cx="435.5" cy="190.24799685887706" r="2" fill="#ff7f0e" opacity="0.5"/>
<circle cx="435.5" cy="98.53358086903742" r="2" fill="#ff7f0e" opacity="0.5"/>
<circle cx="430.5" cy="104.21284903236656" r="2" fill="#ff7f0e" opacity="0.5"/>
<circle cx="430.5" cy="186.27718948487055" r="2" fill="#ff7f0e" opacity="0.5"/>
<circle cx="430.5" cy="181.7073660016568" r="2" fill="#ff7f0e" opacity="0.5"/>
<circle cx="432.5" cy="236.81376019811816" r="2" fill="#ff7f0e" opacity="0.5"/>
<circle cx="435.5" cy="174.1995085300341" r="2" fill="#ff7f0e" opacity="0.5"/>
<circle cx="442.5" cy="229.3006011488204" r="2" fill="#1f77b4" opacity="0.5"/>
<circle cx="440.5" cy="251.72229613451222" r="2" fill="#1f77b4" opacity="0.5"/>
<circle cx="440.5" cy="250.45658545252257" r="2" fill="#1f77b4" opacity="0.5"/>
<circle cx="442.5" cy="243.7434661508664" r="2" fill="#1f77b4" opacity="0.5"/>
<circle cx="440.5" cy="251.87630511730498" r="2" fill="#1f77b4" opacity="0.5"/>
<circle cx="440.5" cy="232.8353058820752" r="2" fill="#1f77b4" opacity="0.5"/>
<circle cx="440.5" cy="235.8667905262505" r="2" fill="#1f77b4" opacity="0.5"/>
<circle cx="442.5" cy="169.56985024717437" r="2" fill="#1f77b4" opacity="0.5"/>
<circle cx="440.5" cy="254.69746821129712" r="2" fill="#1f77b4" opacity="0.5"/>
<circle cx="442.5" cy="253.7335257916312" r="2" fill="#1f77b4" opacity="0.5"/>
<circle cx="440.5" cy="234.70532798867998" r="2" fill="#1f77b4" opacity="0.5"/>
<circle cx="440.5" cy="237.41360774646722" r="2" fill="#ff7f0e" opacity="0.5"/>
<circle cx="442.5" cy="215.6116530180166" r="2" fill="#ff7f0e" opacity="0.5"/>
<circle cx="440.5" cy="234.84794147952775" r="2" fill="#ff7f0e" opacity="0.5"/>
<circle cx="442.5" cy="232.17130099745503" r="2" fill="#ff7f0e" opacity="0.5"/>
<circle cx="442.5" cy="254.66192911209887" r="2" fill="#ff7f0e" opacity="0.5"/>
<circle cx="440.5" cy="247.4205290636175" r="2" fill="#ff7f0e" opacity="0.5"/>
<circle cx="440.5" cy="251.9202791509087" r="2" fill="#ff7f0e" opacity="0.5"/>
<circle cx="442.5" cy="241.97139846603181" r="2" fill="#ff7f0e" opacity="0.5"/>
<circle cx="440.5" cy="253.20919700045363" r="2" fill="#ff7f0e" opacity="0.5"/>
<circle cx="440.5" cy="240.80693590160726" r="2" fill="#ff7f0e" opacity="0.5"/>
<circle cx="440.5" cy="254.05581642090323" r="2" fill="#ff7f0e" opacity="0.5"/>
<circle cx="428.5" cy="238.1972390482206" r="2" fill="#1f77b4" opacity="0.5"/>
<circle cx="428.5" cy="230.57660142251706" r="2" fill="#1f77b4" opacity="0.5"/>
<circle cx="428.5" cy="227.56104235455652" r="2" fill="#1f77b4" opacity="0.5"/>
<circle cx="432.5" cy="256.24374798744196" r="2" fill="#1f77b4" opacity="0.5"/>
<circle cx="428.5" cy="245.50691729683498" r="2" fill="#1f77b4" opacity="0.5"/>
<circle cx="432.5" cy="226.64969706374484" r="2" fill="#1f77b4" opacity="0.5"/>
<circle cx="428.5" cy="239.64917774525492" r="2" fill="#1f77b4" opacity="0.5"/>
<circle cx="428.5" cy="252.44657390796215" r="2" fill="#1f77b4" opacity="0.5"/>
<circle cx="428.5" cy="222.5822322239982" r="2" fill="#1f77b4" opacity="0.5"/>
<circle cx="432.5" cy="232.3687571120998" r="2" fill="#1f77b4" opacity="0.5"/>
<circle cx="428.5" cy="262.06359428598284" r="2" fill="#ff7f0e" opacity="0.5"/>
<circle cx="428.5" cy="242.66919780047542" r="2" fill="#ff7f0e" opacity="0.5"/>
<circle cx="428.5" cy="254.74410305785037" r="2" fill="#ff7f0e" opacity="0.5"/>
<circle cx="432.5" cy="232.6190231480936" r="2" fill="#ff7f0e" opacity="0.5"/>
<circle cx="428.5" cy="239.18701200367923" r="2" fill="#ff7f0e" opacity="0.5"/>
<circle cx="432.5" cy="254.41138416016858" r="2" fill="#ff7f0e" opacity="0.5"/>
<circle cx="428.5" cy="233.40605357613444" r="2" fill="#ff7f0e" opacity="0.5"/>
<circle cx="428.5" cy="249.00621537497187" r="2" fill="#ff7f0e" opacity="0.5"/>
<circle cx="432.5" cy="245.66666473193226" r="2" fill="#ff7f0e" opacity="0.5"/>
<circle cx="428.5" cy="253.48836160953792" r="2" fill="#ff7f0e" opacity="0.5"/>
<circle cx="431.5" cy="205.6554273797184" r="2" fill="#1f77b4" opacity="0.5"/>
<circle cx="440.5" cy="208.89840723420258" r="2" fill="#1f77b4" opacity="0.5"/>
<circle cx="440.5" cy="261.98798734328295" r="2" fill="#1f77b4" opacity="0.5"/>
<circle cx="440.5" cy="210.47225231009952" r="2" fill="#1f77b4" opacity="0.5"/>
<circle cx="438.5" cy="255.39847955548726" r="2" fill="#1f77b4" opacity="0.5"/>
<circle cx="440.5" cy="235.41422735661118" r="2" fill="#1f77b4" opacity="0.5"/>
<circle cx="431.5" cy="236.67511852928786" r="2" fill="#1f77b4" opacity="0.5"/>
<circle cx="438.5" cy="210.3763138208147" r="2" fill="#1f77b4" opacity="0.5"/>
<circle cx="431.5" cy="204.37821576379545" r="2" fill="#1f77b4" opacity="0.5"/>
<circle cx="440.5" cy="255.50480947165732" r="2" fill="#ff7f0e" opacity="0.5"/>
<circle cx="438.5" cy="211.57900428256883" r="2" fill="#ff7f0e" opacity="0.5"/>
<circle cx="438.5" cy="265.00427107335065" r="2" fill="#ff7f0e" opacity="0.5"/>
<circle cx="438.5" cy="263.30681029593677" r="2" fill="#ff7f0e" opacity="0.5"/>
<circle cx="438.5" cy="216.70051088961986" r="2" fill="#ff7f0e" opacity="0.5"/>
<circle cx="431.5" cy="239.97107245817764" r="2" fill="#ff7f0e" opacity="0.5"/>
<circle cx="440.5" cy="244.33553191814886" r="2" fill="#ff7f0e" opacity="0.5"/>
<circle cx="438.5" cy="255.96794994159157" r="2" fill="#ff7f0e" opacity="0.5"/>
<circle cx="440.5" cy="270.6639330173306" r="2" fill="#ff7f0e" opacity="0.5"/>
<circle cx="443.5" cy="219.4749895999686" r="2" fill="#1f77b4" opacity="0.5"/>
<circle cx="445.5" cy="262.1013981643238" r="2" fill="#1f77b4" opacity="0.5"/>
<circle cx="445.5" cy="265.0434517224247" r="2" fill="#1f77b4" opacity="0.5"/>
<circle cx="445.5" cy="222.4741984218203" r="2" fill="#1f77b4" opacity="0.5"/>
<circle cx="443.5" cy="262.20544667058914" r="2" fill="#1f77b4" opacity="0.5"/>
<circle cx="445.5" cy="273.1599024225251" r="2" fill="#1f77b4" opacity="0.5"/>
<circle cx="445.5" cy="213.85040749391305" r="2" fill="#1f77b4" opacity="0.5"/>
<circle cx="432.5" cy="189.7844507476794" r="2" fill="#1f77b4" opacity="0.5"/>
<circle cx="432.5" cy="254.16145251591976" r="2" fill="#1f77b4" opacity="0.5"/>
<circle cx="432.5" cy="193.8102226984924" r="2" fill="#1f77b4" opacity="0.5"/>
<circle cx="432.5" cy="200.50341322791908" r="2" fill="#ff7f0e" opacity="0.5"/>
<circle cx="445.5" cy="277.30860531404915" r="2" fill="#ff7f0e" opacity="0.5"/>
<circle cx="445.5" cy="231.59895011084706" r="2" fill="#ff7f0e" opacity="0.5"/>
<circle cx="443.5" cy="266.9434572616027" r="2" fill="#ff7f0e" opacity="0.5"/>
<circle cx="443.5" cy="328.37690076912014" r="2" fill="#ff7f0e" opacity="0.5"/>
<circle cx="432.5" cy="211.59743167438668" r="2" fill="#ff7f0e" opacity="0.5"/>
<circle cx="445.5" cy="239.2744298342457" r="2" fill="#ff7f0e" opacity="0.5"/>
<circle cx="445.5" cy="271.6056036368086" r="2" fill="#ff7f0e" opacity="0.5"/>
<circle cx="432.5" cy="257.86013776788246" r="2" fill="#ff7f0e" opacity="0.5"/>
<circle cx="432.5" cy="243.6378440732818" r="2" fill="#ff7f0e" opacity="0.5"/>
<circle cx="445.5" cy="236.9473159780262" r="2" fill="#ff7f0e" opacity="0.5"/>
<circle cx="443.5" cy="268.0020732587713" r="2" fill="#ff7f0e" opacity="0.5"/>
<text x="437.5" y="358" text-anchor="middle" font-size="11">mma</text>
<text x="437.5" y="374" text-anchor="middle" font-size="9" fill="#666">n=142</text>
<text x="315.0" y="405" text-anchor="middle" font-size="13">Predicted bottleneck</text>
<text x="18" y="195.0" text-anchor="middle" transform="rotate(-90,18,195.0)" font-size="13">Residual (%)</text>
<text x="70" y="25" font-size="14" font-weight="bold">Figure 2: Residual distribution by predicted bottleneck</text>
<rect x="480" y="60" width="10" height="10" fill="#1f77b4"/>
<text x="495" y="69" font-size="11">bf16</text>
<rect x="480" y="78" width="10" height="10" fill="#ff7f0e"/>
<text x="495" y="87" font-size="11">fp16</text>
<rect x="480" y="96" width="10" height="10" fill="#2ca02c"/>
<text x="495" y="105" font-size="11">fp8</text>
</svg>
