<?xml version="1.0" encoding="UTF-8" standalone="no"?>
<!DOCTYPE svg PUBLIC "-//W3C//DTD SVG 1.1//EN"
 "http://www.w3.org/Graphics/SVG/1.1/DTD/svg11.dtd">
<!-- Generated by graphviz version 2.43.0 (0)
 -->
<!-- Title: gpu_execution Pages: 1 -->
<svg width="943pt" height="531pt"
 viewBox="0.00 0.00 943.00 531.00" xmlns="http://www.w3.org/2000/svg" xmlns:xlink="http://www.w3.org/1999/xlink">
<g id="graph0" class="graph" transform="rotate(0) translate(4 527)">
<title>gpu_execution</title>
<polygon fill="white" stroke="transparent" points="-4,4 -4,-527 939,-527 939,4 -4,4"/>
<g id="clust1" class="cluster">
<title>cluster_gpu</title>
<path fill="#f0f0f0" stroke="#666666" d="M120,-72C120,-72 745,-72 745,-72 751,-72 757,-78 757,-84 757,-84 757,-503 757,-503 757,-509 751,-515 745,-515 745,-515 120,-515 120,-515 114,-515 108,-509 108,-503 108,-503 108,-84 108,-84 108,-78 114,-72 120,-72"/>
<text text-anchor="middle" x="432.5" y="-499.8" font-family="sans-serif" font-size="14.00">NVIDIA B200 GPU (180 SMs)</text>
</g>
<g id="clust2" class="cluster">
<title>cluster_sm</title>
<path fill="#fffbe6" stroke="#aaaaaa" d="M268,-80C268,-80 737,-80 737,-80 743,-80 749,-86 749,-92 749,-92 749,-472 749,-472 749,-478 743,-484 737,-484 737,-484 268,-484 268,-484 262,-484 256,-478 256,-472 256,-472 256,-92 256,-92 256,-86 262,-80 268,-80"/>
<text text-anchor="middle" x="502.5" y="-468.8" font-family="sans-serif" font-size="14.00">One SM (zoom)</text>
</g>
<!-- host -->
<g id="node1" class="node">
<title>host</title>
<path fill="#e6f2ff" stroke="black" d="M88,-380C88,-380 12,-380 12,-380 6,-380 0,-374 0,-368 0,-368 0,-356 0,-356 0,-350 6,-344 12,-344 12,-344 88,-344 88,-344 94,-344 100,-350 100,-356 100,-356 100,-368 100,-368 100,-374 94,-380 88,-380"/>
<text text-anchor="middle" x="50" y="-365.2" font-family="sans-serif" font-size="11.00">Host dispatch /</text>
<text text-anchor="middle" x="50" y="-353.2" font-family="sans-serif" font-size="11.00">kernel launch</text>
</g>
<!-- xbar -->
<g id="node10" class="node">
<title>xbar</title>
<path fill="#eeeeee" stroke="black" d="M235.5,-298C235.5,-298 128.5,-298 128.5,-298 122.5,-298 116.5,-292 116.5,-286 116.5,-286 116.5,-274 116.5,-274 116.5,-268 122.5,-262 128.5,-262 128.5,-262 235.5,-262 235.5,-262 241.5,-262 247.5,-268 247.5,-274 247.5,-274 247.5,-286 247.5,-286 247.5,-292 241.5,-298 235.5,-298"/>
<text text-anchor="middle" x="182" y="-283.2" font-family="sans-serif" font-size="11.00">On&#45;chip interconnect</text>
<text text-anchor="middle" x="182" y="-271.2" font-family="sans-serif" font-size="11.00">(xbar / NoC)</text>
</g>
<!-- host&#45;&gt;xbar -->
<g id="edge1" class="edge">
<title>host&#45;&gt;xbar</title>
<path fill="none" stroke="#333333" d="M78.32,-343.84C98.33,-331.71 125.29,-315.37 146.7,-302.39"/>
<polygon fill="#333333" stroke="#333333" points="148.34,-304.67 153.73,-298.13 145.44,-299.89 148.34,-304.67"/>
<text text-anchor="middle" x="172.5" y="-318.8" font-family="sans-serif" font-size="9.00">grid + tile descriptors</text>
</g>
<!-- sched -->
<g id="node2" class="node">
<title>sched</title>
<path fill="#f8f8f8" stroke="black" d="M538,-453C538,-453 454,-453 454,-453 448,-453 442,-447 442,-441 442,-441 442,-429 442,-429 442,-423 448,-417 454,-417 454,-417 538,-417 538,-417 544,-417 550,-423 550,-429 550,-429 550,-441 550,-441 550,-447 544,-453 538,-453"/>
<text text-anchor="middle" x="496" y="-438.2" font-family="sans-serif" font-size="11.00">Warp schedulers</text>
<text text-anchor="middle" x="496" y="-426.2" font-family="sans-serif" font-size="11.00">(4 per SM)</text>
</g>
<!-- score -->
<g id="node3" class="node">
<title>score</title>
<path fill="#f8f8f8" stroke="black" d="M523.5,-380C523.5,-380 468.5,-380 468.5,-380 462.5,-380 456.5,-374 456.5,-368 456.5,-368 456.5,-356 456.5,-356 456.5,-350 462.5,-344 468.5,-344 468.5,-344 523.5,-344 523.5,-344 529.5,-344 535.5,-350 535.5,-356 535.5,-356 535.5,-368 535.5,-368 535.5,-374 529.5,-380 523.5,-380"/>
<text text-anchor="middle" x="496" y="-359.2" font-family="sans-serif" font-size="11.00">Scoreboard</text>
</g>
<!-- sched&#45;&gt;score -->
<!-- rf -->
<g id="node4" class="node">
<title>rf</title>
<path fill="#f8f8f8" stroke="black" d="M546.5,-298C546.5,-298 445.5,-298 445.5,-298 439.5,-298 433.5,-292 433.5,-286 433.5,-286 433.5,-274 433.5,-274 433.5,-268 439.5,-262 445.5,-262 445.5,-262 546.5,-262 546.5,-262 552.5,-262 558.5,-268 558.5,-274 558.5,-274 558.5,-286 558.5,-286 558.5,-292 552.5,-298 546.5,-298"/>
<text text-anchor="middle" x="496" y="-283.2" font-family="sans-serif" font-size="11.00">Register file</text>
<text text-anchor="middle" x="496" y="-271.2" font-family="sans-serif" font-size="11.00">(RF / accumulators)</text>
</g>
<!-- score&#45;&gt;rf -->
<!-- oc -->
<g id="node5" class="node">
<title>oc</title>
<path fill="#f8f8f8" stroke="black" d="M729,-216C729,-216 683,-216 683,-216 677,-216 671,-210 671,-204 671,-204 671,-192 671,-192 671,-186 677,-180 683,-180 683,-180 729,-180 729,-180 735,-180 741,-186 741,-192 741,-192 741,-204 741,-204 741,-210 735,-216 729,-216"/>
<text text-anchor="middle" x="706" y="-201.2" font-family="sans-serif" font-size="11.00">Operand</text>
<text text-anchor="middle" x="706" y="-189.2" font-family="sans-serif" font-size="11.00">collectors</text>
</g>
<!-- rf&#45;&gt;oc -->
<g id="edge11" class="edge">
<title>rf&#45;&gt;oc</title>
<path fill="none" stroke="#333333" d="M546.29,-261.97C562.25,-256.41 579.92,-250.1 596,-244 618.24,-235.57 642.75,-225.6 662.99,-217.2"/>
<polygon fill="#333333" stroke="#333333" points="664.21,-219.72 670.52,-214.06 662.05,-214.55 664.21,-219.72"/>
<text text-anchor="middle" x="641.5" y="-236.8" font-family="sans-serif" font-size="9.00">operands</text>
</g>
<!-- rf&#45;&gt;oc -->
<!-- mufu -->
<g id="node7" class="node">
<title>mufu</title>
<path fill="#ffe6e6" stroke="black" d="M333.5,-216C333.5,-216 276.5,-216 276.5,-216 270.5,-216 264.5,-210 264.5,-204 264.5,-204 264.5,-192 264.5,-192 264.5,-186 270.5,-180 276.5,-180 276.5,-180 333.5,-180 333.5,-180 339.5,-180 345.5,-186 345.5,-192 345.5,-192 345.5,-204 345.5,-204 345.5,-210 339.5,-216 333.5,-216"/>
<text text-anchor="middle" x="305" y="-201.2" font-family="sans-serif" font-size="11.00">MUFU / SFU</text>
<text text-anchor="middle" x="305" y="-189.2" font-family="sans-serif" font-size="11.00">unit</text>
</g>
<!-- rf&#45;&gt;mufu -->
<g id="edge14" class="edge">
<title>rf&#45;&gt;mufu</title>
<path fill="none" stroke="#ff7f0e" d="M433.15,-262.65C432.1,-262.43 431.04,-262.21 430,-262 403.36,-256.6 327.65,-263.78 309,-244 304.05,-238.75 302.14,-231.46 301.73,-224.28"/>
<polygon fill="#ff7f0e" stroke="#ff7f0e" points="304.53,-224.06 301.84,-216.02 298.93,-223.98 304.53,-224.06"/>
<text text-anchor="middle" x="337" y="-236.8" font-family="sans-serif" font-size="9.00" fill="#ff7f0e">softmax exp</text>
</g>
<!-- l1 -->
<g id="node8" class="node">
<title>l1</title>
<path fill="#f8f8f8" stroke="black" d="M446,-216C446,-216 376,-216 376,-216 370,-216 364,-210 364,-204 364,-204 364,-192 364,-192 364,-186 370,-180 376,-180 376,-180 446,-180 446,-180 452,-180 458,-186 458,-192 458,-192 458,-204 458,-204 458,-210 452,-216 446,-216"/>
<text text-anchor="middle" x="411" y="-195.2" font-family="sans-serif" font-size="11.00">L1 data cache</text>
</g>
<!-- rf&#45;&gt;l1 -->
<g id="edge17" class="edge">
<title>rf&#45;&gt;l1</title>
<path fill="none" stroke="#9467bd" d="M475.25,-261.91C468.66,-256.32 461.43,-250.01 455,-244 447.52,-237.01 439.61,-229.1 432.6,-221.89"/>
<polygon fill="#9467bd" stroke="#9467bd" points="434.52,-219.84 426.95,-216.03 430.49,-223.73 434.52,-219.84"/>
<text text-anchor="middle" x="471.5" y="-236.8" font-family="sans-serif" font-size="9.00" fill="#9467bd">O store</text>
</g>
<!-- rf&#45;&gt;l1 -->
<!-- tc -->
<g id="node6" class="node">
<title>tc</title>
<path fill="#e6ffe6" stroke="black" d="M631.5,-124C631.5,-124 574.5,-124 574.5,-124 568.5,-124 562.5,-118 562.5,-112 562.5,-112 562.5,-100 562.5,-100 562.5,-94 568.5,-88 574.5,-88 574.5,-88 631.5,-88 631.5,-88 637.5,-88 643.5,-94 643.5,-100 643.5,-100 643.5,-112 643.5,-112 643.5,-118 637.5,-124 631.5,-124"/>
<text text-anchor="middle" x="603" y="-109.2" font-family="sans-serif" font-size="11.00">Tensor Core</text>
<text text-anchor="middle" x="603" y="-97.2" font-family="sans-serif" font-size="11.00">MMA unit</text>
</g>
<!-- oc&#45;&gt;tc -->
<g id="edge12" class="edge">
<title>oc&#45;&gt;tc</title>
<path fill="none" stroke="#2ca02c" d="M686.14,-179.65C669.9,-165.45 646.8,-145.27 629.07,-129.78"/>
<polygon fill="#2ca02c" stroke="#2ca02c" points="630.67,-127.46 622.8,-124.3 626.98,-131.67 630.67,-127.46"/>
<text text-anchor="middle" x="692.5" y="-154.8" font-family="sans-serif" font-size="9.00" fill="#2ca02c">MMA Q@K^T</text>
<text text-anchor="middle" x="692.5" y="-144.8" font-family="sans-serif" font-size="9.00" fill="#2ca02c">P@V</text>
</g>
<!-- tc&#45;&gt;rf -->
<g id="edge13" class="edge">
<title>tc&#45;&gt;rf</title>
<path fill="none" stroke="#2ca02c" d="M597.48,-124.15C589.88,-146.41 574.83,-185.98 555,-216 545.37,-230.59 532.26,-244.96 520.85,-256.29"/>
<polygon fill="#2ca02c" stroke="#2ca02c" points="518.84,-254.34 515.06,-261.92 522.75,-258.35 518.84,-254.34"/>
<text text-anchor="middle" x="605" y="-195.8" font-family="sans-serif" font-size="9.00" fill="#2ca02c">accumulators</text>
</g>
<!-- smem -->
<g id="node9" class="node">
<title>smem</title>
<path fill="#f8f8f8" stroke="black" d="M451,-124C451,-124 371,-124 371,-124 365,-124 359,-118 359,-112 359,-112 359,-100 359,-100 359,-94 365,-88 371,-88 371,-88 451,-88 451,-88 457,-88 463,-94 463,-100 463,-100 463,-112 463,-112 463,-118 457,-124 451,-124"/>
<text text-anchor="middle" x="411" y="-109.2" font-family="sans-serif" font-size="11.00">Shared memory</text>
<text text-anchor="middle" x="411" y="-97.2" font-family="sans-serif" font-size="11.00">(SMEM)</text>
</g>
<!-- mufu&#45;&gt;smem -->
<g id="edge15" class="edge">
<title>mufu&#45;&gt;smem</title>
<path fill="none" stroke="#ff7f0e" d="M313.82,-179.96C320.57,-168.17 330.79,-152.72 343,-142 348.91,-136.81 355.73,-132.14 362.71,-128.04"/>
<polygon fill="#ff7f0e" stroke="#ff7f0e" points="364.11,-130.47 369.73,-124.13 361.38,-125.58 364.11,-130.47"/>
<text text-anchor="middle" x="375" y="-149.8" font-family="sans-serif" font-size="9.00" fill="#ff7f0e">row reduction</text>
</g>
<!-- l1&#45;&gt;rf -->
<g id="edge9" class="edge">
<title>l1&#45;&gt;rf</title>
<path fill="none" stroke="#1f77b4" d="M382.27,-216.08C372.09,-224.3 364.76,-234.44 372,-244 372.97,-245.28 398.17,-252.5 425.59,-260.04"/>
<polygon fill="#1f77b4" stroke="#1f77b4" points="424.91,-262.76 433.37,-262.18 426.39,-257.36 424.91,-262.76"/>
<text text-anchor="middle" x="402" y="-236.8" font-family="sans-serif" font-size="9.00" fill="#1f77b4">to RF / SMEM</text>
</g>
<!-- l1&#45;&gt;smem -->
<g id="edge10" class="edge">
<title>l1&#45;&gt;smem</title>
<path fill="none" stroke="#1f77b4" d="M411,-179.65C411,-166.32 411,-147.72 411,-132.68"/>
<polygon fill="#1f77b4" stroke="#1f77b4" points="413.8,-132.3 411,-124.3 408.2,-132.3 413.8,-132.3"/>
<text text-anchor="middle" x="431" y="-149.8" font-family="sans-serif" font-size="9.00" fill="#1f77b4">to SMEM</text>
</g>
<!-- l1&#45;&gt;xbar -->
<g id="edge18" class="edge">
<title>l1&#45;&gt;xbar</title>
<path fill="none" stroke="#9467bd" d="M363.81,-214.02C360.84,-214.74 357.89,-215.42 355,-216 317.55,-223.58 210.19,-206.18 184,-234 179.07,-239.24 177.42,-246.52 177.34,-253.71"/>
<polygon fill="#9467bd" stroke="#9467bd" points="174.56,-254.16 177.85,-261.97 180.15,-253.81 174.56,-254.16"/>
<text text-anchor="middle" x="200.5" y="-236.8" font-family="sans-serif" font-size="9.00" fill="#9467bd">O store</text>
</g>
<!-- smem&#45;&gt;rf -->
<g id="edge16" class="edge">
<title>smem&#45;&gt;rf</title>
<path fill="none" stroke="#ff7f0e" d="M437.14,-124.36C443.56,-129.49 450.01,-135.5 455,-142 482.14,-177.37 485.44,-190.45 495,-234 496.36,-240.19 496.96,-246.98 497.14,-253.36"/>
<polygon fill="#ff7f0e" stroke="#ff7f0e" points="494.34,-253.73 497.17,-261.72 499.94,-253.71 494.34,-253.73"/>
<text text-anchor="middle" x="520.5" y="-195.8" font-family="sans-serif" font-size="9.00" fill="#ff7f0e">scaled scores</text>
</g>
<!-- xbar&#45;&gt;l1 -->
<g id="edge8" class="edge">
<title>xbar&#45;&gt;l1</title>
<path fill="none" stroke="#1f77b4" d="M198.91,-261.79C209.51,-252.05 223.98,-240.55 239,-234 286.83,-213.15 304.13,-227.61 355,-216 355.27,-215.94 355.54,-215.88 355.81,-215.81"/>
<polygon fill="#1f77b4" stroke="#1f77b4" points="356.67,-218.48 363.77,-213.85 355.33,-213.05 356.67,-218.48"/>
<text text-anchor="middle" x="251" y="-236.8" font-family="sans-serif" font-size="9.00" fill="#1f77b4">to L1</text>
</g>
<!-- xbar&#45;&gt;l1 -->
<!-- l2 -->
<g id="node11" class="node">
<title>l2</title>
<path fill="#e6e6ff" stroke="black" d="M866,-216C866,-216 804,-216 804,-216 798,-216 792,-210 792,-204 792,-204 792,-192 792,-192 792,-186 798,-180 804,-180 804,-180 866,-180 866,-180 872,-180 878,-186 878,-192 878,-192 878,-204 878,-204 878,-210 872,-216 866,-216"/>
<text text-anchor="middle" x="835" y="-201.2" font-family="sans-serif" font-size="11.00">L2 cache</text>
<text text-anchor="middle" x="835" y="-189.2" font-family="sans-serif" font-size="11.00">(partitioned)</text>
</g>
<!-- xbar&#45;&gt;l2 -->
<g id="edge2" class="edge">
<title>xbar&#45;&gt;l2</title>
<path fill="none" stroke="#333333" d="M247.88,-262.59C249.26,-262.38 250.64,-262.18 252,-262 286.54,-257.36 854.72,-268.99 879,-244 886.16,-236.63 882.12,-228.6 874.15,-221.4"/>
<polygon fill="#333333" stroke="#333333" points="875.42,-218.83 867.41,-216.07 871.95,-223.23 875.42,-218.83"/>
<text text-anchor="middle" x="907.5" y="-236.8" font-family="sans-serif" font-size="9.00">miss traffic</text>
</g>
<!-- xbar&#45;&gt;l2 -->
<g id="edge19" class="edge">
<title>xbar&#45;&gt;l2</title>
<path fill="none" stroke="#9467bd" d="M247.5,-262.67C249.01,-262.43 250.51,-262.21 252,-262 362.36,-246.78 645.6,-273.6 753,-244 754.3,-243.64 776.37,-231.52 797.29,-219.94"/>
<polygon fill="#9467bd" stroke="#9467bd" points="798.66,-222.38 804.3,-216.06 795.95,-217.48 798.66,-222.38"/>
<text text-anchor="middle" x="785.5" y="-236.8" font-family="sans-serif" font-size="9.00" fill="#9467bd">O store</text>
</g>
<!-- l2&#45;&gt;xbar -->
<g id="edge7" class="edge">
<title>l2&#45;&gt;xbar</title>
<path fill="none" stroke="#1f77b4" d="M829.8,-216.14C825.81,-226.11 819.22,-237.88 809,-244 757.69,-274.73 343.15,-255.1 255.54,-261.84"/>
<polygon fill="#1f77b4" stroke="#1f77b4" points="255.18,-259.06 247.5,-262.66 255.74,-264.64 255.18,-259.06"/>
<text text-anchor="middle" x="842.5" y="-236.8" font-family="sans-serif" font-size="9.00" fill="#1f77b4">Q/K/V load</text>
</g>
<!-- mempart -->
<g id="node12" class="node">
<title>mempart</title>
<path fill="#fff0e6" stroke="black" d="M886,-124C886,-124 792,-124 792,-124 786,-124 780,-118 780,-112 780,-112 780,-100 780,-100 780,-94 786,-88 792,-88 792,-88 886,-88 886,-88 892,-88 898,-94 898,-100 898,-100 898,-112 898,-112 898,-118 892,-124 886,-124"/>
<text text-anchor="middle" x="839" y="-109.2" font-family="sans-serif" font-size="11.00">Memory partitions</text>
<text text-anchor="middle" x="839" y="-97.2" font-family="sans-serif" font-size="11.00">+ HBM controllers</text>
</g>
<!-- l2&#45;&gt;mempart -->
<g id="edge3" class="edge">
<title>l2&#45;&gt;mempart</title>
<path fill="none" stroke="#333333" d="M870.74,-179.86C877.27,-175.03 883.22,-169.11 887,-162 891.18,-154.15 891.03,-149.92 887,-142 884.67,-137.41 881.42,-133.29 877.71,-129.61"/>
<polygon fill="#333333" stroke="#333333" points="879.41,-127.38 871.55,-124.21 875.72,-131.59 879.41,-127.38"/>
<text text-anchor="middle" x="912.5" y="-149.8" font-family="sans-serif" font-size="9.00">L2 misses</text>
</g>
<!-- l2&#45;&gt;mempart -->
<g id="edge20" class="edge">
<title>l2&#45;&gt;mempart</title>
<path fill="none" stroke="#9467bd" d="M810.93,-179.7C805.69,-174.64 800.87,-168.66 798,-162 794.48,-153.84 794.28,-150.07 798,-142 800.01,-137.64 802.86,-133.63 806.13,-129.99"/>
<polygon fill="#9467bd" stroke="#9467bd" points="808.23,-131.85 811.96,-124.24 804.29,-127.87 808.23,-131.85"/>
<text text-anchor="middle" x="814.5" y="-149.8" font-family="sans-serif" font-size="9.00" fill="#9467bd">O store</text>
</g>
<!-- mempart&#45;&gt;l2 -->
<g id="edge6" class="edge">
<title>mempart&#45;&gt;l2</title>
<path fill="none" stroke="#1f77b4" d="M837.3,-124.07C836.8,-129.77 836.3,-136.15 836,-142 835.5,-151.64 835.24,-162.24 835.11,-171.54"/>
<polygon fill="#1f77b4" stroke="#1f77b4" points="832.3,-171.62 835.02,-179.65 837.9,-171.68 832.3,-171.62"/>
<text text-anchor="middle" x="859.5" y="-149.8" font-family="sans-serif" font-size="9.00" fill="#1f77b4">Q/K/V load</text>
</g>
<!-- hbm -->
<g id="node13" class="node">
<title>hbm</title>
<path fill="#ffe6f2" stroke="black" d="M870,-36C870,-36 808,-36 808,-36 802,-36 796,-30 796,-24 796,-24 796,-12 796,-12 796,-6 802,0 808,0 808,0 870,0 870,0 876,0 882,-6 882,-12 882,-12 882,-24 882,-24 882,-30 876,-36 870,-36"/>
<text text-anchor="middle" x="839" y="-21.2" font-family="sans-serif" font-size="11.00">HBM banks /</text>
<text text-anchor="middle" x="839" y="-9.2" font-family="sans-serif" font-size="11.00">row buffers</text>
</g>
<!-- mempart&#45;&gt;hbm -->
<g id="edge4" class="edge">
<title>mempart&#45;&gt;hbm</title>
<path fill="none" stroke="#333333" d="M779.78,-90.02C767.23,-84.01 755.52,-75.64 748,-64 745.59,-60.27 745.48,-57.66 748,-54 757.22,-40.57 772.37,-32.3 787.68,-27.19"/>
<polygon fill="#333333" stroke="#333333" points="788.81,-29.78 795.68,-24.8 787.21,-24.41 788.81,-29.78"/>
<text text-anchor="middle" x="782.5" y="-56.8" font-family="sans-serif" font-size="9.00">DRAM requests</text>
</g>
<!-- mempart&#45;&gt;hbm -->
<g id="edge21" class="edge">
<title>mempart&#45;&gt;hbm</title>
<path fill="none" stroke="#9467bd" d="M837.1,-87.54C836.24,-77.69 835.52,-65.17 836,-54 836.14,-50.8 836.34,-47.44 836.59,-44.12"/>
<polygon fill="#9467bd" stroke="#9467bd" points="839.38,-44.27 837.24,-36.07 833.8,-43.82 839.38,-44.27"/>
<text text-anchor="middle" x="852.5" y="-56.8" font-family="sans-serif" font-size="9.00" fill="#9467bd">O store</text>
</g>
<!-- hbm&#45;&gt;mempart -->
<g id="edge5" class="edge">
<title>hbm&#45;&gt;mempart</title>
<path fill="none" stroke="#1f77b4" d="M863.13,-36.33C870.89,-44.13 876.65,-53.87 873,-64 870.75,-70.24 867.09,-76.2 862.99,-81.55"/>
<polygon fill="#1f77b4" stroke="#1f77b4" points="860.61,-80.04 857.63,-87.97 864.91,-83.62 860.61,-80.04"/>
<text text-anchor="middle" x="897.5" y="-56.8" font-family="sans-serif" font-size="9.00" fill="#1f77b4">Q/K/V load</text>
</g>
</g>
</svg>
