<svg xmlns="http://www.w3.org/2000/svg" width="600" height="420" viewBox="0 0 600 420" font-family="sans-serif" font-size="12">

<rect width="600" height="420" fill="white"/>
<line x1="70" y1="243.33333333333334" x2="560" y2="243.33333333333334" stroke="#333" stroke-width="1.5"/>
<line x1="70" y1="340.0" x2="560" y2="340.0" stroke="#eee"/>
<text x="62" y="344.0" text-anchor="end" font-size="10">-40</text>
<line x1="70" y1="303.75" x2="560" y2="303.75" stroke="#eee"/>
<text x="62" y="307.75" text-anchor="end" font-size="10">-25</text>
<line x1="70" y1="267.5" x2="560" y2="267.5" stroke="#eee"/>
<text x="62" y="271.5" text-anchor="end" font-size="10">-10</text>
<line x1="70" y1="231.25" x2="560" y2="231.25" stroke="#eee"/>
<text x="62" y="235.25" text-anchor="end" font-size="10">5</text>
<line x1="70" y1="195.0" x2="560" y2="195.0" stroke="#eee"/>
<text x="62" y="199.0" text-anchor="end" font-size="10">20</text>
<line x1="70" y1="158.75" x2="560" y2="158.75" stroke="#eee"/>
<text x="62" y="162.75" text-anchor="end" font-size="10">35</text>
<line x1="70" y1="122.5" x2="560" y2="122.5" stroke="#eee"/>
<text x="62" y="126.5" text-anchor="end" font-size="10">50</text>
<line x1="70" y1="86.25" x2="560" y2="86.25" stroke="#eee"/>
<text x="62" y="90.25" text-anchor="end" font-size="10">65</text>
<line x1="70" y1="50.0" x2="560" y2="50.0" stroke="#eee"/>
<text x="62" y="54.0" text-anchor="end" font-size="10">80</text>
<rect x="177.5" y="224.5031906125532" width="30" height="37.18894229398538" fill="#ddd" stroke="#333"/>
<line x1="177.5" y1="246.12265303094614" x2="207.5" y2="246.12265303094614" stroke="#333" stroke-width="2"/>
<circle cx="187.5" cy="221.44775137163344" r="2" fill="#1f77b4" opacity="0.5"/>
<circle cx="190.5" cy="204.994244310289" r="2" fill="#ff7f0e" opacity="0.5"/>
<circle cx="182.5" cy="309.2635954432727" r="2" fill="#2ca02c" opacity="0.5"/>
<circle cx="190.5" cy="239.51505828185782" r="2" fill="#2ca02c" opacity="0.5"/>
<circle cx="182.5" cy="235.9223225601052" r="2" fill="#2ca02c" opacity="0.5"/>
<circle cx="190.5" cy="220.75692271780406" r="2" fill="#2ca02c" opacity="0.5"/>
<circle cx="190.5" cy="228.8342787681854" r="2" fill="#2ca02c" opacity="0.5"/>
<circle cx="182.5" cy="180.70907384545842" r="2" fill="#2ca02c" opacity="0.5"/>
<circle cx="182.5" cy="254.72770507302045" r="2" fill="#2ca02c" opacity="0.5"/>
<circle cx="194.5" cy="253.48381244137803" r="2" fill="#1f77b4" opacity="0.5"/>
<circle cx="191.5" cy="245.98062683423515" r="2" fill="#1f77b4" opacity="0.5"/>
<circle cx="191.5" cy="276.2217752493937" r="2" fill="#1f77b4" opacity="0.5"/>
<circle cx="194.5" cy="278.90991826613595" r="2" fill="#1f77b4" opacity="0.5"/>
<circle cx="198.5" cy="260.8523605307171" r="2" fill="#1f77b4" opacity="0.5"/>
<circle cx="194.5" cy="261.1095892533374" r="2" fill="#ff7f0e" opacity="0.5"/>
<circle cx="198.5" cy="264.47985307809074" r="2" fill="#ff7f0e" opacity="0.5"/>
<circle cx="191.5" cy="232.2741119890831" r="2" fill="#ff7f0e" opacity="0.5"/>
<circle cx="194.5" cy="264.44962745443286" r="2" fill="#ff7f0e" opacity="0.5"/>
<circle cx="198.5" cy="260.422303247914" r="2" fill="#ff7f0e" opacity="0.5"/>
<circle cx="191.5" cy="263.903575604137" r="2" fill="#2ca02c" opacity="0.5"/>
<circle cx="198.5" cy="297.66020204959136" r="2" fill="#2ca02c" opacity="0.5"/>
<circle cx="191.5" cy="254.21958609564302" r="2" fill="#2ca02c" opacity="0.5"/>
<circle cx="194.5" cy="289.0021691901537" r="2" fill="#2ca02c" opacity="0.5"/>
<circle cx="191.5" cy="240.38009520567041" r="2" fill="#2ca02c" opacity="0.5"/>
<circle cx="198.5" cy="269.8700730072967" r="2" fill="#2ca02c" opacity="0.5"/>
<circle cx="198.5" cy="232.41066006289066" r="2" fill="#2ca02c" opacity="0.5"/>
<circle cx="200.5" cy="238.00321166918377" r="2" fill="#1f77b4" opacity="0.5"/>
<circle cx="188.5" cy="263.2693840922709" r="2" fill="#1f77b4" opacity="0.5"/>
<circle cx="188.5" cy="260.1362438437922" r="2" fill="#ff7f0e" opacity="0.5"/>
<circle cx="188.5" cy="263.21510289215036" r="2" fill="#ff7f0e" opacity="0.5"/>
<circle cx="200.5" cy="270.96187538460913" r="2" fill="#ff7f0e" opacity="0.5"/>
<circle cx="188.5" cy="259.73366819979873" r="2" fill="#2ca02c" opacity="0.5"/>
<circle cx="200.5" cy="252.58485006694463" r="2" fill="#2ca02c" opacity="0.5"/>
<circle cx="200.5" cy="215.44491665859258" r="2" fill="#2ca02c" opacity="0.5"/>
<circle cx="190.5" cy="219.70024369814809" r="2" fill="#2ca02c" opacity="0.5"/>
<circle cx="190.5" cy="222.65893917529775" r="2" fill="#2ca02c" opacity="0.5"/>
<circle cx="200.5" cy="246.91351829431443" r="2" fill="#2ca02c" opacity="0.5"/>
<circle cx="190.5" cy="262.1515593819395" r="2" fill="#2ca02c" opacity="0.5"/>
<circle cx="193.5" cy="231.89997445001475" r="2" fill="#1f77b4" opacity="0.5"/>
<circle cx="193.5" cy="250.35616583082893" r="2" fill="#1f77b4" opacity="0.5"/>
<circle cx="193.5" cy="262.10321145146145" r="2" fill="#ff7f0e" opacity="0.5"/>
<circle cx="192.5" cy="286.1720196757008" r="2" fill="#ff7f0e" opacity="0.5"/>
<circle cx="192.5" cy="235.01045016847155" r="2" fill="#ff7f0e" opacity="0.5"/>
<circle cx="196.5" cy="260.3413820615684" r="2" fill="#ff7f0e" opacity="0.5"/>
<circle cx="193.5" cy="204.58034746067915" r="2" fill="#2ca02c" opacity="0.5"/>
<circle cx="192.5" cy="207.35801036500672" r="2" fill="#2ca02c" opacity="0.5"/>
<circle cx="192.5" cy="247.19796647511973" r="2" fill="#2ca02c" opacity="0.5"/>
<circle cx="193.5" cy="285.35156872381833" r="2" fill="#2ca02c" opacity="0.5"/>
<circle cx="193.5" cy="230.8322998399427" r="2" fill="#2ca02c" opacity="0.5"/>
<circle cx="196.5" cy="203.43050573351067" r="2" fill="#2ca02c" opacity="0.5"/>
<circle cx="196.5" cy="230.8120895156157" r="2" fill="#2ca02c" opacity="0.5"/>
<circle cx="195.5" cy="217.25703502837848" r="2" fill="#1f77b4" opacity="0.5"/>
<circle cx="189.5" cy="261.59979564131504" r="2" fill="#1f77b4" opacity="0.5"/>
<circle cx="189.5" cy="224.37704742165667" r="2" fill="#1f77b4" opacity="0.5"/>
<circle cx="189.5" cy="234.0290611665368" r="2" fill="#ff7f0e" opacity="0.5"/>
<circle cx="195.5" cy="219.51370336467244" r="2" fill="#ff7f0e" opacity="0.5"/>
<circle cx="189.5" cy="220.54341580260004" r="2" fill="#ff7f0e" opacity="0.5"/>
<circle cx="195.5" cy="220.01360227730416" r="2" fill="#ff7f0e" opacity="0.5"/>
<circle cx="189.5" cy="216.15672850188992" r="2" fill="#2ca02c" opacity="0.5"/>
<circle cx="195.5" cy="203.36018849078457" r="2" fill="#2ca02c" opacity="0.5"/>
<circle cx="189.5" cy="200.7568647808787" r="2" fill="#2ca02c" opacity="0.5"/>
<circle cx="189.5" cy="217.39184483509248" r="2" fill="#2ca02c" opacity="0.5"/>
<circle cx="189.5" cy="238.44882054381299" r="2" fill="#2ca02c" opacity="0.5"/>
<circle cx="195.5" cy="228.0712989398762" r="2" fill="#2ca02c" opacity="0.5"/>
<circle cx="184.5" cy="227.551391979519" r="2" fill="#2ca02c" opacity="0.5"/>
<circle cx="182.5" cy="210.27349950689293" r="2" fill="#1f77b4" opacity="0.5"/>
<circle cx="187.5" cy="293.18194214185917" r="2" fill="#1f77b4" opacity="0.5"/>
<circle cx="182.5" cy="234.24324865879188" r="2" fill="#1f77b4" opacity="0.5"/>
<circle cx="182.5" cy="200.87368496661657" r="2" fill="#1f77b4" opacity="0.5"/>
<circle cx="182.5" cy="290.7738666340704" r="2" fill="#1f77b4" opacity="0.5"/>
<circle cx="190.5" cy="200.44521131990777" r="2" fill="#1f77b4" opacity="0.5"/>
<circle cx="187.5" cy="254.57064192669756" r="2" fill="#1f77b4" opacity="0.5"/>
<circle cx="182.5" cy="216.88519933835144" r="2" fill="#1f77b4" opacity="0.5"/>
<circle cx="190.5" cy="198.22380484049947" r="2" fill="#1f77b4" opacity="0.5"/>
<circle cx="187.5" cy="224.62020969425646" r="2" fill="#1f77b4" opacity="0.5"/>
<circle cx="187.5" cy="203.44183308526834" r="2" fill="#1f77b4" opacity="0.5"/>
<circle cx="187.5" cy="228.9315699452916" r="2" fill="#1f77b4" opacity="0.5"/>
<circle cx="190.5" cy="206.17571537839785" r="2" fill="#ff7f0e" opacity="0.5"/>
<circle cx="182.5" cy="235.57223456628387" r="2" fill="#ff7f0e" opacity="0.5"/>
<circle cx="190.5" cy="206.01260108369667" r="2" fill="#ff7f0e" opacity="0.5"/>
<circle cx="187.5" cy="262.95760125576163" r="2" fill="#ff7f0e" opacity="0.5"/>
<circle cx="182.5" cy="210.5119438338971" r="2" fill="#ff7f0e" opacity="0.5"/>
<circle cx="182.5" cy="219.49963484003754" r="2" fill="#ff7f0e" opacity="0.5"/>
<circle cx="182.5" cy="199.85377990921606" r="2" fill="#ff7f0e" opacity="0.5"/>
<circle cx="187.5" cy="223.46249952083474" r="2" fill="#ff7f0e" opacity="0.5"/>
<circle cx="190.5" cy="232.54416634997037" r="2" fill="#ff7f0e" opacity="0.5"/>
<circle cx="182.5" cy="290.3771946213235" r="2" fill="#ff7f0e" opacity="0.5"/>
<circle cx="190.5" cy="226.57602018730435" r="2" fill="#ff7f0e" opacity="0.5"/>
<circle cx="187.5" cy="230.2859053567808" r="2" fill="#ff7f0e" opacity="0.5"/>
<circle cx="190.5" cy="222.34300527468784" r="2" fill="#2ca02c" opacity="0.5"/>
<circle cx="187.5" cy="237.198958831426" r="2" fill="#2ca02c" opacity="0.5"/>
<circle cx="187.5" cy="254.56995914323412" r="2" fill="#2ca02c" opacity="0.5"/>
<circle cx="187.5" cy="227.40094770614252" r="2" fill="#2ca02c" opacity="0.5"/>
<circle cx="187.5" cy="264.03643737493877" r="2" fill="#2ca02c" opacity="0.5"/>
<circle cx="182.5" cy="298.0933989491179" r="2" fill="#2ca02c" opacity="0.5"/>
<circle cx="190.5" cy="244.01683761532496" r="2" fill="#2ca02c" opacity="0.5"/>
<circle cx="190.5" cy="288.54542025106656" r="2" fill="#2ca02c" opacity="0.5"/>
<circle cx="187.5" cy="264.55102939942606" r="2" fill="#2ca02c" opacity="0.5"/>
<circle cx="187.5" cy="255.95944571529347" r="2" fill="#2ca02c" opacity="0.5"/>
<circle cx="182.5" cy="200.11012516678028" r="2" fill="#2ca02c" opacity="0.5"/>
<circle cx="187.5" cy="252.53917968631558" r="2" fill="#2ca02c" opacity="0.5"/>
<circle cx="182.5" cy="273.3670765387127" r="2" fill="#2ca02c" opacity="0.5"/>
<circle cx="190.5" cy="250.78018213636858" r="2" fill="#2ca02c" opacity="0.5"/>
<circle cx="182.5" cy="235.86019357841838" r="2" fill="#2ca02c" opacity="0.5"/>
<circle cx="187.5" cy="220.72034316053933" r="2" fill="#2ca02c" opacity="0.5"/>
<circle cx="190.5" cy="254.80738932124947" r="2" fill="#2ca02c" opacity="0.5"/>
<circle cx="187.5" cy="231.43543240479394" r="2" fill="#2ca02c" opacity="0.5"/>
<circle cx="182.5" cy="221.68980133265313" r="2" fill="#2ca02c" opacity="0.5"/>
<circle cx="190.5" cy="219.3305436413231" r="2" fill="#2ca02c" opacity="0.5"/>
<circle cx="190.5" cy="202.4032336898212" r="2" fill="#2ca02c" opacity="0.5"/>
<circle cx="182.5" cy="219.18592383036196" r="2" fill="#2ca02c" opacity="0.5"/>
<circle cx="191.5" cy="249.7443919234642" r="2" fill="#1f77b4" opacity="0.5"/>
<circle cx="198.5" cy="296.8619658704737" r="2" fill="#1f77b4" opacity="0.5"/>
<circle cx="198.5" cy="263.8599018308497" r="2" fill="#1f77b4" opacity="0.5"/>
<circle cx="198.5" cy="265.06817186415464" r="2" fill="#1f77b4" opacity="0.5"/>
<circle cx="191.5" cy="264.88103581385894" r="2" fill="#1f77b4" opacity="0.5"/>
<circle cx="191.5" cy="236.4829565505047" r="2" fill="#1f77b4" opacity="0.5"/>
<circle cx="191.5" cy="258.70896650435327" r="2" fill="#1f77b4" opacity="0.5"/>
<circle cx="194.5" cy="264.37007099629676" r="2" fill="#1f77b4" opacity="0.5"/>
<circle cx="194.5" cy="291.01606827588216" r="2" fill="#1f77b4" opacity="0.5"/>
<circle cx="194.5" cy="259.3543826115046" r="2" fill="#1f77b4" opacity="0.5"/>
<circle cx="198.5" cy="291.44377285204007" r="2" fill="#1f77b4" opacity="0.5"/>
<circle cx="198.5" cy="262.4955482162351" r="2" fill="#ff7f0e" opacity="0.5"/>
<circle cx="191.5" cy="249.00879459978722" r="2" fill="#ff7f0e" opacity="0.5"/>
<circle cx="194.5" cy="275.508964291134" r="2" fill="#ff7f0e" opacity="0.5"/>
<circle cx="194.5" cy="262.8231244382056" r="2" fill="#ff7f0e" opacity="0.5"/>
<circle cx="194.5" cy="291.6994914922211" r="2" fill="#ff7f0e" opacity="0.5"/>
<circle cx="194.5" cy="253.22527760246786" r="2" fill="#ff7f0e" opacity="0.5"/>
<circle cx="191.5" cy="276.4583082801684" r="2" fill="#ff7f0e" opacity="0.5"/>
<circle cx="198.5" cy="291.48644953191206" r="2" fill="#ff7f0e" opacity="0.5"/>
<circle cx="191.5" cy="265.93365207838247" r="2" fill="#ff7f0e" opacity="0.5"/>
<circle cx="191.5" cy="252.0646707363589" r="2" fill="#ff7f0e" opacity="0.5"/>
<circle cx="191.5" cy="243.63914018561218" r="2" fill="#ff7f0e" opacity="0.5"/>
<circle cx="194.5" cy="265.19139848990073" r="2" fill="#2ca02c" opacity="0.5"/>
<circle cx="198.5" cy="300.8605554613116" r="2" fill="#2ca02c" opacity="0.5"/>
<circle cx="194.5" cy="219.1008384699977" r="2" fill="#2ca02c" opacity="0.5"/>
<circle cx="191.5" cy="250.1633603224974" r="2" fill="#2ca02c" opacity="0.5"/>
<circle cx="198.5" cy="220.39436159575527" r="2" fill="#2ca02c" opacity="0.5"/>
<circle cx="194.5" cy="233.56815726653144" r="2" fill="#2ca02c" opacity="0.5"/>
<circle cx="191.5" cy="270.4006899670239" r="2" fill="#2ca02c" opacity="0.5"/>
<circle cx="198.5" cy="281.0788770174273" r="2" fill="#2ca02c" opacity="0.5"/>
<circle cx="198.5" cy="226.69154651336652" r="2" fill="#2ca02c" opacity="0.5"/>
<circle cx="194.5" cy="247.3333964830459" r="2" fill="#2ca02c" opacity="0.5"/>
<circle cx="191.5" cy="251.34237019826858" r="2" fill="#2ca02c" opacity="0.5"/>
<circle cx="198.5" cy="289.28619960044375" r="2" fill="#2ca02c" opacity="0.5"/>
<circle cx="191.5" cy="244.2640211390694" r="2" fill="#2ca02c" opacity="0.5"/>
<circle cx="194.5" cy="224.5031906125532" r="2" fill="#2ca02c" opacity="0.5"/>
<circle cx="194.5" cy="226.10115276920598" r="2" fill="#2ca02c" opacity="0.5"/>
<circle cx="198.5" cy="224.77344864141187" r="2" fill="#2ca02c" opacity="0.5"/>
<circle cx="194.5" cy="297.1390395585754" r="2" fill="#2ca02c" opacity="0.5"/>
<circle cx="191.5" cy="244.6750096828143" r="2" fill="#2ca02c" opacity="0.5"/>
<circle cx="194.5" cy="271.58138118088243" r="2" fill="#2ca02c" opacity="0.5"/>
<circle cx="198.5" cy="292.83085854850617" r="2" fill="#2ca02c" opacity="0.5"/>
<circle cx="194.5" cy="275.9313049915115" r="2" fill="#2ca02c" opacity="0.5"/>
<circle cx="198.5" cy="214.91802114548312" r="2" fill="#2ca02c" opacity="0.5"/>
<circle cx="190.5" cy="260.10316526087473" r="2" fill="#1f77b4" opacity="0.5"/>
<circle cx="200.5" cy="281.9998233541826" r="2" fill="#1f77b4" opacity="0.5"/>
<circle cx="188.5" cy="258.9525460811351" r="2" fill="#1f77b4" opacity="0.5"/>
<circle cx="190.5" cy="261.820777088908" r="2" fill="#1f77b4" opacity="0.5"/>
<circle cx="200.5" cy="271.2104697461118" r="2" fill="#1f77b4" opacity="0.5"/>
<circle cx="200.5" cy="249.46220060128397" r="2" fill="#1f77b4" opacity="0.5"/>
<circle cx="190.5" cy="262.81632869858254" r="2" fill="#1f77b4" opacity="0.5"/>
<circle cx="188.5" cy="258.2691719136825" r="2" fill="#1f77b4" opacity="0.5"/>
<circle cx="190.5" cy="259.2228817361589" r="2" fill="#1f77b4" opacity="0.5"/>
<circle cx="190.5" cy="258.78904296570863" r="2" fill="#1f77b4" opacity="0.5"/>
<circle cx="200.5" cy="259.4992951716989" r="2" fill="#1f77b4" opacity="0.5"/>
<circle cx="188.5" cy="264.2103129863792" r="2" fill="#1f77b4" opacity="0.5"/>
<circle cx="188.5" cy="259.1238259428662" r="2" fill="#ff7f0e" opacity="0.5"/>
<circle cx="190.5" cy="259.5282472611658" r="2" fill="#ff7f0e" opacity="0.5"/>
<circle cx="188.5" cy="263.16678439750183" r="2" fill="#ff7f0e" opacity="0.5"/>
<circle cx="200.5" cy="238.39427985157965" r="2" fill="#ff7f0e" opacity="0.5"/>
<circle cx="200.5" cy="262.16779996601224" r="2" fill="#ff7f0e" opacity="0.5"/>
<circle cx="190.5" cy="263.44466083279167" r="2" fill="#ff7f0e" opacity="0.5"/>
<circle cx="188.5" cy="262.11939796736453" r="2" fill="#ff7f0e" opacity="0.5"/>
<circle cx="190.5" cy="260.20235643796264" r="2" fill="#ff7f0e" opacity="0.5"/>
<circle cx="190.5" cy="260.0210842093886" r="2" fill="#ff7f0e" opacity="0.5"/>
<circle cx="200.5" cy="282.49152845892434" r="2" fill="#ff7f0e" opacity="0.5"/>
<circle cx="190.5" cy="261.6633601601733" r="2" fill="#ff7f0e" opacity="0.5"/>
<circle cx="200.5" cy="259.3833854217573" r="2" fill="#ff7f0e" opacity="0.5"/>
<circle cx="190.5" cy="207.38669968232975" r="2" fill="#2ca02c" opacity="0.5"/>
<circle cx="200.5" cy="246.12265303094614" r="2" fill="#2ca02c" opacity="0.5"/>
<circle cx="188.5" cy="209.6526823895067" r="2" fill="#2ca02c" opacity="0.5"/>
<circle cx="188.5" cy="257.3168218274693" r="2" fill="#2ca02c" opacity="0.5"/>
<circle cx="200.5" cy="251.02497959186744" r="2" fill="#2ca02c" opacity="0.5"/>
<circle cx="188.5" cy="207.47878782108862" r="2" fill="#2ca02c" opacity="0.5"/>
<circle cx="200.5" cy="256.53565341843967" r="2" fill="#2ca02c" opacity="0.5"/>
<circle cx="200.5" cy="222.99604916356645" r="2" fill="#2ca02c" opacity="0.5"/>
<circle cx="188.5" cy="285.29909822916795" r="2" fill="#2ca02c" opacity="0.5"/>
<circle cx="188.5" cy="274.3860784510655" r="2" fill="#2ca02c" opacity="0.5"/>
<circle cx="200.5" cy="262.95011523768983" r="2" fill="#2ca02c" opacity="0.5"/>
<circle cx="188.5" cy="261.45113514706395" r="2" fill="#2ca02c" opacity="0.5"/>
<circle cx="190.5" cy="255.28019496565017" r="2" fill="#2ca02c" opacity="0.5"/>
<circle cx="190.5" cy="215.3022827631503" r="2" fill="#2ca02c" opacity="0.5"/>
<circle cx="200.5" cy="260.1553894724584" r="2" fill="#2ca02c" opacity="0.5"/>
<circle cx="190.5" cy="257.42659829610807" r="2" fill="#2ca02c" opacity="0.5"/>
<circle cx="188.5" cy="206.07846257887786" r="2" fill="#2ca02c" opacity="0.5"/>
<circle cx="200.5" cy="241.73199701472757" r="2" fill="#2ca02c" opacity="0.5"/>
<circle cx="188.5" cy="258.5314677131337" r="2" fill="#2ca02c" opacity="0.5"/>
<circle cx="188.5" cy="256.11419728549777" r="2" fill="#2ca02c" opacity="0.5"/>
<circle cx="188.5" cy="234.45595013471532" r="2" fill="#2ca02c" opacity="0.5"/>
<circle cx="188.5" cy="219.82446606399907" r="2" fill="#2ca02c" opacity="0.5"/>
<circle cx="196.5" cy="260.14250125547187" r="2" fill="#1f77b4" opacity="0.5"/>
<circle cx="192.5" cy="261.5424895402979" r="2" fill="#1f77b4" opacity="0.5"/>
<circle cx="196.5" cy="235.30738761031895" r="2" fill="#1f77b4" opacity="0.5"/>
<circle cx="192.5" cy="285.6146416277398" r="2" fill="#1f77b4" opacity="0.5"/>
<circle cx="192.5" cy="233.11566385253175" r="2" fill="#1f77b4" opacity="0.5"/>
<circle cx="192.5" cy="260.7248983100859" r="2" fill="#1f77b4" opacity="0.5"/>
<circle cx="196.5" cy="262.1586123813621" r="2" fill="#1f77b4" opacity="0.5"/>
<circle cx="193.5" cy="262.0477829680949" r="2" fill="#1f77b4" opacity="0.5"/>
<circle cx="193.5" cy="235.4964409645119" r="2" fill="#1f77b4" opacity="0.5"/>
<circle cx="192.5" cy="234.395928100562" r="2" fill="#1f77b4" opacity="0.5"/>
<circle cx="196.5" cy="236.82681245829346" r="2" fill="#1f77b4" opacity="0.5"/>
<circle cx="196.5" cy="242.15750818638753" r="2" fill="#1f77b4" opacity="0.5"/>
<circle cx="192.5" cy="236.62703205940065" r="2" fill="#1f77b4" opacity="0.5"/>
<circle cx="193.5" cy="232.35159948049332" r="2" fill="#ff7f0e" opacity="0.5"/>
<circle cx="192.5" cy="233.16047596498822" r="2" fill="#ff7f0e" opacity="0.5"/>
<circle cx="196.5" cy="261.9781507717802" r="2" fill="#ff7f0e" opacity="0.5"/>
<circle cx="193.5" cy="236.53022534333866" r="2" fill="#ff7f0e" opacity="0.5"/>
<circle cx="196.5" cy="243.87913948824345" r="2" fill="#ff7f0e" opacity="0.5"/>
<circle cx="192.5" cy="237.53719849849787" r="2" fill="#ff7f0e" opacity="0.5"/>
<circle cx="193.5" cy="234.5713344859627" r="2" fill="#ff7f0e" opacity="0.5"/>
<circle cx="192.5" cy="261.58381072826614" r="2" fill="#ff7f0e" opacity="0.5"/>
<circle cx="193.5" cy="262.0464482417908" r="2" fill="#ff7f0e" opacity="0.5"/>
<circle cx="192.5" cy="262.312191061392" r="2" fill="#ff7f0e" opacity="0.5"/>
<circle cx="196.5" cy="262.4969282073236" r="2" fill="#ff7f0e" opacity="0.5"/>
<circle cx="196.5" cy="234.45016522258217" r="2" fill="#ff7f0e" opacity="0.5"/>
<circle cx="193.5" cy="262.4201853661296" r="2" fill="#ff7f0e" opacity="0.5"/>
<circle cx="196.5" cy="266.55958469999416" r="2" fill="#2ca02c" opacity="0.5"/>
<circle cx="192.5" cy="234.1904218625198" r="2" fill="#2ca02c" opacity="0.5"/>
<circle cx="196.5" cy="233.53144767543697" r="2" fill="#2ca02c" opacity="0.5"/>
<circle cx="193.5" cy="229.60591413821447" r="2" fill="#2ca02c" opacity="0.5"/>
<circle cx="192.5" cy="240.2127323780868" r="2" fill="#2ca02c" opacity="0.5"/>
<circle cx="193.5" cy="254.94186778477308" r="2" fill="#2ca02c" opacity="0.5"/>
<circle cx="193.5" cy="225.49369697012168" r="2" fill="#2ca02c" opacity="0.5"/>
<circle cx="193.5" cy="231.67084433006718" r="2" fill="#2ca02c" opacity="0.5"/>
<circle cx="192.5" cy="243.63732031250322" r="2" fill="#2ca02c" opacity="0.5"/>
<circle cx="192.5" cy="213.35057296761548" r="2" fill="#2ca02c" opacity="0.5"/>
<circle cx="196.5" cy="257.2794211924423" r="2" fill="#2ca02c" opacity="0.5"/>
<circle cx="196.5" cy="253.21153225421315" r="2" fill="#2ca02c" opacity="0.5"/>
<circle cx="192.5" cy="204.47184865937595" r="2" fill="#2ca02c" opacity="0.5"/>
<circle cx="192.5" cy="229.27149834599254" r="2" fill="#2ca02c" opacity="0.5"/>
<circle cx="196.5" cy="231.5537024900637" r="2" fill="#2ca02c" opacity="0.5"/>
<circle cx="193.5" cy="202.70856914130735" r="2" fill="#2ca02c" opacity="0.5"/>
<circle cx="193.5" cy="249.1036649346079" r="2" fill="#2ca02c" opacity="0.5"/>
<circle cx="192.5" cy="237.53719849849787" r="2" fill="#2ca02c" opacity="0.5"/>
<circle cx="193.5" cy="237.23602912648474" r="2" fill="#2ca02c" opacity="0.5"/>
<circle cx="196.5" cy="220.68873803884676" r="2" fill="#2ca02c" opacity="0.5"/>
<circle cx="192.5" cy="236.62703205940065" r="2" fill="#2ca02c" opacity="0.5"/>
<circle cx="192.5" cy="231.58288558844208" r="2" fill="#2ca02c" opacity="0.5"/>
<circle cx="195.5" cy="261.0592886453769" r="2" fill="#1f77b4" opacity="0.5"/>
<circle cx="184.5" cy="226.48692069223745" r="2" fill="#1f77b4" opacity="0.5"/>
<circle cx="184.5" cy="220.92861885981782" r="2" fill="#1f77b4" opacity="0.5"/>
<circle cx="189.5" cy="259.5175348817877" r="2" fill="#1f77b4" opacity="0.5"/>
<circle cx="189.5" cy="223.44310053723567" r="2" fill="#1f77b4" opacity="0.5"/>
<circle cx="184.5" cy="259.3808078687215" r="2" fill="#1f77b4" opacity="0.5"/>
<circle cx="184.5" cy="259.39918356847204" r="2" fill="#1f77b4" opacity="0.5"/>
<circle cx="195.5" cy="261.2390981996931" r="2" fill="#1f77b4" opacity="0.5"/>
<circle cx="184.5" cy="261.1614961314242" r="2" fill="#1f77b4" opacity="0.5"/>
<circle cx="184.5" cy="223.9867020541576" r="2" fill="#1f77b4" opacity="0.5"/>
<circle cx="189.5" cy="261.3591660939254" r="2" fill="#1f77b4" opacity="0.5"/>
<circle cx="195.5" cy="261.8139562421902" r="2" fill="#1f77b4" opacity="0.5"/>
<circle cx="184.5" cy="218.5794297134314" r="2" fill="#ff7f0e" opacity="0.5"/>
<circle cx="189.5" cy="261.33709550315234" r="2" fill="#ff7f0e" opacity="0.5"/>
<circle cx="189.5" cy="259.59171765300187" r="2" fill="#ff7f0e" opacity="0.5"/>
<circle cx="189.5" cy="228.87091291891826" r="2" fill="#ff7f0e" opacity="0.5"/>
<circle cx="184.5" cy="259.62969613144173" r="2" fill="#ff7f0e" opacity="0.5"/>
<circle cx="195.5" cy="216.88733683748205" r="2" fill="#ff7f0e" opacity="0.5"/>
<circle cx="189.5" cy="261.6921329065386" r="2" fill="#ff7f0e" opacity="0.5"/>
<circle cx="184.5" cy="259.43643820239646" r="2" fill="#ff7f0e" opacity="0.5"/>
<circle cx="184.5" cy="261.3675236817145" r="2" fill="#ff7f0e" opacity="0.5"/>
<circle cx="195.5" cy="261.1975566988689" r="2" fill="#ff7f0e" opacity="0.5"/>
<circle cx="184.5" cy="211.51786319479288" r="2" fill="#2ca02c" opacity="0.5"/>
<circle cx="184.5" cy="218.35821828336807" r="2" fill="#2ca02c" opacity="0.5"/>
<circle cx="184.5" cy="242.53468165011836" r="2" fill="#2ca02c" opacity="0.5"/>
<circle cx="184.5" cy="220.9673286973741" r="2" fill="#2ca02c" opacity="0.5"/>
<circle cx="184.5" cy="197.8408407124328" r="2" fill="#2ca02c" opacity="0.5"/>
<circle cx="189.5" cy="201.3288689358231" r="2" fill="#2ca02c" opacity="0.5"/>
<circle cx="184.5" cy="219.21116719800037" r="2" fill="#2ca02c" opacity="0.5"/>
<circle cx="184.5" cy="200.75878941838602" r="2" fill="#2ca02c" opacity="0.5"/>
<circle cx="184.5" cy="215.69460913288975" r="2" fill="#2ca02c" opacity="0.5"/>
<circle cx="184.5" cy="226.66865094583474" r="2" fill="#2ca02c" opacity="0.5"/>
<circle cx="195.5" cy="210.37366090408952" r="2" fill="#2ca02c" opacity="0.5"/>
<circle cx="195.5" cy="229.4853600637476" r="2" fill="#2ca02c" opacity="0.5"/>
<circle cx="195.5" cy="238.41029234157264" r="2" fill="#2ca02c" opacity="0.5"/>
<circle cx="195.5" cy="278.243412259294" r="2" fill="#2ca02c" opacity="0.5"/>
<circle cx="189.5" cy="217.02223510267032" r="2" fill="#2ca02c" opacity="0.5"/>
<circle cx="195.5" cy="216.860530580019" r="2" fill="#2ca02c" opacity="0.5"/>
<circle cx="195.5" cy="213.8251134219623" r="2" fill="#2ca02c" opacity="0.5"/>
<circle cx="189.5" cy="220.65692834449703" r="2" fill="#2ca02c" opacity="0.5"/>
<circle cx="189.5" cy="218.68059853150487" r="2" fill="#2ca02c" opacity="0.5"/>
<circle cx="189.5" cy="278.4659938803682" r="2" fill="#2ca02c" opacity="0.5"/>
<circle cx="195.5" cy="218.50183999339845" r="2" fill="#2ca02c" opacity="0.5"/>
<circle cx="189.5" cy="214.52418761148562" r="2" fill="#2ca02c" opacity="0.5"/>
<text x="192.5" y="358" text-anchor="middle" font-size="11">mufu</text>
<text x="192.5" y="374" text-anchor="middle" font-size="9" fill="#666">n=293</text>
<rect x="422.5" y="205.43824474295445" width="30" height="54.63965253432019" fill="#ddd" stroke="#333"/>
<line x1="422.5" y1="241.4343839639955" x2="452.5" y2="241.4343839639955" stroke="#333" stroke-width="2"/>
<circle cx="435.5" cy="229.85766046395003" r="2" fill="#1f77b4" opacity="0.5"/>
<circle cx="427.5" cy="62.25704300530741" r="2" fill="#1f77b4" opacity="0.5"/>
<circle cx="435.5" cy="174.08256288738687" r="2" fill="#1f77b4" opacity="0.5"/>
<circle cx="435.5" cy="153.28957487398415" r="2" fill="#1f77b4" opacity="0.5"/>
<circle cx="432.5" cy="205.03881565798437" r="2" fill="#1f77b4" opacity="0.5"/>
<circle cx="432.5" cy="227.15827130330183" r="2" fill="#1f77b4" opacity="0.5"/>
<circle cx="435.5" cy="155.33868454771982" r="2" fill="#ff7f0e" opacity="0.5"/>
<circle cx="427.5" cy="104.71474754240165" r="2" fill="#ff7f0e" opacity="0.5"/>
<circle cx="435.5" cy="99.34929319099624" r="2" fill="#ff7f0e" opacity="0.5"/>
<circle cx="432.5" cy="179.73308755708655" r="2" fill="#ff7f0e" opacity="0.5"/>
<circle cx="427.5" cy="68.50449233267138" r="2" fill="#ff7f0e" opacity="0.5"/>
<circle cx="427.5" cy="158.16527873519266" r="2" fill="#ff7f0e" opacity="0.5"/>
<circle cx="443.5" cy="255.56933136406278" r="2" fill="#1f77b4" opacity="0.5"/>
<circle cx="439.5" cy="179.27472361551634" r="2" fill="#1f77b4" opacity="0.5"/>
<circle cx="436.5" cy="175.0361747343348" r="2" fill="#ff7f0e" opacity="0.5"/>
<circle cx="439.5" cy="175.6714956073789" r="2" fill="#ff7f0e" opacity="0.5"/>
<circle cx="433.5" cy="253.61178514177345" r="2" fill="#1f77b4" opacity="0.5"/>
<circle cx="433.5" cy="249.43912222031506" r="2" fill="#1f77b4" opacity="0.5"/>
<circle cx="433.5" cy="243.2269793608624" r="2" fill="#1f77b4" opacity="0.5"/>
<circle cx="445.5" cy="238.88603250781333" r="2" fill="#1f77b4" opacity="0.5"/>
<circle cx="445.5" cy="270.43627652062037" r="2" fill="#1f77b4" opacity="0.5"/>
<circle cx="433.5" cy="278.863612121545" r="2" fill="#ff7f0e" opacity="0.5"/>
<circle cx="435.5" cy="249.10676327531513" r="2" fill="#ff7f0e" opacity="0.5"/>
<circle cx="433.5" cy="246.2836478827476" r="2" fill="#ff7f0e" opacity="0.5"/>
<circle cx="445.5" cy="239.59832169207556" r="2" fill="#ff7f0e" opacity="0.5"/>
<circle cx="441.5" cy="277.29001795678124" r="2" fill="#1f77b4" opacity="0.5"/>
<circle cx="438.5" cy="249.18337955677256" r="2" fill="#1f77b4" opacity="0.5"/>
<circle cx="437.5" cy="242.02676603118502" r="2" fill="#1f77b4" opacity="0.5"/>
<circle cx="438.5" cy="215.19755940665453" r="2" fill="#1f77b4" opacity="0.5"/>
<circle cx="438.5" cy="211.1277803628824" r="2" fill="#1f77b4" opacity="0.5"/>
<circle cx="441.5" cy="283.0292188114654" r="2" fill="#ff7f0e" opacity="0.5"/>
<circle cx="441.5" cy="223.06052740793274" r="2" fill="#ff7f0e" opacity="0.5"/>
<circle cx="437.5" cy="213.1969730984409" r="2" fill="#ff7f0e" opacity="0.5"/>
<circle cx="440.5" cy="247.93777539668454" r="2" fill="#1f77b4" opacity="0.5"/>
<circle cx="440.5" cy="268.54339189322513" r="2" fill="#1f77b4" opacity="0.5"/>
<circle cx="440.5" cy="196.52314959066945" r="2" fill="#1f77b4" opacity="0.5"/>
<circle cx="429.5" cy="232.24264976993368" r="2" fill="#1f77b4" opacity="0.5"/>
<circle cx="429.5" cy="276.7178894659544" r="2" fill="#ff7f0e" opacity="0.5"/>
<circle cx="434.5" cy="227.15252475936975" r="2" fill="#ff7f0e" opacity="0.5"/>
<circle cx="440.5" cy="202.42009952916825" r="2" fill="#ff7f0e" opacity="0.5"/>
<circle cx="432.5" cy="237.4163998950909" r="2" fill="#1f77b4" opacity="0.5"/>
<circle cx="432.5" cy="186.93272126221916" r="2" fill="#1f77b4" opacity="0.5"/>
<circle cx="427.5" cy="105.4318881436558" r="2" fill="#1f77b4" opacity="0.5"/>
<circle cx="427.5" cy="107.4799364441389" r="2" fill="#1f77b4" opacity="0.5"/>
<circle cx="427.5" cy="190.68291516309532" r="2" fill="#1f77b4" opacity="0.5"/>
<circle cx="435.5" cy="132.91473537735513" r="2" fill="#1f77b4" opacity="0.5"/>
<circle cx="435.5" cy="98.54150061773947" r="2" fill="#1f77b4" opacity="0.5"/>
<circle cx="432.5" cy="135.43490939460716" r="2" fill="#1f77b4" opacity="0.5"/>
<circle cx="432.5" cy="162.9983554879201" r="2" fill="#1f77b4" opacity="0.5"/>
<circle cx="427.5" cy="157.5234776076237" r="2" fill="#1f77b4" opacity="0.5"/>
<circle cx="432.5" cy="138.06433663364177" r="2" fill="#ff7f0e" opacity="0.5"/>
<circle cx="435.5" cy="138.20925655645158" r="2" fill="#ff7f0e" opacity="0.5"/>
<circle cx="432.5" cy="187.98318660526897" r="2" fill="#ff7f0e" opacity="0.5"/>
<circle cx="435.5" cy="195.97503698713365" r="2" fill="#ff7f0e" opacity="0.5"/>
<circle cx="435.5" cy="100.62905070036467" r="2" fill="#ff7f0e" opacity="0.5"/>
<circle cx="427.5" cy="106.53319803179019" r="2" fill="#ff7f0e" opacity="0.5"/>
<circle cx="427.5" cy="191.84699952057696" r="2" fill="#ff7f0e" opacity="0.5"/>
<circle cx="427.5" cy="187.09622700067428" r="2" fill="#ff7f0e" opacity="0.5"/>
<circle cx="432.5" cy="244.38464178980803" r="2" fill="#ff7f0e" opacity="0.5"/>
<circle cx="435.5" cy="179.29108461595192" r="2" fill="#ff7f0e" opacity="0.5"/>
<circle cx="436.5" cy="236.57398790346568" r="2" fill="#1f77b4" opacity="0.5"/>
<circle cx="443.5" cy="259.8835036383609" r="2" fill="#1f77b4" opacity="0.5"/>
<circle cx="439.5" cy="258.56767523749784" r="2" fill="#1f77b4" opacity="0.5"/>
<circle cx="436.5" cy="251.5887398763648" r="2" fill="#1f77b4" opacity="0.5"/>
<circle cx="439.5" cy="260.0436108385531" r="2" fill="#1f77b4" opacity="0.5"/>
<circle cx="443.5" cy="240.24865458903918" r="2" fill="#1f77b4" opacity="0.5"/>
<circle cx="439.5" cy="243.40017542894842" r="2" fill="#1f77b4" opacity="0.5"/>
<circle cx="436.5" cy="174.4781080474823" r="2" fill="#1f77b4" opacity="0.5"/>
<circle cx="439.5" cy="262.9764821300446" r="2" fill="#1f77b4" opacity="0.5"/>
<circle cx="436.5" cy="261.97437095990006" r="2" fill="#1f77b4" opacity="0.5"/>
<circle cx="439.5" cy="242.1927230346371" r="2" fill="#1f77b4" opacity="0.5"/>
<circle cx="443.5" cy="245.00824120437963" r="2" fill="#ff7f0e" opacity="0.5"/>
<circle cx="436.5" cy="222.34300527468784" r="2" fill="#ff7f0e" opacity="0.5"/>
<circle cx="439.5" cy="242.34098352123485" r="2" fill="#ff7f0e" opacity="0.5"/>
<circle cx="436.5" cy="239.55835743193404" r="2" fill="#ff7f0e" opacity="0.5"/>
<circle cx="436.5" cy="262.93953580674065" r="2" fill="#ff7f0e" opacity="0.5"/>
<circle cx="443.5" cy="255.4114016277474" r="2" fill="#ff7f0e" opacity="0.5"/>
<circle cx="443.5" cy="260.08932609018177" r="2" fill="#ff7f0e" opacity="0.5"/>
<circle cx="436.5" cy="249.74650450525166" r="2" fill="#ff7f0e" opacity="0.5"/>
<circle cx="439.5" cy="261.4292805813176" r="2" fill="#ff7f0e" opacity="0.5"/>
<circle cx="443.5" cy="248.53593329350912" r="2" fill="#ff7f0e" opacity="0.5"/>
<circle cx="439.5" cy="262.30942317156473" r="2" fill="#ff7f0e" opacity="0.5"/>
<circle cx="445.5" cy="245.82290156659724" r="2" fill="#1f77b4" opacity="0.5"/>
<circle cx="445.5" cy="237.9005133279014" r="2" fill="#1f77b4" opacity="0.5"/>
<circle cx="435.5" cy="234.76554866135908" r="2" fill="#1f77b4" opacity="0.5"/>
<circle cx="433.5" cy="264.58398918049727" r="2" fill="#1f77b4" opacity="0.5"/>
<circle cx="435.5" cy="253.42201752379086" r="2" fill="#1f77b4" opacity="0.5"/>
<circle cx="433.5" cy="233.81811728252478" r="2" fill="#1f77b4" opacity="0.5"/>
<circle cx="435.5" cy="247.33233196096404" r="2" fill="#1f77b4" opacity="0.5"/>
<circle cx="445.5" cy="260.6364602800171" r="2" fill="#1f77b4" opacity="0.5"/>
<circle cx="445.5" cy="229.58959505243868" r="2" fill="#1f77b4" opacity="0.5"/>
<circle cx="433.5" cy="239.7636321185356" r="2" fill="#1f77b4" opacity="0.5"/>
<circle cx="445.5" cy="270.63428104991567" r="2" fill="#ff7f0e" opacity="0.5"/>
<circle cx="445.5" cy="250.47193425426897" r="2" fill="#ff7f0e" opacity="0.5"/>
<circle cx="445.5" cy="263.02496355351514" r="2" fill="#ff7f0e" opacity="0.5"/>
<circle cx="433.5" cy="240.0238078147811" r="2" fill="#ff7f0e" opacity="0.5"/>
<circle cx="435.5" cy="246.85186607146449" r="2" fill="#ff7f0e" opacity="0.5"/>
<circle cx="433.5" cy="262.6790701504624" r="2" fill="#ff7f0e" opacity="0.5"/>
<circle cx="435.5" cy="240.84200189680595" r="2" fill="#ff7f0e" opacity="0.5"/>
<circle cx="435.5" cy="257.05987557446326" r="2" fill="#ff7f0e" opacity="0.5"/>
<circle cx="433.5" cy="253.5880903989408" r="2" fill="#ff7f0e" opacity="0.5"/>
<circle cx="435.5" cy="261.71949913313665" r="2" fill="#ff7f0e" opacity="0.5"/>
<circle cx="437.5" cy="211.99254790185427" r="2" fill="#1f77b4" opacity="0.5"/>
<circle cx="441.5" cy="215.3639384231457" r="2" fill="#1f77b4" opacity="0.5"/>
<circle cx="441.5" cy="270.5556803365595" r="2" fill="#1f77b4" opacity="0.5"/>
<circle cx="441.5" cy="217.0001022628695" r="2" fill="#1f77b4" opacity="0.5"/>
<circle cx="438.5" cy="263.70525107316723" r="2" fill="#1f77b4" opacity="0.5"/>
<circle cx="441.5" cy="242.92969233966934" r="2" fill="#1f77b4" opacity="0.5"/>
<circle cx="437.5" cy="244.24051039549664" r="2" fill="#1f77b4" opacity="0.5"/>
<circle cx="438.5" cy="216.90036494474998" r="2" fill="#1f77b4" opacity="0.5"/>
<circle cx="437.5" cy="210.66476317027426" r="2" fill="#1f77b4" opacity="0.5"/>
<circle cx="441.5" cy="263.8157912823547" r="2" fill="#ff7f0e" opacity="0.5"/>
<circle cx="438.5" cy="218.1506777449356" r="2" fill="#ff7f0e" opacity="0.5"/>
<circle cx="438.5" cy="273.69139835929536" r="2" fill="#ff7f0e" opacity="0.5"/>
<circle cx="438.5" cy="271.92672406835766" r="2" fill="#ff7f0e" opacity="0.5"/>
<circle cx="438.5" cy="223.4749781120401" r="2" fill="#ff7f0e" opacity="0.5"/>
<circle cx="437.5" cy="247.66697257937577" r="2" fill="#ff7f0e" opacity="0.5"/>
<circle cx="441.5" cy="252.20424937853983" r="2" fill="#ff7f0e" opacity="0.5"/>
<circle cx="438.5" cy="264.2972704960488" r="2" fill="#ff7f0e" opacity="0.5"/>
<circle cx="441.5" cy="279.5751631336166" r="2" fill="#ff7f0e" opacity="0.5"/>
<circle cx="434.5" cy="226.35931648147542" r="2" fill="#1f77b4" opacity="0.5"/>
<circle cx="429.5" cy="270.6735818297002" r="2" fill="#1f77b4" opacity="0.5"/>
<circle cx="429.5" cy="273.7321304251218" r="2" fill="#1f77b4" opacity="0.5"/>
<circle cx="429.5" cy="229.47728348931315" r="2" fill="#1f77b4" opacity="0.5"/>
<circle cx="434.5" cy="270.7817502931251" r="2" fill="#1f77b4" opacity="0.5"/>
<circle cx="429.5" cy="282.169964202908" r="2" fill="#1f77b4" opacity="0.5"/>
<circle cx="429.5" cy="220.51202058404323" r="2" fill="#1f77b4" opacity="0.5"/>
<circle cx="440.5" cy="195.49313607020002" r="2" fill="#1f77b4" opacity="0.5"/>
<circle cx="440.5" cy="262.4192420867061" r="2" fill="#1f77b4" opacity="0.5"/>
<circle cx="440.5" cy="199.67831451868298" r="2" fill="#1f77b4" opacity="0.5"/>
<circle cx="440.5" cy="206.6365319978647" r="2" fill="#ff7f0e" opacity="0.5"/>
<circle cx="429.5" cy="286.4829412276644" r="2" fill="#ff7f0e" opacity="0.5"/>
<circle cx="429.5" cy="238.96334345079728" r="2" fill="#ff7f0e" opacity="0.5"/>
<circle cx="434.5" cy="275.7073695424194" r="2" fill="#ff7f0e" opacity="0.5"/>
<circle cx="434.5" cy="339.5733626799177" r="2" fill="#ff7f0e" opacity="0.5"/>
<circle cx="440.5" cy="218.16983479705874" r="2" fill="#ff7f0e" opacity="0.5"/>
<circle cx="429.5" cy="246.9427453425633" r="2" fill="#ff7f0e" opacity="0.5"/>
<circle cx="429.5" cy="280.5541206181341" r="2" fill="#ff7f0e" opacity="0.5"/>
<circle cx="440.5" cy="266.26438234635486" r="2" fill="#ff7f0e" opacity="0.5"/>
<circle cx="440.5" cy="251.47893553369659" r="2" fill="#ff7f0e" opacity="0.5"/>
<circle cx="429.5" cy="244.52348591177292" r="2" fill="#ff7f0e" opacity="0.5"/>
<circle cx="434.5" cy="276.80790303281617" r="2" fill="#ff7f0e" opacity="0.5"/>
<text x="437.5" y="358" text-anchor="middle" font-size="11">mma</text>
<text x="437.5" y="374" text-anchor="middle" font-size="9" fill="#666">n=142</text>
<text x="315.0" y="405" text-anchor="middle" font-size="13">Predicted bottleneck</text>
<text x="18" y="195.0" text-anchor="middle" transform="rotate(-90,18,195.0)" font-size="13">Residual (%)</text>
<text x="70" y="25" font-size="14" font-weight="bold">Residual distribution by predicted bottleneck</text>
<rect x="480" y="60" width="10" height="10" fill="#1f77b4"/>
<text x="495" y="69" font-size="11">bf16</text>
<rect x="480" y="78" width="10" height="10" fill="#ff7f0e"/>
<text x="495" y="87" font-size="11">fp16</text>
<rect x="480" y="96" width="10" height="10" fill="#2ca02c"/>
<text x="495" y="105" font-size="11">fp8</text>
</svg>
