<svg xmlns="http://www.w3.org/2000/svg" width="600" height="420" viewBox="0 0 600 420" font-family="sans-serif" font-size="12">

<rect width="600" height="420" fill="white"/>
<line x1="70" y1="243.33333333333334" x2="560" y2="243.33333333333334" stroke="#333" stroke-width="1.5"/>
<line x1="70" y1="340.0" x2="560" y2="340.0" stroke="#eee"/>
<text x="62" y="344.0" text-anchor="end" font-size="10">-30</text>
<line x1="70" y1="303.75" x2="560" y2="303.75" stroke="#eee"/>
<text x="62" y="307.75" text-anchor="end" font-size="10">-18</text>
<line x1="70" y1="267.5" x2="560" y2="267.5" stroke="#eee"/>
<text x="62" y="271.5" text-anchor="end" font-size="10">-7</text>
<line x1="70" y1="231.25" x2="560" y2="231.25" stroke="#eee"/>
<text x="62" y="235.25" text-anchor="end" font-size="10">3</text>
<line x1="70" y1="195.0" x2="560" y2="195.0" stroke="#eee"/>
<text x="62" y="199.0" text-anchor="end" font-size="10">15</text>
<line x1="70" y1="158.75" x2="560" y2="158.75" stroke="#eee"/>
<text x="62" y="162.75" text-anchor="end" font-size="10">26</text>
<line x1="70" y1="122.5" x2="560" y2="122.5" stroke="#eee"/>
<text x="62" y="126.5" text-anchor="end" font-size="10">37</text>
<line x1="70" y1="86.25" x2="560" y2="86.25" stroke="#eee"/>
<text x="62" y="90.25" text-anchor="end" font-size="10">48</text>
<line x1="70" y1="50.0" x2="560" y2="50.0" stroke="#eee"/>
<text x="62" y="54.0" text-anchor="end" font-size="10">60</text>
<rect x="177.5" y="164.94513490662194" width="30" height="123.81236323697675" fill="#ddd" stroke="#333"/>
<line x1="177.5" y1="253.75565460155363" x2="207.5" y2="253.75565460155363" stroke="#333" stroke-width="2"/>
<circle cx="189.5" cy="270.0076455915672" r="2" fill="#ff7f0e" opacity="0.5"/>
<circle cx="183.5" cy="282.0513304534278" r="2" fill="#2ca02c" opacity="0.5"/>
<circle cx="201.5" cy="303.3699029576736" r="2" fill="#ff7f0e" opacity="0.5"/>
<circle cx="201.5" cy="295.42901674394045" r="2" fill="#2ca02c" opacity="0.5"/>
<circle cx="201.5" cy="288.8453932380297" r="2" fill="#2ca02c" opacity="0.5"/>
<circle cx="183.5" cy="105.88428684310595" r="2" fill="#2ca02c" opacity="0.5"/>
<circle cx="183.5" cy="312.7939487908891" r="2" fill="#ff7f0e" opacity="0.5"/>
<circle cx="189.5" cy="170.9372678766253" r="2" fill="#2ca02c" opacity="0.5"/>
<circle cx="201.5" cy="339.404273482848" r="2" fill="#ff7f0e" opacity="0.5"/>
<circle cx="189.5" cy="140.36757553898428" r="2" fill="#2ca02c" opacity="0.5"/>
<circle cx="183.5" cy="254.78798037280987" r="2" fill="#2ca02c" opacity="0.5"/>
<circle cx="189.5" cy="252.7233288302974" r="2" fill="#2ca02c" opacity="0.5"/>
<circle cx="201.5" cy="144.41124401673156" r="2" fill="#2ca02c" opacity="0.5"/>
<circle cx="183.5" cy="78.30571813870624" r="2" fill="#2ca02c" opacity="0.5"/>
<circle cx="189.5" cy="204.97611276053314" r="2" fill="#ff7f0e" opacity="0.5"/>
<circle cx="189.5" cy="240.38208239768588" r="2" fill="#2ca02c" opacity="0.5"/>
<circle cx="201.5" cy="162.9477572499542" r="2" fill="#2ca02c" opacity="0.5"/>
<circle cx="183.5" cy="288.4938128603055" r="2" fill="#ff7f0e" opacity="0.5"/>
<text x="192.5" y="358" text-anchor="middle" font-size="11">FMA compute</text>
<text x="192.5" y="374" text-anchor="middle" font-size="9" fill="#666">n=18</text>
<rect x="422.5" y="187.05400769218477" width="30" height="44.843447702844884" fill="#ddd" stroke="#333"/>
<line x1="422.5" y1="192.8146450339324" x2="452.5" y2="192.8146450339324" stroke="#333" stroke-width="2"/>
<circle cx="434.5" cy="197.58995971008133" r="2" fill="#ff7f0e" opacity="0.5"/>
<circle cx="434.5" cy="245.1389147732715" r="2" fill="#ff7f0e" opacity="0.5"/>
<circle cx="446.5" cy="243.3332872900124" r="2" fill="#ff7f0e" opacity="0.5"/>
<circle cx="428.5" cy="141.7087214830379" r="2" fill="#ff7f0e" opacity="0.5"/>
<circle cx="446.5" cy="188.0393303577835" r="2" fill="#ff7f0e" opacity="0.5"/>
<circle cx="428.5" cy="186.72556680365184" r="2" fill="#ff7f0e" opacity="0.5"/>
<text x="437.5" y="358" text-anchor="middle" font-size="11">Tensor Core</text>
<text x="437.5" y="374" text-anchor="middle" font-size="9" fill="#666">n=6</text>
<text x="315.0" y="405" text-anchor="middle" font-size="13">Predicted saturated component</text>
<text x="18" y="195.0" text-anchor="middle" transform="rotate(-90,18,195.0)" font-size="13">Residual (%)</text>
<text x="70" y="25" font-size="14" font-weight="bold">Residual distribution by predicted saturated component (SASS model)</text>
<rect x="480" y="60" width="10" height="10" fill="#1f77b4"/>
<text x="495" y="69" font-size="11">bf16</text>
<rect x="480" y="78" width="10" height="10" fill="#ff7f0e"/>
<text x="495" y="87" font-size="11">fp16</text>
<rect x="480" y="96" width="10" height="10" fill="#2ca02c"/>
<text x="495" y="105" font-size="11">fp8</text>
</svg>
