<svg xmlns="http://www.w3.org/2000/svg" width="600" height="520" viewBox="0 0 600 520" font-family="sans-serif" font-size="12">

<rect width="600" height="520" fill="white"/>
<polygon points="70.0,422.89862450261035 98.62937151182415,398.94343609475743 121.85334439718659,379.5111322519031 141.3924659900335,363.1620713272762 158.25749930533544,349.0505128389622 173.09304700207122,336.6370953784282 186.33550644138916,325.55667013328474 198.29408332126062,315.5505139684943 209.19587201689947,306.4286091415311 219.21257940035557,298.04728255537407 228.47719014191352,290.2952613226418 237.09480022234195,283.0846079900384 245.14990818253543,276.34461969681536 252.711469071945,270.01759936077883 259.8364874882316,264.05584925735525 266.57262888408616,258.4194860485791 272.9601544191229,253.07482182538502 279.03337932050954,247.99314384667377 284.82178898005,243.14978066216037 290.3509048727267,238.523377568288 295.64296471357403,234.0953274973749 300.71746271272656,229.84931896747176 305.59158310027567,225.7709733370735 310.2805512642617,221.84755099577913 314.79792060398216,218.06771134417622 319.1558087239123,214.42131516219388 323.36509333894304,210.89926068839267 327.4355758662759,207.49334673695085 331.3761188961066,204.19615767117415 335.1947623916189,201.00096617492915 338.89882244945585,197.90165061633093 342.49497567018346,194.89262445204864 345.98933158372,191.9687756264364 349.38749510336527,189.1254143140802 352.69462061179087,186.358227664173 355.915458989404,183.66324045025183 359.05439866216653,181.03678072406285 362.1155015589242,178.4754497288165 365.1025347174984,175.97609545327498 368.01899815649205,173.53578931044345 370.8681495300656,171.15180550806562 373.65302600122453,168.8216027464837 376.3764637018872,166.54280793572514 379.04111509233877,164.3132016702452 381.6494644864328,162.1307052384522 384.20384197030893,159.99336897643346 386.706435910069,157.8993618023485 389.15930421666235,155.8469617907092 391.56438451328125,153.83454766496683 393.9235033311267,151.86059110309614 396.23838444288054,149.92364976468988 398.5106564291296,148.0223609598692 400.7418595609363,146.15543589039825 402.9334520714079,144.3216544020445 405.08681588022085,142.5198601946704 407.2032618273804,140.7489564429655 409.2840344658525,139.00790178628475 411.33031645694723,137.29570665087894 413.3432326073211,135.61142987199474 415.3238535821024,133.95417558697358 417.27319932482874,132.323090373672 419.1922422115434,130.71736061131895 421.0819099634711,129.13621004337938 422.9430883401135,127.57889752414802 424.77662363233213,126.04471493269978 426.5833249729864,124.53298523949923 428.36396648091613,123.043060712456 430.1192892524876,121.57432125052891 431.85000321352766,120.1261728341484 433.556788843228,118.6980460827665 435.2402987804954,117.28939491076723 436.9011593222392,115.89969527379792 438.5399718222032,114.5284439983178 440.1573139981598,113.17515768782357 441.7537411545791,111.8393716997993 443.32978732724564,110.52063918797619 444.88596635572884,109.21853020495962 446.4227728890937,107.93263086071558 447.94068332978037,106.66254253279406 449.4401567201563,105.40788112452032 450.9216355758706,104.16827636769821 452.3855466697947,102.94337116665963 453.8323017700257,101.73282098075204 455.2622983351433,100.53629324259238 456.67592016965904,99.35346680963033 458.07353804236055,98.18403144675756 459.4555102700456,97.02768733787832 460.82218326894116,95.8841446245167 462.17389207593504,94.75312296968508 463.51096084157797,93.6343511453716 464.83370329667383,92.52756664212811 466.14242319413637,91.43251529935335 467.4374147276701,90.34895095496796 468.718962928719,89.27663511327401 469.9873440430216,88.21533662987795 471.24282588801907,87.16483141263517 472.4856681922705,86.1249021376493 473.7161229179534,85.09533797942484 474.9344345674498,84.07593435433597 476.14084047495186,83.06649267663018 477.33557108395627,82.06682012623872 478.5188502114597,81.07672942771543 479.69089529961235,80.09603863966932 480.851917655537,79.12457095409971 482.0021226799769,78.16215450507862 483.14171008538847,77.20862218626489 484.27087410406114,76.26381147676328 485.38980368680404,75.32756427487627 486.4986826927099,74.39972673932246 487.5976900704716,73.48014913752189 488.68700003169886,72.56868570057658 489.76678221665566,71.6651944845923 490.8372018528115,70.7695372380129 491.89841990657817,69.88157927465713 492.95059322857986,69.00118935216595 493.99387469278486,68.1282395555863 495.0284133298073,67.26260518583277 496.05435445467043,66.40416465278405 497.07183978930334,65.55279937278503 498.08100758003206,64.70839367033851 499.0819927103067,63.870834683782235 500.0749268088947,63.040012274759675 501.05993835375864,62.21581894130207 502.0371527718217,61.39814973435133 503.00669253481607,60.586902177560134 503.96867725139634,59.78197619021746 504.92322375569177,58.98327401315392 505.8704461924617,58.19070013748936 506.8104560990082,57.40416123609324 507.7433624839942,56.6235660976355 508.66927190330557,55.848825563109756 509.5882885330889,55.07985246471962 510.50051424009206,54.316561567023086 511.40604864942367,53.55886951023538 512.3049892098459,52.80669475559638 513.1974312567077,52.05995753271209 514.0834680726182,51.31857978878693 514.9631909459604,50.58248513966389 515.8366892273325,49.85159882259741 516.7040503840078,49.12584765068538 517.5653600524947,48.405159968890324 518.4207020892748,47.68946561158455 519.2701586197968,46.97869586155584 520.1138100857954,46.272783410414135 520.9517352910043,45.571662320341446 521.7840114453284,44.87526798713137 522.6107142075375,44.183537104466566 523.431917726539,43.496407629383725 524.2476946812876,42.81381874887994 525.0581163193845,42.1357108476152 525.8632524944186,41.462025476668195 526.6631717020978,40.79270532330406 527.4579411152158,40.12769418171539 528.2476266175031,39.46693692469939 529.0322928363997,38.810379476234985 529.812003174794,38.15796878492546 530.5868198417661,37.509652798275425 531.3568038823714,36.865380437768934 532.1220152065016,36.22510157472124 532.8825126168567,35.58876700687308 533.6383538360608,34.95632843570235 534.3895955329522,34.32773844442592 535.1362933480796,33.70295047666624 535.8785019184305,33.08191881576026 536.6162749014221,32.46459856468568 537.349664998178,31.850945626583744 538.0787239761191,31.240916685857428 538.8035026908904,30.634469189824486 539.5240511076476,30.031561330905184 540.2404183217277,29.432152029328016 540.9526525787212,28.836200916333333 541.6608012939707,28.243668317859175 542.3649110715116,27.654515238692433 543.0650277224763,27.06870334706899 543.7611962829803,26.486194959708385 544.4534610315063,25.906953027268266 545.1418655058026,25.33094112020396 545.8264525193147,24.758123415020407 546.5072641771624,24.18846468090303 547.1843418916795,23.621930266715164 547.8577263975296,23.058486088350847 548.5274577664115,22.49809861642927 549.1935754213682,21.940734864322597 549.8561181507123,21.386362376504064 550.5151241215784,20.834949217207992 551.170630893117,20.28646395939001 551.8226754293399,19.7408756739789 552.4712941116272,19.198153919412114 553.1165227509081,18.65826873144231 553.7583965995252,18.121190613211702 554.3969503627916,17.58689052558054 555.0322182102508,17.05533987770664 555.6642337866479,16.52651051786407 556.2930302226226,16.000374724497487 556.9186401451298,15.476905197501807 557.5410956875983,14.956075049722003 558.1604284998346,14.437857798667043 558.77666975768,13.922227358429083 559.3898501724261,13.409158031804715 560.0,12.89862450261035 7983794573101.76,0.065 1485620909116.76,1624271058983.955 84802353879421.86,86757966677.855 93644397806046.86,6438994824061.855 4105440628851.96,3895786590145.755 61182291656976.96,8921541046819.655 39672917521302.07,6226222030392.655 64346215162927.07,9746687332466.555 89584278090852.17,8052012812230.555 49953025146987.17,6197263059693.455 50199706149323.27,2525995693857.355 47122627910168.27,1809057225611.355 14191419409004.37,2726111492174.255 33857866626349.37,9933924576228.155 13961459412984.47,711398036071.155 34789112007730.57,4875121421515.055 54382173311985.57,3217051811658.945 9101958584341.67,2863124575391.945 16802116948007.67,5114667754725.845 2031380732162.77,6925793627758.745 6494162186428.77,5976198143481.745 33286576512193.87,4261771462705.645 8997904478069.87,7413915254628.545 4389411296335.97,6208505568141.545 56740220407901.08,3605130164354.445 47784459549886.08,3089282691167.345 82848143454172.18,3674227720560.345 97174332662758.18,6115170119463.245 75836213914644.28,7079392108066.145 27211119159830.38,2127875256259.045 24701420309436.38,7727123814042.045 85486523213432.48,6746701150425.935 88306481022738.48,4098096205308.835 68636086766344.58,1911679327870.835 90363126696350.68,871899466943.735 20564955943766.68,1224109472616.635 56935018966482.78,5034819105878.535 46544174107509.78,6970843392631.535 12502934984035.88,2259235595983.435 47184034970951.98,8060638353836.335 64256100815197.98,7658616215288.235 95005965258724.09,6105602510221.235 33845234131860.19,4173288308653.135 37450397304217.19,1667148918685.035 58407977917063.29,497471300218.925 24410174031310.39,7993638292230.925 38874919786966.39,1305716626742.825 57494671544033.49,8512511149754.725 4380813654599.49,8790207171366.625 26744174677466.59,6814494252368.525 46493248164833.69,5483913611850.525 33956347965610.79,6782186496742.425 21361426851996.79,935627719134.325 642990882683.89,5735702417016.225 67019189810870.99,4823544110487.125 8021513314477.99,3400192537159.025 15391504435574.001,4597580018311.025 42533658644181.101,8697916851072.915 98363606612298.101,8472980207024.815 27966369019706.201,7494250063565.715 87464546895823.301,8700483050407.615 58673718943450.401,5233722986638.515 42344431632587.401,4069549091369.415 72665387033125.501,2816270864380.415 44194725807262.601,7707652134791.315 27573057544900.701,9548902989403.215 28410505026167.701,76324946840604.115 44208165213915.801,60290042415005.015 79894954306282.901,9880335882885.905 1988755675150.011,75503309172966.805 58414290713628.011,2499384263347.705 26278032219606.111,2800990654018.605 17862231154393.211,7164291644078.505 53339700520681.311,77196557322329.405 9699481727489.311,43693152776869.305 84933271356987.411,70618435296600.305 76031927009006.511,7128177251730.205 54180639965814.611,46857353839950.105 10935962367242.711,7498808629470.005 36165876585370.811,7603017299180.994 49711566441119.811,60230085700180.894 74465763055557.911,43303987938170.794 44365746519606.021,34076454453450.694 61216081653564.121,3708923314820.594 66563055099033.221,68487296478399.394 3549643049302.321,68975822395059.294 64634962033480.421,71875609914898.194 3297232882279.421,5118258102738.094 7173974549768.521,66556612287667.984 39553596634177.621,68896130000786.884 32103231009286.721,6174070096795.784 8101437774206.821,9907296286894.684 27556962513035.921,40408686308983.584 36245174265664.031,41160401478072.484 72440181373114.131,74883580017141.384 30858994509463.231,9679976221200.284 1978849123723.331,735556719158.084 27844436987892.431,53216992598096.974 38494224084972.531,7954112058815.874 21810121175962.631,72659380175533.774 85904176342962.731,68159474048041.674 43511943586872.831,8944765434439.474 81402479880892.931,4359719221617.374 86824231356723.041,5072291866584.274 25414704285763.141,70910888528242.174 53756426780814.241,6120340443789.964 53350801683974.341,917829269817.864 33747949107155.441,1076727414734.764 7231492662536.541,73631491324241.664 5709636713037.641,38376692307338.464 39051041201738.741,79775148069015.364 74464469378559.841,40539570298371.264 60692916598680.051,61149862381228.064 86756233834032.151,6540072015554.954 59635144287683.251,55063240835370.854 37904408712655.351,40956961029576.654 8173732440937.451,3341533892262.554 4135579175539.551,7520077103238.354 934161221641.751,7497966645583.254 55774263720173.851,6078575536129.054 7992911236016.951,3651027651044.944 44375725392568.061,73087923386049.744 39494558183531.261,7390988277224.644 40937991182124.361,48827553669588.444 45557281093327.461,46542723787923.344 7875496221240.661,1975451147357.144 306286809773.761,8951899313751.044 32790399491137.861,2302228179935.834 72775862644201.071,2932223951109.634 6645509541294.171,4594087892042.534 9545770797009.271,822348887655.334 47729828329823.471,66725312300058.134 3803542270777.571,6784252982911.034 4532707118542.771,31619084669363.824 26872432637537.871,4689279423385.624 71974729564742.081,31233236326677.424 4729815846187.181,5311043880349.224 8851830169833.381,1174369909180.124 53890606111029.481,4345112242291.914 23154863148525.681,47828423991372.714 49257185629651.881,4201285358323.514 41477668081418.981,1123706232343.314 82856546754894.191,32749654613033.114 80460187256012.391,5258564430482.904 68447734707159.491,4083728162302.704 8944981116227.691,58022088518680.504 58328693504425.891,9704170254339.204 6771588681853.002,3639065958147.004 85846459111522.202,6921924656015.893 82964957004621.402,45088244483832.693 35578790243360.602,7621133305329.393 82647956892730.802,52182315483465.193 6884587217940.012,53266612403951.983 49721797211201.212,960019534607.683 8212179911691.412,39803079148302.483 75132332654333.612,8234684464946.183 45420566259515.812,77833290511140.973 74405039855547.022,2788107364673.673 40362147353420.322,35422100620356.373 548205655453.522,6560035941868.073 9222503045837.722,50294651899810.863 23450844648871.032,4894717435201.563 9595327002876.232,2429855105511.263 42248817135932.532,35661266893450.953 71130544199568.732,404989854519.553 4259856879065.042,78097116026496.253 85958803561823.342,72563301594783.943 8512126625171.642,27385133989.543 30828644573590.942,64381076579494.243 3011116104401.252,58554944228898.833 45807961717302.552,9816193267491.533 5359566809893.852,6601698811673.133 2037137790696.162,9572668575534.723 271386110201.562,40349833390563.323 3379651660426.862,3219327808551.913 6559833264072.272,61289306029797.413 74855099103050.672,7162462155082.013 9258133427379.972,76572001385195.503 51152269960250.482,65627217264717.003 33451294870892.882,30475317469246.592 33760365821627.292,7627278409053.092 37939656135253.792,50089887128.482 2354148498591.203,45905023973330.972 4461028275772.703,9221914451069.272 44853340732226.213,61680488826275.662 76431252006852.813,6132884784638.952 2855553053022.423,549170964117.252 8495196073745.033,34535281809941.542 48718489853782.733,59143222008490.732 2124713210894.443,25319141091774.822 34351055330052.253,75553004975212.912 55013631063136.063,74998610278591.902 7372369462357.963,26062123380492.891 61460821124957.973,61983144605533.681 7702373648938.093,22170200740390.371 46147338362352.304,44533503994752.851 55550223228463.714,5330099564293.141 45286642388317.334,95681793443358.121 9635980781641.354,51428115173926.89 56983794573101.774,0.07" fill="#eeeeee" stroke="none"/>
<line x1="70.0" y1="450.0" x2="560.0" y2="40.0" stroke="#333" stroke-width="1.5"/>
<line x1="-26.086434696660064" y1="40" x2="-26.086434696660064" y2="450" stroke="#ddd"/>
<line x1="70" y1="530.3988535216952" x2="560" y2="530.3988535216952" stroke="#ddd"/>
<text x="-26.086434696660064" y="468" text-anchor="middle">0.010</text>
<text x="60" y="534.3988535216952" text-anchor="end">0.010</text>
<line x1="258.1727880612579" y1="40" x2="258.1727880612579" y2="450" stroke="#ddd"/>
<line x1="70" y1="292.54929978547807" x2="560" y2="292.54929978547807" stroke="#ddd"/>
<text x="258.1727880612579" y="468" text-anchor="middle">0.10</text>
<text x="60" y="296.54929978547807" text-anchor="end">0.10</text>
<line x1="542.432010819176" y1="40" x2="542.432010819176" y2="450" stroke="#ddd"/>
<line x1="70" y1="54.69974604926098" x2="560" y2="54.69974604926098" stroke="#ddd"/>
<text x="542.432010819176" y="468" text-anchor="middle">1.0</text>
<text x="60" y="58.69974604926098" text-anchor="end">1.0</text>
<circle cx="70.82975028667302" cy="440.3797971915739" r="2.5" fill="#ff7f0e" opacity="0.6"/>
<circle cx="402.1708777040041" cy="158.8376297585318" r="2.5" fill="#2ca02c" opacity="0.6"/>
<circle cx="251.14325103671095" cy="277.13254652255205" r="2.5" fill="#ff7f0e" opacity="0.6"/>
<circle cx="248.47301288413627" cy="282.44896079095923" r="2.5" fill="#2ca02c" opacity="0.6"/>
<circle cx="121.84461802816803" cy="420.33224678233864" r="2.5" fill="#ff7f0e" opacity="0.6"/>
<circle cx="322.69272907086975" cy="222.83414547989895" r="2.5" fill="#2ca02c" opacity="0.6"/>
<circle cx="85.50556605535755" cy="436.44550082819757" r="2.5" fill="#ff7f0e" opacity="0.6"/>
<circle cx="388.19567887671565" cy="183.7546508023198" r="2.5" fill="#ff7f0e" opacity="0.6"/>
<circle cx="462.8361890691229" cy="157.99858425813147" r="2.5" fill="#2ca02c" opacity="0.6"/>
<circle cx="487.7277989260961" cy="75.39275907204447" r="2.5" fill="#ff7f0e" opacity="0.6"/>
<circle cx="97.96556422301137" cy="447.53616883629877" r="2.5" fill="#2ca02c" opacity="0.6"/>
<circle cx="325.61710085313746" cy="199.54540408193637" r="2.5" fill="#ff7f0e" opacity="0.6"/>
<circle cx="118.0216522313869" cy="438.4617666095726" r="2.5" fill="#2ca02c" opacity="0.6"/>
<circle cx="484.57864008865135" cy="99.36872362391225" r="2.5" fill="#2ca02c" opacity="0.6"/>
<circle cx="70.0" cy="446.9450597405026" r="2.5" fill="#2ca02c" opacity="0.6"/>
<circle cx="381.02832584670136" cy="217.40787300325874" r="2.5" fill="#2ca02c" opacity="0.6"/>
<polygon points="470.21885430509246,139.9398106204268 473.71885430509246,143.4398106204268 470.21885430509246,146.9398106204268 466.71885430509246,143.4398106204268" fill="#ff7f0e" opacity="0.7"/>
<polygon points="546.4814983927047,90.52827875581006 549.9814983927047,94.02827875581006 546.4814983927047,97.52827875581006 542.9814983927047,94.02827875581006" fill="#2ca02c" opacity="0.7"/>
<polygon points="99.28604620127619,433.6132234840165 102.78604620127619,437.1132234840165 99.28604620127619,440.6132234840165 95.78604620127619,437.1132234840165" fill="#ff7f0e" opacity="0.7"/>
<polygon points="309.42798919322206,262.5216187837895 312.92798919322206,266.0216187837895 309.42798919322206,269.5216187837895 305.92798919322206,266.0216187837895" fill="#ff7f0e" opacity="0.7"/>
<polygon points="82.95296325103945,436.6036004054559 86.45296325103945,440.1036004054559 82.95296325103945,443.6036004054559 79.45296325103945,440.1036004054559" fill="#2ca02c" opacity="0.7"/>
<polygon points="302.6556512684307,274.8353459151564 306.1556512684307,278.3353459151564 302.6556512684307,281.8353459151564 299.1556512684307,278.3353459151564" fill="#2ca02c" opacity="0.7"/>
<polygon points="405.24136355231656,150.39400179759173 408.74136355231656,153.89400179759173 405.24136355231656,157.39400179759173 401.74136355231656,153.89400179759173" fill="#ff7f0e" opacity="0.7"/>
<polygon points="553.9767463155943,58.258039938622204 557.4767463155943,61.758039938622204 553.9767463155943,65.2580399386222 550.4767463155943,61.758039938622204" fill="#ff7f0e" opacity="0.7"/>
<text x="315.0" y="500" text-anchor="middle" font-size="13">SASS predicted runtime (ms)</text>
<text x="20" y="245.0" text-anchor="middle" transform="rotate(-90,20,245.0)" font-size="13">Measured runtime (ms)</text>
<text x="70" y="25" font-size="14" font-weight="bold">Predicted vs. measured runtime (SASS critical-path model)</text>
<rect x="480" y="50" width="10" height="10" fill="#1f77b4"/>
<text x="495" y="59" font-size="11">bf16</text>
<rect x="480" y="68" width="10" height="10" fill="#ff7f0e"/>
<text x="495" y="77" font-size="11">fp16</text>
<rect x="480" y="86" width="10" height="10" fill="#2ca02c"/>
<text x="495" y="95" font-size="11">fp8</text>
<circle cx="485" cy="110" r="2.5" fill="#333" opacity="0.6"/>
<text x="495" y="114" font-size="10">calibration</text>
<polygon points="485,118.5 488.5,122 485,125.5 481.5,122" fill="#d62728" opacity="0.7"/>
<text x="495" y="126" font-size="10">validation</text>
<text x="480" y="145" font-size="10" fill="#666">Shaded band = ±30%</text>
</svg>
