<svg xmlns="http://www.w3.org/2000/svg" width="600" height="520" viewBox="0 0 600 520" font-family="sans-serif" font-size="12">

<rect width="600" height="520" fill="white"/>
<polygon points="70.0,434.5835701365726 200.17723734074576,325.65975930043834 243.12558659643335,289.7233854334345 269.58131267475153,267.5869615719845 288.75257829203986,251.5456985044576 303.79675884708286,238.95771069309498 316.1797820457532,228.596405567677 326.70309999850383,219.79118034190608 335.8530509306884,212.13509894966995 343.94707177490636,205.3625508963448 351.2038560569778,199.29054772155024 357.78048741169715,193.78765209821367 363.7936079544169,188.7562655216523 369.332210031212,184.1219250084156 374.46573894446607,179.8265232646724 379.2494291075292,175.82384374047675 383.72793505868225,172.07652243440987 387.9378720834436,168.55392206675234 391.90963721382286,165.23060838623098 395.66874214316215,162.08523487392665 399.23680708734986,159.09971114511657 402.63231409534814,156.25857262822 405.87118646136827,153.5484957505297 408.96724029258513,150.957920095838 411.9325406564674,148.47675040361003 414.77768552563214,146.09611898247215 417.51203440319887,143.80819441144692 420.1438940781908,141.60602611196396 422.6806708096533,139.48341701012794 425.12899596695735,137.43481840911844 427.4948304952194,135.4552425793481 429.7835523490316,133.54018959962775 432.0000301216955,131.68558574903147 434.1486854055291,129.88773132786457 436.2335458915696,128.14325622730001 438.25829081144144,126.44908190659089 440.2262900095804,124.80238869998486 442.1406376880703,123.20058758124848 444.00418167265246,121.6412956757817 445.81954889485155,120.12231493883958 447.58916766252173,118.64161352099318 449.31528719261365,117.19730942438552 450.99999480036416,115.78765611994127 452.64523107443966,114.41102984979653 454.25280331474397,113.06591838341934 455.82439746623714,111.75091103217011 457.36158874634486,110.46468975697792 458.8658511339076,109.206021228609 460.3385658629517,107.97374972063334 461.78102904396036,106.76679073244242 463.1944585180344,105.58412525413557 464.58000003477105,104.42479459727434 465.93873283238645,103.28789572580018 467.271674688172,102.17257703014293 468.57978649849224,101.07803449497698 469.8639764399535,100.00350821742776 471.1251037568799,98.94827923795876 472.36398221465817,97.91166665083813 473.58138325371186,96.8930249650993 474.7780388747172,95.89174169038064 475.954644282083,94.90723512503376 477.11186030959925,93.93895232649969 478.25031564944544,92.98636724622027 479.3706089033824,92.04897901333425 480.47331047288407,91.1263103531389 481.55896430315005,90.21790612781439 482.6280894943468,89.3233319882415 483.681181792028,88.44217312691647 484.71871496744205,87.57403312299857 485.7411420973502,86.71853287144282 486.7488967520056,85.87530958897605 487.7423940990926,85.04401589039298 488.7220319306588,84.22431892928662 489.6881916193982,83.41589959789236 490.64123901004007,82.6184517812329 491.5815252510545,81.83168166120045 492.50938757140995,81.05530706661725 493.42515000668027,80.28905686567681 494.32912407841354,79.53267039749181 495.2216094303285,78.78589693976707 496.10289442458804,78.04849520987645 496.9732567011196,77.3202328968602 497.83296370269704,76.60088622207093 498.6822731682676,75.89023952638937 499.5214335968032,75.1880848821045 500.3506846837616,74.49422172771082 501.1702577320781,73.8084565240174 501.98037603944925,73.13060243009457 502.781255263532,72.4604789976988 503.5731037665511,71.7979118829277 504.35612294069443,71.14273257395075 505.1305075155653,70.49477813375262 505.89644584886804,69.8538909569074 506.6541202014111,69.21991853947344 507.4037069974317,68.59271326117057 508.1453770711741,67.97213217905957 508.8792959005814,67.3580368320044 509.6056238289023,66.75029305524615 510.32451627495374,66.14877080446843 511.03612393272994,65.55334398877811 511.74059296099995,64.9638903120624 512.4380651634877,64.38029112222571 513.1286781601939,63.8024312678389 513.8125655503734,63.230198961770206 514.4898570676556,62.6634856513913 515.1606787277525,62.10218589498376 515.8251529691809,61.546197243992616 516.4833987873883,60.99542013079865 517.1355318626506,60.44975776170162 517.7816646820854,59.909116014827575 518.4219066561049,59.37340334268883 519.0563642296053,58.84253067914777 519.6851409881806,58.31641135054386 520.3083377596226,57.7949609907658 520.9260527109561,57.27809746005828 521.5383814412436,56.76574076736869 522.1454170703803,56.25781299605034 522.7472503240812,55.75423823274956 523.3439696152606,55.25494249931363 523.9356611219805,54.75985368756852 524.5224088621433,54.26890149682001 525.104294765091,53.78201737394544 525.6813987402604,53.2991344559464 526.2537987430424,52.82018751484323 526.8215708379757,52.345112904796984 527.3847892594104,51.873848511351625 527.9435264697545,51.406333702696344 528.4978532154238,50.94250928285054 529.0478385805998,50.48231744668294 529.5935500388989,50.02570173667755 530.1350535030497,49.57260700136768 530.6724133726696,49.12297935535921 531.2056925802269,48.67676614087243 531.7349526352716,48.23391589073298 532.260253667011,47.79437829274693 532.7816544653055,47.35810415539861 533.2992125201523,46.92504537481244 533.8129840597276,46.49515490292295 534.3230240870436,46.06838671680141 534.8293864152865,45.644695789087834 535.332123701889,45.22403805948165 535.831287481391,44.806370407245375 536.326928197141,44.39165062467903 536.819095231888,43.97983739152346 537.3078369373062,43.57089025025505 537.7932006625019,43.16476958223416 538.2752327815404,42.76143658467146 538.7539787200344,42.360853248380465 539.229482980835,41.962982336282046 539.7017891688541,41.567787362633354 540.1709400150619,41.175232572949284 540.6369773996857,40.785282924590476 541.0999423746453,40.39790406799183 541.5598751852517,40.013062328504844 542.0168152912025,39.63072468883164 542.4708013868972,39.25085877202589 542.9218714210995,38.87343282504037 543.370062615973,38.49841570279911 543.8154114855142,38.12577685277492 544.2579538534017,37.755486300052766 544.6977248702899,37.38751463286052 545.1347590305627,37.021832988550734 545.569090188569,36.65841304001485 546.0007515743603,36.29722698251601 546.4297758089465,35.93824752092339 546.8561949190893,35.58144785733452 547.2800403516483,35.22680167907091 547.7013429874979,34.87428314703343 548.1201331550283,34.52386688440616 548.536440643246,34.17552796569325 548.9502947144904,33.82924190608057 549.3617241167747,33.48498465110802 549.7707570957699,33.142732566642565 550.1774214064411,32.8024624291422 550.581744324348,32.46415141619966 550.9837526566232,32.12777709735719 551.3834727526372,31.793317425182313 551.7809305143617,31.460750726596387 552.1761514064418,31.130055694447705 552.5691604659858,30.801211379319234 552.9599823120822,30.47419718156496 553.3486411550554,30.14899284356698 553.7351608054632,29.825578442205373 554.1195646828519,29.503934381533163 554.5018758242695,29.184041385653114 554.8821168925515,28.865880491784534 555.2603101843813,28.54943304351888 555.6364776381361,28.234680684254638 556.010640841523,27.921605350808406 556.3828210390132,27.6101892671941 556.7530391390801,27.30041493856671 557.1213157212475,26.992265145324644 557.4876710429539,26.685722937366236 557.8521250462388,26.38077162849507 558.2146973642573,26.077394790969414 558.575407327625,25.775576250192437 558.9342739706028,25.475300079537476 559.2913160371252,25.176550595304533 559.6465519866725,24.879312351805662 560.0,24.58357013657261 84724368924614.55,0.065 85066870271217.55,5276689155646.955 694951223014900.65,2521730613192.955 53293608951803.65,8206079372439.855 44740779534806.65,526723704575.855 33428715452019.65,3752463796412.855 99943553136312.75,8832640521258.755 61122466285815.75,9359240176784.755 16971278421528.75,5742127513121.755 426124566472331.85,1080931930357.655 20940499840344.85,2310930128283.655 623366770564457.85,325148046010.655 555901114045760.95,1631836774636.555 17373077292283.95,3183481013062.555 5936812047896.95,5155298611288.455 21805211109610.06,5962428578105.455 621883801497633.06,9158286465911.455 52060961834856.06,2364508061537.355 99124075258189.06,4550551146843.355 88914809650703.16,2280213289959.255 51471601170436.16,8589564061965.255 17203124519269.16,8144604151671.255 13154354016392.26,7163415039087.155 490730251771626.26,2736257274383.155 60212428636069.26,2326656257389.055 675450341110792.36,843423447185.055 661799551223536.36,1144604124771.055 584794392295579.36,9967590757077.945 49269773448713.46,7477611427163.945 35539236101266.46,4094417492059.845 71845296783800.56,642346044635.845 40162116627653.56,3820551331021.845 44888378241707.56,9794789243107.745 28529504166950.66,3846153040082.745 35981485703414.66,3980919491658.645 3877742701177.66,5649808577924.645 98073907680031.76,3063475157000.645 17968667272194.76,965881090965.545 6504517296458.76,7265030957431.545 44517953473022.86,9982078427796.445 96709620643885.86,7104358359752.445 48926975636859.86,2415584114518.345 30456924572133.96,379516260073.345 72598155292607.96,5990124178129.245 18088894817380.07,2798683108074.245 55686514485364.07,5202192518610.245 17953550229548.07,7152581578955.145 17648497367032.17,3546473249990.145 4544156241816.17,7586993779636.045 2408992290800.27,9160510049071.045 23884980746004.27,1458861987107.935 69631360248597.27,538089284922.935 92532579217391.37,4430027879357.835 24625113692495.37,4045187232572.835 80980903926799.37,9105266002397.735 10011779947304.47,2603739638703.735 82873811796218.47,888132590918.635 9335153015422.57,141791829623.635 33001431032936.57,193184782138.535 6633687798650.67,988107321233.535 57249515555774.67,5682514683928.435 82656344642109.67,6340780420323.435 78777926410823.77,6727950489218.335 3766101509757.77,3251025212992.335 75352288369091.87,5503564456187.235 58106910832726.87,110766352062.235 58785716577660.97,6172536259437.135 3727768526905.97,9622085296502.135 80412280938559.97,6966273314276.035 56222827664504.08,7940305350531.035 15235364165858.08,9898830055395.925 67735371771513.18,8995085838740.925 5507900963577.18,8324512358794.825 62155924391932.28,5457964625349.725 55602832807607.28,4014952987483.725 9156136279771.38,7579738075128.625 91896142740356.38,4240347897352.625 23108281499131.48,4062047893186.525 63008001778416.48,190567492401.525 88476322167101.58,3341268804225.425 44324414317295.58,5089121166539.325 95861622208780.68,6062516969343.325 83406959790785.68,2180423052747.225 52509227276090.78,3083070714541.225 65322494006895.78,6342144183835.125 51319681759011.88,1659017250629.025 27026717028726.88,6226957733803.025 27893770172941.98,6081889041586.915 36200604093576.98,3506922463650.915 87345960362602.09,9401656609124.815 5286147579147.09,4580286466187.715 85655884716282.19,6056268135531.715 15356758972828.19,3883787893384.615 35748079650973.29,9081969251528.515 86838126540539.29,5257727876061.515 22642873543694.39,6556760758984.415 81526886850360.49,4373055565218.315 68396499092536.49,9391061876821.315 85080948051312.59,7784361560834.215 73719830057697.59,59999069295047.115 60336517302683.69,49927239321630.115 33323135036189.69,47359472615423.015 10101287251385.79,3209828326506.905 23958855698091.89,4185009592978.805 84419509199408.89,1471170773541.805 44520889275524.99,7134799607304.705 4823662877250.001,1114102021456.605 73267386057686.001,40868848544698.505 85706068736723.101,3565515705031.505 26508003295579.101,34496049221653.405 36287906177036.201,1155667301375.305 86355427833392.301,235362552187.205 34949651264369.301,52944930673089.105 63278052613146.401,1870237752071.105 66565454180723.501,6167386486053.005 74959806449020.601,2308695334125.994 33442352990327.601,6762861372286.894 58529849547334.701,40796207369238.794 70517326290351.801,6911107652379.694 72137639453188.801,40885424498201.694 59126666657816.901,5823034906122.594 87643421035563.011,45314870421923.494 96135295619121.111,72086600051524.394 12274397661888.111,59904175783905.294 73550883145466.211,5450152525185.194 38780805113154.311,70040010932146.094 33747423957842.411,2893916191886.984 55141656871750.511,8856039130227.884 9742716578678.511,6290990493247.784 69038513961807.611,6500257698847.684 47792895293155.711,2053790241147.584 35358948298604.811,50244769417817.484 44177358230572.911,820297181186.384 74690517191651.021,8643494980826.284 72966458567050.121,50051303469855.184 87399970071959.121,70488274013374.084 80981047838188.221,4283309806073.974 31570379622918.321,44544946513052.874 56453350218177.421,52995903068111.774 76888158490047.521,380282446459.574 65532714106427.621,2717478830877.474 52459196488527.721,68117352383185.374 1396773625447.821,71856412289363.274 7318469831187.921,9978657301521.174 37282449763638.031,5359934679368.964 49138122498019.131,42294894687975.864 77799657634500.331,271886476172.764 1556254557021.431,54683238237839.564 2921423456752.531,50177430000085.464 5099089489614.631,4430815854491.364 23792954056995.731,63069340920187.164 82884744906608.831,7159268565833.064 89364559088830.041,6709331158568.854 47238384945792.141,68443647885163.754 39420957077385.241,41732664793428.554 3472011877898.341,79347413308252.454 44156675988342.541,66934470132546.254 2697648515026.641,61463008499999.054 5042151961030.841,56316291782513.944 40848742374474.941,37125266761985.744 35496566471559.051,55158498845918.544 36636204551474.251,64256276181400.444 53301803744330.451,3070886736041.244 76938624842536.551,4085900092622.044 58544336149182.751,44144118092852.834 89451459511679.851,6965198545332.634 84917450195027.061,1925504586841.434 83688574544815.261,5596121030000.234 17284623940373.461,6130943255387.924 60302603201882.661,4912594038494.724 43379531876762.861,53759669599821.524 9289637672613.071,3356908076086.224 8818838588834.271,8091870498341.024 38103831450146.471,78891304430215.714 1723907879829.671,41236525586777.414 69464031016903.971,4764656045239.114 79296228977097.181,31585292042769.804 75483774553183.481,72863164681178.504 79470553234190.781,41843590413236.204 5179178075239.981,68943780708632.993 35187006490819.291,51261341247866.593 9580311864360.691,68228312736909.193 72706397187683.991,6344380278739.783 77462161283909.202,52286850539727.383 6133764307656.602,2925701924942.973 82725199283956.012,70664449837564.473 5072537487459.412,212130012233.963 2705842521985.912,9614459706397.363 36860528115026.422,51796114784087.753 51504844704321.032,8779650658302.153 86991326014591.632,63609477170749.343 9425676859769.242,4886039050358.533 167860040426.052,38305899990307.623 49135492562924.952,2357540287971.613 59914075097.962,68280748857697.303 74213132855873.282,68930292875257.882 4938892128914.892,35157476213185.962 4982061542655.023,53334695685521.342 42392720916294.653,67547043732771.002 5724368924614.564,0.07" fill="#eeeeee" stroke="none"/>
<line x1="70.0" y1="450.0" x2="560.0" y2="40.0" stroke="#333" stroke-width="1.5"/>
<line x1="-62.77586144192492" y1="40" x2="-62.77586144192492" y2="450" stroke="#ddd"/>
<line x1="70" y1="561.0981697779372" x2="560" y2="561.0981697779372" stroke="#ddd"/>
<text x="-62.77586144192492" y="468" text-anchor="middle">0.010</text>
<text x="60" y="565.0981697779372" text-anchor="end">0.010</text>
<line x1="98.9230298598073" y1="40" x2="98.9230298598073" y2="450" stroke="#ddd"/>
<line x1="70" y1="425.79909746424283" x2="560" y2="425.79909746424283" stroke="#ddd"/>
<text x="98.9230298598073" y="468" text-anchor="middle">0.10</text>
<text x="60" y="429.79909746424283" text-anchor="end">0.10</text>
<line x1="260.6219211615395" y1="40" x2="260.6219211615395" y2="450" stroke="#ddd"/>
<line x1="70" y1="290.5000251505486" x2="560" y2="290.5000251505486" stroke="#ddd"/>
<text x="260.6219211615395" y="468" text-anchor="middle">1.0</text>
<text x="60" y="294.5000251505486" text-anchor="end">1.0</text>
<line x1="422.3208124632717" y1="40" x2="422.3208124632717" y2="450" stroke="#ddd"/>
<line x1="70" y1="155.20095283685427" x2="560" y2="155.20095283685427" stroke="#ddd"/>
<text x="422.3208124632717" y="468" text-anchor="middle">10.0</text>
<text x="60" y="159.20095283685427" text-anchor="end">10.0</text>
<circle cx="76.32341803327222" cy="449.8029833183254" r="2.5" fill="#1f77b4" opacity="0.6"/>
<circle cx="138.88438865976917" cy="395.55047053544195" r="2.5" fill="#1f77b4" opacity="0.6"/>
<circle cx="215.53015675718538" cy="361.088551344958" r="2.5" fill="#1f77b4" opacity="0.6"/>
<circle cx="110.78642303383349" cy="430.67813597891734" r="2.5" fill="#1f77b4" opacity="0.6"/>
<circle cx="138.88438865976917" cy="410.9713970795848" r="2.5" fill="#1f77b4" opacity="0.6"/>
<circle cx="87.48213152178465" cy="444.0151435725522" r="2.5" fill="#1f77b4" opacity="0.6"/>
<circle cx="76.32341803327222" cy="448.5158126535211" r="2.5" fill="#1f77b4" opacity="0.6"/>
<circle cx="138.88438865976917" cy="410.60728919386344" r="2.5" fill="#ff7f0e" opacity="0.6"/>
<circle cx="174.45499425484178" cy="389.2382863234957" r="2.5" fill="#ff7f0e" opacity="0.6"/>
<circle cx="174.45499425484178" cy="390.0615335471226" r="2.5" fill="#ff7f0e" opacity="0.6"/>
<circle cx="87.48213152178465" cy="449.09994140940904" r="2.5" fill="#ff7f0e" opacity="0.6"/>
<circle cx="105.57287763215392" cy="428.88734277457786" r="2.5" fill="#ff7f0e" opacity="0.6"/>
<circle cx="215.53015675718538" cy="360.213699504143" r="2.5" fill="#ff7f0e" opacity="0.6"/>
<circle cx="138.88438865976917" cy="410.101297762459" r="2.5" fill="#ff7f0e" opacity="0.6"/>
<circle cx="131.86945551313977" cy="379.5123748939626" r="2.5" fill="#2ca02c" opacity="0.6"/>
<circle cx="125.61532556403547" cy="404.38585793201014" r="2.5" fill="#2ca02c" opacity="0.6"/>
<circle cx="158.16878208853134" cy="378.00098185965106" r="2.5" fill="#2ca02c" opacity="0.6"/>
<circle cx="110.78642303383349" cy="421.1204118641935" r="2.5" fill="#2ca02c" opacity="0.6"/>
<circle cx="90.95776327321298" cy="435.8875555929205" r="2.5" fill="#2ca02c" opacity="0.6"/>
<circle cx="174.45499425484178" cy="376.1385649739764" r="2.5" fill="#2ca02c" opacity="0.6"/>
<circle cx="101.08146866576033" cy="421.15515031593117" r="2.5" fill="#2ca02c" opacity="0.6"/>
<circle cx="105.57287763215392" cy="417.7135881901873" r="2.5" fill="#1f77b4" opacity="0.6"/>
<circle cx="138.88438865976917" cy="389.3089805487614" r="2.5" fill="#1f77b4" opacity="0.6"/>
<circle cx="84.60956673954865" cy="437.1284454102704" r="2.5" fill="#1f77b4" opacity="0.6"/>
<circle cx="125.61532556403547" cy="394.8689676209805" r="2.5" fill="#1f77b4" opacity="0.6"/>
<circle cx="125.61532556403547" cy="394.10748969935196" r="2.5" fill="#1f77b4" opacity="0.6"/>
<circle cx="158.16878208853134" cy="371.80419805137205" r="2.5" fill="#1f77b4" opacity="0.6"/>
<circle cx="131.86945551313977" cy="412.04768997729354" r="2.5" fill="#1f77b4" opacity="0.6"/>
<circle cx="131.86945551313977" cy="412.85673318585367" r="2.5" fill="#ff7f0e" opacity="0.6"/>
<circle cx="158.16878208853134" cy="371.7367275812901" r="2.5" fill="#ff7f0e" opacity="0.6"/>
<circle cx="240.41396813893408" cy="302.0280822621049" r="2.5" fill="#ff7f0e" opacity="0.6"/>
<circle cx="87.48213152178465" cy="438.0013581127528" r="2.5" fill="#ff7f0e" opacity="0.6"/>
<circle cx="197.1427430584887" cy="338.2426708796401" r="2.5" fill="#ff7f0e" opacity="0.6"/>
<circle cx="131.86945551313977" cy="412.73617222483887" r="2.5" fill="#ff7f0e" opacity="0.6"/>
<circle cx="158.16878208853134" cy="371.91682828209235" r="2.5" fill="#ff7f0e" opacity="0.6"/>
<circle cx="105.57287763215392" cy="415.0076550422768" r="2.5" fill="#2ca02c" opacity="0.6"/>
<circle cx="158.16878208853134" cy="361.2638426005381" r="2.5" fill="#2ca02c" opacity="0.6"/>
<circle cx="84.60956673954865" cy="435.06727834524247" r="2.5" fill="#2ca02c" opacity="0.6"/>
<circle cx="158.16878208853134" cy="363.91857510764567" r="2.5" fill="#2ca02c" opacity="0.6"/>
<circle cx="84.60956673954865" cy="438.4893767945063" r="2.5" fill="#2ca02c" opacity="0.6"/>
<circle cx="131.86945551313977" cy="391.3969226953142" r="2.5" fill="#2ca02c" opacity="0.6"/>
<circle cx="158.16878208853134" cy="378.82362871169437" r="2.5" fill="#2ca02c" opacity="0.6"/>
<circle cx="301.69249621346523" cy="253.58101026175527" r="2.5" fill="#1f77b4" opacity="0.6"/>
<circle cx="101.08146866576033" cy="425.27495524709667" r="2.5" fill="#1f77b4" opacity="0.6"/>
<circle cx="255.3256203237408" cy="293.4279656815593" r="2.5" fill="#1f77b4" opacity="0.6"/>
<circle cx="301.69249621346523" cy="256.1607036787223" r="2.5" fill="#1f77b4" opacity="0.6"/>
<circle cx="135.53036100808436" cy="396.239975756225" r="2.5" fill="#1f77b4" opacity="0.6"/>
<circle cx="286.22323363902535" cy="264.01953920515547" r="2.5" fill="#1f77b4" opacity="0.6"/>
<circle cx="170.43061071947875" cy="358.9766120939333" r="2.5" fill="#1f77b4" opacity="0.6"/>
<circle cx="349.18492520851754" cy="207.05225033385446" r="2.5" fill="#ff7f0e" opacity="0.6"/>
<circle cx="211.05203103368797" cy="330.55606093028064" r="2.5" fill="#ff7f0e" opacity="0.6"/>
<circle cx="255.3256203237408" cy="294.2098597381356" r="2.5" fill="#ff7f0e" opacity="0.6"/>
<circle cx="135.53036100808436" cy="396.0696703506299" r="2.5" fill="#ff7f0e" opacity="0.6"/>
<circle cx="197.1427430584887" cy="339.3807613772978" r="2.5" fill="#ff7f0e" opacity="0.6"/>
<circle cx="286.22323363902535" cy="264.03392221421825" r="2.5" fill="#ff7f0e" opacity="0.6"/>
<circle cx="125.61532556403547" cy="396.3310008216548" r="2.5" fill="#ff7f0e" opacity="0.6"/>
<circle cx="333.4208540138829" cy="225.45724179172964" r="2.5" fill="#2ca02c" opacity="0.6"/>
<circle cx="125.61532556403547" cy="401.17109471532126" r="2.5" fill="#2ca02c" opacity="0.6"/>
<circle cx="197.1427430584887" cy="350.03259558788125" r="2.5" fill="#2ca02c" opacity="0.6"/>
<circle cx="240.41396813893408" cy="312.8910523684171" r="2.5" fill="#2ca02c" opacity="0.6"/>
<circle cx="197.1427430584887" cy="348.4386025910604" r="2.5" fill="#2ca02c" opacity="0.6"/>
<circle cx="101.08146866576033" cy="423.1160462794203" r="2.5" fill="#2ca02c" opacity="0.6"/>
<circle cx="197.1427430584887" cy="338.85176075047553" r="2.5" fill="#2ca02c" opacity="0.6"/>
<circle cx="445.6362352780005" cy="126.79494605965404" r="2.5" fill="#1f77b4" opacity="0.6"/>
<circle cx="301.69249621346523" cy="254.69495127276434" r="2.5" fill="#1f77b4" opacity="0.6"/>
<circle cx="255.3256203237408" cy="295.24845125677723" r="2.5" fill="#1f77b4" opacity="0.6"/>
<circle cx="240.41396813893408" cy="310.1249085592481" r="2.5" fill="#1f77b4" opacity="0.6"/>
<circle cx="301.69249621346523" cy="262.6060859522862" r="2.5" fill="#1f77b4" opacity="0.6"/>
<circle cx="333.4208540138829" cy="227.85377524218592" r="2.5" fill="#1f77b4" opacity="0.6"/>
<circle cx="255.3256203237408" cy="302.28258879534746" r="2.5" fill="#1f77b4" opacity="0.6"/>
<circle cx="381.34593167253814" cy="184.73530888902275" r="2.5" fill="#ff7f0e" opacity="0.6"/>
<circle cx="197.1427430584887" cy="332.15011378133806" r="2.5" fill="#ff7f0e" opacity="0.6"/>
<circle cx="197.1427430584887" cy="345.60484255357375" r="2.5" fill="#ff7f0e" opacity="0.6"/>
<circle cx="445.6362352780005" cy="125.14851560597687" r="2.5" fill="#ff7f0e" opacity="0.6"/>
<circle cx="429.64354426210224" cy="144.78564507276133" r="2.5" fill="#ff7f0e" opacity="0.6"/>
<circle cx="301.69249621346523" cy="260.86817949165777" r="2.5" fill="#ff7f0e" opacity="0.6"/>
<circle cx="170.43061071947875" cy="372.8715550984006" r="2.5" fill="#ff7f0e" opacity="0.6"/>
<circle cx="286.22323363902535" cy="277.81771520421387" r="2.5" fill="#2ca02c" opacity="0.6"/>
<circle cx="240.41396813893408" cy="315.56297862256184" r="2.5" fill="#2ca02c" opacity="0.6"/>
<circle cx="197.1427430584887" cy="342.6680015998409" r="2.5" fill="#2ca02c" opacity="0.6"/>
<circle cx="333.4208540138829" cy="218.36345933738406" r="2.5" fill="#2ca02c" opacity="0.6"/>
<circle cx="240.41396813893408" cy="310.37225829483367" r="2.5" fill="#2ca02c" opacity="0.6"/>
<circle cx="333.4208540138829" cy="238.56627604791174" r="2.5" fill="#2ca02c" opacity="0.6"/>
<circle cx="333.4208540138829" cy="232.55484224235002" r="2.5" fill="#2ca02c" opacity="0.6"/>
<circle cx="286.22323363902535" cy="275.0995056421182" r="2.5" fill="#1f77b4" opacity="0.6"/>
<circle cx="381.34593167253814" cy="184.86786879889527" r="2.5" fill="#1f77b4" opacity="0.6"/>
<circle cx="429.64354426210224" cy="153.5110251118" r="2.5" fill="#1f77b4" opacity="0.6"/>
<circle cx="301.69249621346523" cy="255.00450803434128" r="2.5" fill="#1f77b4" opacity="0.6"/>
<circle cx="349.18492520851754" cy="209.92278076452325" r="2.5" fill="#1f77b4" opacity="0.6"/>
<circle cx="301.69249621346523" cy="266.53856618805537" r="2.5" fill="#1f77b4" opacity="0.6"/>
<circle cx="494.1611340126904" cy="97.72624207625529" r="2.5" fill="#1f77b4" opacity="0.6"/>
<circle cx="429.64354426210224" cy="151.2935781352612" r="2.5" fill="#ff7f0e" opacity="0.6"/>
<circle cx="240.41396813893408" cy="312.9323535417494" r="2.5" fill="#ff7f0e" opacity="0.6"/>
<circle cx="445.6362352780005" cy="126.95657454367822" r="2.5" fill="#ff7f0e" opacity="0.6"/>
<circle cx="333.4208540138829" cy="234.8819176989934" r="2.5" fill="#ff7f0e" opacity="0.6"/>
<circle cx="333.4208540138829" cy="234.99951926796265" r="2.5" fill="#ff7f0e" opacity="0.6"/>
<circle cx="349.18492520851754" cy="220.20443254356115" r="2.5" fill="#ff7f0e" opacity="0.6"/>
<circle cx="255.3256203237408" cy="304.12174780965483" r="2.5" fill="#ff7f0e" opacity="0.6"/>
<circle cx="429.64354426210224" cy="155.3357375433123" r="2.5" fill="#2ca02c" opacity="0.6"/>
<circle cx="286.22323363902535" cy="278.0728348833667" r="2.5" fill="#2ca02c" opacity="0.6"/>
<circle cx="429.64354426210224" cy="158.60873212802795" r="2.5" fill="#2ca02c" opacity="0.6"/>
<circle cx="429.64354426210224" cy="155.06516273872623" r="2.5" fill="#2ca02c" opacity="0.6"/>
<circle cx="381.34593167253814" cy="190.66185111177379" r="2.5" fill="#2ca02c" opacity="0.6"/>
<circle cx="381.34593167253814" cy="193.08445363039814" r="2.5" fill="#2ca02c" opacity="0.6"/>
<circle cx="478.1296906308787" cy="112.22090738156957" r="2.5" fill="#2ca02c" opacity="0.6"/>
<circle cx="78.4518539473833" cy="444.3493738165272" r="2.5" fill="#1f77b4" opacity="0.6"/>
<circle cx="174.45499425484178" cy="370.1328491425681" r="2.5" fill="#1f77b4" opacity="0.6"/>
<circle cx="70.0" cy="436.4258144736752" r="2.5" fill="#1f77b4" opacity="0.6"/>
<circle cx="90.95776327321298" cy="444.78932647259876" r="2.5" fill="#1f77b4" opacity="0.6"/>
<circle cx="110.78642303383349" cy="418.0422248865013" r="2.5" fill="#1f77b4" opacity="0.6"/>
<circle cx="174.45499425484178" cy="389.12737298569346" r="2.5" fill="#1f77b4" opacity="0.6"/>
<circle cx="131.86945551313977" cy="424.4422609077389" r="2.5" fill="#1f77b4" opacity="0.6"/>
<circle cx="138.88438865976917" cy="403.9434697353022" r="2.5" fill="#1f77b4" opacity="0.6"/>
<circle cx="105.57287763215392" cy="429.74574776290143" r="2.5" fill="#1f77b4" opacity="0.6"/>
<circle cx="105.57287763215392" cy="442.34701501983693" r="2.5" fill="#1f77b4" opacity="0.6"/>
<circle cx="174.45499425484178" cy="390.1844840783446" r="2.5" fill="#1f77b4" opacity="0.6"/>
<circle cx="138.88438865976917" cy="379.52093065038844" r="2.5" fill="#1f77b4" opacity="0.6"/>
<circle cx="105.57287763215392" cy="441.92490975047787" r="2.5" fill="#1f77b4" opacity="0.6"/>
<circle cx="110.78642303383349" cy="432.7364421926976" r="2.5" fill="#1f77b4" opacity="0.6"/>
<circle cx="87.48213152178465" cy="444.97144777022623" r="2.5" fill="#1f77b4" opacity="0.6"/>
<circle cx="72.60365930883293" cy="445.02358627379647" r="2.5" fill="#1f77b4" opacity="0.6"/>
<circle cx="138.88438865976917" cy="398.4645765085715" r="2.5" fill="#1f77b4" opacity="0.6"/>
<circle cx="105.57287763215392" cy="430.29122485935363" r="2.5" fill="#1f77b4" opacity="0.6"/>
<circle cx="78.4518539473833" cy="447.3104480255762" r="2.5" fill="#1f77b4" opacity="0.6"/>
<circle cx="87.48213152178465" cy="444.3493738165272" r="2.5" fill="#1f77b4" opacity="0.6"/>
<circle cx="138.88438865976917" cy="410.2165701683564" r="2.5" fill="#1f77b4" opacity="0.6"/>
<circle cx="90.95776327321298" cy="435.8652345717774" r="2.5" fill="#1f77b4" opacity="0.6"/>
<circle cx="105.57287763215392" cy="441.48124925923463" r="2.5" fill="#ff7f0e" opacity="0.6"/>
<circle cx="131.86945551313977" cy="406.635625654016" r="2.5" fill="#ff7f0e" opacity="0.6"/>
<circle cx="110.78642303383349" cy="417.72997644491477" r="2.5" fill="#ff7f0e" opacity="0.6"/>
<circle cx="105.57287763215392" cy="441.4566994003633" r="2.5" fill="#ff7f0e" opacity="0.6"/>
<circle cx="87.48213152178465" cy="443.8104043848876" r="2.5" fill="#ff7f0e" opacity="0.6"/>
<circle cx="90.95776327321298" cy="444.58187669917135" r="2.5" fill="#ff7f0e" opacity="0.6"/>
<circle cx="70.0" cy="445.02358627379647" r="2.5" fill="#ff7f0e" opacity="0.6"/>
<circle cx="138.88438865976917" cy="402.87729695206707" r="2.5" fill="#ff7f0e" opacity="0.6"/>
<circle cx="174.45499425484178" cy="370.0818275385431" r="2.5" fill="#ff7f0e" opacity="0.6"/>
<circle cx="138.88438865976917" cy="397.8887888274268" r="2.5" fill="#ff7f0e" opacity="0.6"/>
<circle cx="131.86945551313977" cy="407.95303574219633" r="2.5" fill="#ff7f0e" opacity="0.6"/>
<circle cx="76.32341803327222" cy="449.3520643729613" r="2.5" fill="#ff7f0e" opacity="0.6"/>
<circle cx="131.86945551313977" cy="425.4990168657316" r="2.5" fill="#ff7f0e" opacity="0.6"/>
<circle cx="131.86945551313977" cy="424.5894328769558" r="2.5" fill="#ff7f0e" opacity="0.6"/>
<circle cx="110.78642303383349" cy="418.43902674737876" r="2.5" fill="#ff7f0e" opacity="0.6"/>
<circle cx="138.88438865976917" cy="379.6408142896794" r="2.5" fill="#ff7f0e" opacity="0.6"/>
<circle cx="90.95776327321298" cy="436.40328808416416" r="2.5" fill="#ff7f0e" opacity="0.6"/>
<circle cx="138.88438865976917" cy="403.71060249795437" r="2.5" fill="#ff7f0e" opacity="0.6"/>
<circle cx="174.45499425484178" cy="374.8920548389585" r="2.5" fill="#ff7f0e" opacity="0.6"/>
<circle cx="78.4518539473833" cy="442.671864305855" r="2.5" fill="#ff7f0e" opacity="0.6"/>
<circle cx="90.95776327321298" cy="435.55363249238314" r="2.5" fill="#ff7f0e" opacity="0.6"/>
<circle cx="110.78642303383349" cy="429.6854500769926" r="2.5" fill="#ff7f0e" opacity="0.6"/>
<circle cx="87.48213152178465" cy="440.26616170488035" r="2.5" fill="#2ca02c" opacity="0.6"/>
<circle cx="78.4518539473833" cy="444.40095700457795" r="2.5" fill="#2ca02c" opacity="0.6"/>
<circle cx="71.25062697100293" cy="446.1558894827793" r="2.5" fill="#2ca02c" opacity="0.6"/>
<circle cx="76.32341803327222" cy="448.46048300258434" r="2.5" fill="#2ca02c" opacity="0.6"/>
<circle cx="70.0" cy="444.7373953265919" r="2.5" fill="#2ca02c" opacity="0.6"/>
<circle cx="138.88438865976917" cy="377.2637329026198" r="2.5" fill="#2ca02c" opacity="0.6"/>
<circle cx="84.60956673954865" cy="437.6092436719969" r="2.5" fill="#2ca02c" opacity="0.6"/>
<circle cx="105.57287763215392" cy="408.06416596320685" r="2.5" fill="#2ca02c" opacity="0.6"/>
<circle cx="72.60365930883293" cy="442.42182099753876" r="2.5" fill="#2ca02c" opacity="0.6"/>
<circle cx="76.50063936615099" cy="441.40763043210484" r="2.5" fill="#2ca02c" opacity="0.6"/>
<circle cx="138.88438865976917" cy="402.0305493736469" r="2.5" fill="#2ca02c" opacity="0.6"/>
<circle cx="70.09701529868805" cy="447.6367363980287" r="2.5" fill="#2ca02c" opacity="0.6"/>
<circle cx="87.48213152178465" cy="427.57433216154715" r="2.5" fill="#2ca02c" opacity="0.6"/>
<circle cx="101.08146866576033" cy="422.15392126126983" r="2.5" fill="#2ca02c" opacity="0.6"/>
<circle cx="125.61532556403547" cy="405.25424329130107" r="2.5" fill="#2ca02c" opacity="0.6"/>
<circle cx="87.48213152178465" cy="440.62805470893204" r="2.5" fill="#2ca02c" opacity="0.6"/>
<circle cx="76.32341803327222" cy="441.8507333178924" r="2.5" fill="#2ca02c" opacity="0.6"/>
<circle cx="90.95776327321298" cy="435.2878495025321" r="2.5" fill="#2ca02c" opacity="0.6"/>
<circle cx="105.57287763215392" cy="425.27495524709667" r="2.5" fill="#2ca02c" opacity="0.6"/>
<circle cx="105.57287763215392" cy="425.79909658865597" r="2.5" fill="#2ca02c" opacity="0.6"/>
<circle cx="138.88438865976917" cy="401.55567311727884" r="2.5" fill="#2ca02c" opacity="0.6"/>
<circle cx="110.78642303383349" cy="421.4687199648131" r="2.5" fill="#2ca02c" opacity="0.6"/>
<circle cx="90.95776327321298" cy="434.0848380007804" r="2.5" fill="#1f77b4" opacity="0.6"/>
<circle cx="174.45499425484178" cy="358.4303949357858" r="2.5" fill="#1f77b4" opacity="0.6"/>
<circle cx="138.88438865976917" cy="388.53601081295517" r="2.5" fill="#1f77b4" opacity="0.6"/>
<circle cx="105.57287763215392" cy="418.65508340597796" r="2.5" fill="#1f77b4" opacity="0.6"/>
<circle cx="110.78642303383349" cy="413.8302522672103" r="2.5" fill="#1f77b4" opacity="0.6"/>
<circle cx="197.1427430584887" cy="328.9028143738454" r="2.5" fill="#1f77b4" opacity="0.6"/>
<circle cx="240.41396813893408" cy="302.1930422590852" r="2.5" fill="#1f77b4" opacity="0.6"/>
<circle cx="174.45499425484178" cy="358.3885890762185" r="2.5" fill="#1f77b4" opacity="0.6"/>
<circle cx="197.1427430584887" cy="338.0776450466329" r="2.5" fill="#1f77b4" opacity="0.6"/>
<circle cx="174.45499425484178" cy="363.3441551049149" r="2.5" fill="#1f77b4" opacity="0.6"/>
<circle cx="174.45499425484178" cy="362.58262789981217" r="2.5" fill="#1f77b4" opacity="0.6"/>
<circle cx="131.86945551313977" cy="412.96243040283554" r="2.5" fill="#1f77b4" opacity="0.6"/>
<circle cx="138.88438865976917" cy="387.38063170975227" r="2.5" fill="#1f77b4" opacity="0.6"/>
<circle cx="101.08146866576033" cy="418.5054223350284" r="2.5" fill="#1f77b4" opacity="0.6"/>
<circle cx="87.48213152178465" cy="437.0145471655981" r="2.5" fill="#1f77b4" opacity="0.6"/>
<circle cx="76.32341803327222" cy="440.84626860870753" r="2.5" fill="#1f77b4" opacity="0.6"/>
<circle cx="197.1427430584887" cy="338.263862709442" r="2.5" fill="#1f77b4" opacity="0.6"/>
<circle cx="138.88438865976917" cy="387.6452487392898" r="2.5" fill="#1f77b4" opacity="0.6"/>
<circle cx="158.16878208853134" cy="363.31169012167635" r="2.5" fill="#1f77b4" opacity="0.6"/>
<circle cx="158.16878208853134" cy="372.19558217335117" r="2.5" fill="#1f77b4" opacity="0.6"/>
<circle cx="158.16878208853134" cy="363.1819911639354" r="2.5" fill="#1f77b4" opacity="0.6"/>
<circle cx="215.53015675718538" cy="328.5065482148847" r="2.5" fill="#1f77b4" opacity="0.6"/>
<circle cx="131.86945551313977" cy="393.377413571495" r="2.5" fill="#ff7f0e" opacity="0.6"/>
<circle cx="105.57287763215392" cy="418.8385264263705" r="2.5" fill="#ff7f0e" opacity="0.6"/>
<circle cx="215.53015675718538" cy="327.8212083582523" r="2.5" fill="#ff7f0e" opacity="0.6"/>
<circle cx="87.48213152178465" cy="440.26616170488035" r="2.5" fill="#ff7f0e" opacity="0.6"/>
<circle cx="174.45499425484178" cy="362.83967157028167" r="2.5" fill="#ff7f0e" opacity="0.6"/>
<circle cx="125.61532556403547" cy="395.0692431858772" r="2.5" fill="#ff7f0e" opacity="0.6"/>
<circle cx="131.86945551313977" cy="393.29084252233463" r="2.5" fill="#ff7f0e" opacity="0.6"/>
<circle cx="158.16878208853134" cy="363.1043089825335" r="2.5" fill="#ff7f0e" opacity="0.6"/>
<circle cx="90.95776327321298" cy="433.3746776429134" r="2.5" fill="#ff7f0e" opacity="0.6"/>
<circle cx="138.88438865976917" cy="387.3904089265325" r="2.5" fill="#ff7f0e" opacity="0.6"/>
<circle cx="105.57287763215392" cy="417.77916865138246" r="2.5" fill="#ff7f0e" opacity="0.6"/>
<circle cx="125.61532556403547" cy="394.80235878302466" r="2.5" fill="#ff7f0e" opacity="0.6"/>
<circle cx="138.88438865976917" cy="389.34941412340754" r="2.5" fill="#ff7f0e" opacity="0.6"/>
<circle cx="158.16878208853134" cy="363.1690339840018" r="2.5" fill="#ff7f0e" opacity="0.6"/>
<circle cx="101.08146866576033" cy="418.22375776187823" r="2.5" fill="#ff7f0e" opacity="0.6"/>
<circle cx="174.45499425484178" cy="358.37664682935764" r="2.5" fill="#ff7f0e" opacity="0.6"/>
<circle cx="110.78642303383349" cy="414.2922014297361" r="2.5" fill="#ff7f0e" opacity="0.6"/>
<circle cx="76.32341803327222" cy="442.5467096488221" r="2.5" fill="#ff7f0e" opacity="0.6"/>
<circle cx="174.45499425484178" cy="358.0255264499759" r="2.5" fill="#ff7f0e" opacity="0.6"/>
<circle cx="84.60956673954865" cy="437.70126666267174" r="2.5" fill="#ff7f0e" opacity="0.6"/>
<circle cx="260.07326176109945" cy="289.6803151261624" r="2.5" fill="#ff7f0e" opacity="0.6"/>
<circle cx="138.88438865976917" cy="387.5569075438859" r="2.5" fill="#ff7f0e" opacity="0.6"/>
<circle cx="105.57287763215392" cy="414.66439642392106" r="2.5" fill="#2ca02c" opacity="0.6"/>
<circle cx="197.1427430584887" cy="327.64050474540545" r="2.5" fill="#2ca02c" opacity="0.6"/>
<circle cx="197.1427430584887" cy="349.23019653449666" r="2.5" fill="#2ca02c" opacity="0.6"/>
<circle cx="125.61532556403547" cy="401.78013311337656" r="2.5" fill="#2ca02c" opacity="0.6"/>
<circle cx="240.41396813893408" cy="312.73711492270974" r="2.5" fill="#2ca02c" opacity="0.6"/>
<circle cx="158.16878208853134" cy="378.55374228037596" r="2.5" fill="#2ca02c" opacity="0.6"/>
<circle cx="101.08146866576033" cy="417.01319003689906" r="2.5" fill="#2ca02c" opacity="0.6"/>
<circle cx="125.61532556403547" cy="393.4858070531333" r="2.5" fill="#2ca02c" opacity="0.6"/>
<circle cx="197.1427430584887" cy="347.5283576393455" r="2.5" fill="#2ca02c" opacity="0.6"/>
<circle cx="125.61532556403547" cy="402.48399980063726" r="2.5" fill="#2ca02c" opacity="0.6"/>
<circle cx="101.08146866576033" cy="422.0127134108793" r="2.5" fill="#2ca02c" opacity="0.6"/>
<circle cx="158.16878208853134" cy="363.8333617700857" r="2.5" fill="#2ca02c" opacity="0.6"/>
<circle cx="101.08146866576033" cy="423.7663294308651" r="2.5" fill="#2ca02c" opacity="0.6"/>
<circle cx="158.16878208853134" cy="380.63493020458446" r="2.5" fill="#2ca02c" opacity="0.6"/>
<circle cx="197.1427430584887" cy="347.66250632281344" r="2.5" fill="#2ca02c" opacity="0.6"/>
<circle cx="158.16878208853134" cy="380.5739371044306" r="2.5" fill="#2ca02c" opacity="0.6"/>
<circle cx="158.16878208853134" cy="361.427079692311" r="2.5" fill="#2ca02c" opacity="0.6"/>
<circle cx="84.60956673954865" cy="437.44854006467085" r="2.5" fill="#2ca02c" opacity="0.6"/>
<circle cx="131.86945551313977" cy="390.9276344964981" r="2.5" fill="#2ca02c" opacity="0.6"/>
<circle cx="197.1427430584887" cy="330.1485194443551" r="2.5" fill="#2ca02c" opacity="0.6"/>
<circle cx="101.08146866576033" cy="415.4789915207727" r="2.5" fill="#2ca02c" opacity="0.6"/>
<circle cx="240.41396813893408" cy="313.9408048473788" r="2.5" fill="#2ca02c" opacity="0.6"/>
<circle cx="197.1427430584887" cy="339.3894045785197" r="2.5" fill="#1f77b4" opacity="0.6"/>
<circle cx="158.16878208853134" cy="365.9812298900708" r="2.5" fill="#1f77b4" opacity="0.6"/>
<circle cx="240.41396813893408" cy="303.482729479637" r="2.5" fill="#1f77b4" opacity="0.6"/>
<circle cx="211.05203103368797" cy="331.3684105658852" r="2.5" fill="#1f77b4" opacity="0.6"/>
<circle cx="240.41396813893408" cy="302.7323799485429" r="2.5" fill="#1f77b4" opacity="0.6"/>
<circle cx="125.61532556403547" cy="396.26271483409397" r="2.5" fill="#1f77b4" opacity="0.6"/>
<circle cx="125.61532556403547" cy="401.95531237590984" r="2.5" fill="#1f77b4" opacity="0.6"/>
<circle cx="286.22323363902535" cy="264.13947849107365" r="2.5" fill="#1f77b4" opacity="0.6"/>
<circle cx="170.43061071947875" cy="367.27254858541914" r="2.5" fill="#1f77b4" opacity="0.6"/>
<circle cx="170.43061071947875" cy="368.0133459556958" r="2.5" fill="#1f77b4" opacity="0.6"/>
<circle cx="197.1427430584887" cy="339.86663567406805" r="2.5" fill="#1f77b4" opacity="0.6"/>
<circle cx="349.18492520851754" cy="210.9878942106246" r="2.5" fill="#1f77b4" opacity="0.6"/>
<circle cx="301.69249621346523" cy="253.6291808526202" r="2.5" fill="#1f77b4" opacity="0.6"/>
<circle cx="211.05203103368797" cy="334.2460484323872" r="2.5" fill="#1f77b4" opacity="0.6"/>
<circle cx="240.41396813893408" cy="303.4124153410071" r="2.5" fill="#1f77b4" opacity="0.6"/>
<circle cx="211.05203103368797" cy="330.9964073907258" r="2.5" fill="#1f77b4" opacity="0.6"/>
<circle cx="135.53036100808436" cy="390.80312075586215" r="2.5" fill="#1f77b4" opacity="0.6"/>
<circle cx="108.25352254490761" cy="421.24208235077634" r="2.5" fill="#1f77b4" opacity="0.6"/>
<circle cx="197.1427430584887" cy="339.7317510131802" r="2.5" fill="#1f77b4" opacity="0.6"/>
<circle cx="158.16878208853134" cy="372.15783384285925" r="2.5" fill="#1f77b4" opacity="0.6"/>
<circle cx="255.3256203237408" cy="295.7932250062951" r="2.5" fill="#1f77b4" opacity="0.6"/>
<circle cx="286.22323363902535" cy="263.76965811936907" r="2.5" fill="#1f77b4" opacity="0.6"/>
<circle cx="240.41396813893408" cy="303.4381894602124" r="2.5" fill="#ff7f0e" opacity="0.6"/>
<circle cx="158.16878208853134" cy="372.1502891942097" r="2.5" fill="#ff7f0e" opacity="0.6"/>
<circle cx="333.4208540138829" cy="224.55483587488777" r="2.5" fill="#ff7f0e" opacity="0.6"/>
<circle cx="170.43061071947875" cy="358.9223622587074" r="2.5" fill="#ff7f0e" opacity="0.6"/>
<circle cx="211.05203103368797" cy="330.2150169310861" r="2.5" fill="#ff7f0e" opacity="0.6"/>
<circle cx="101.08146866576033" cy="425.18184781661705" r="2.5" fill="#ff7f0e" opacity="0.6"/>
<circle cx="197.1427430584887" cy="338.847478352744" r="2.5" fill="#ff7f0e" opacity="0.6"/>
<circle cx="135.53036100808436" cy="390.1742307565305" r="2.5" fill="#ff7f0e" opacity="0.6"/>
<circle cx="211.05203103368797" cy="332.7761009310683" r="2.5" fill="#ff7f0e" opacity="0.6"/>
<circle cx="240.41396813893408" cy="302.3032734332504" r="2.5" fill="#ff7f0e" opacity="0.6"/>
<circle cx="240.41396813893408" cy="302.6537050394487" r="2.5" fill="#ff7f0e" opacity="0.6"/>
<circle cx="255.3256203237408" cy="294.0698270316509" r="2.5" fill="#ff7f0e" opacity="0.6"/>
<circle cx="301.69249621346523" cy="251.23209857896416" r="2.5" fill="#ff7f0e" opacity="0.6"/>
<circle cx="197.1427430584887" cy="339.3634828103706" r="2.5" fill="#ff7f0e" opacity="0.6"/>
<circle cx="240.41396813893408" cy="303.2043110190928" r="2.5" fill="#ff7f0e" opacity="0.6"/>
<circle cx="211.05203103368797" cy="332.57952160406813" r="2.5" fill="#ff7f0e" opacity="0.6"/>
<circle cx="158.16878208853134" cy="365.8387301950224" r="2.5" fill="#ff7f0e" opacity="0.6"/>
<circle cx="255.3256203237408" cy="291.49557251493525" r="2.5" fill="#ff7f0e" opacity="0.6"/>
<circle cx="301.69249621346523" cy="253.58702709061293" r="2.5" fill="#ff7f0e" opacity="0.6"/>
<circle cx="197.1427430584887" cy="338.9803460549762" r="2.5" fill="#ff7f0e" opacity="0.6"/>
<circle cx="158.16878208853134" cy="372.1880291605531" r="2.5" fill="#ff7f0e" opacity="0.6"/>
<circle cx="301.69249621346523" cy="251.48516839110363" r="2.5" fill="#ff7f0e" opacity="0.6"/>
<circle cx="286.22323363902535" cy="277.2267048094616" r="2.5" fill="#2ca02c" opacity="0.6"/>
<circle cx="158.16878208853134" cy="375.5439722998851" r="2.5" fill="#2ca02c" opacity="0.6"/>
<circle cx="240.41396813893408" cy="315.07532045124645" r="2.5" fill="#2ca02c" opacity="0.6"/>
<circle cx="240.41396813893408" cy="303.906394882456" r="2.5" fill="#2ca02c" opacity="0.6"/>
<circle cx="158.16878208853134" cy="374.32554013062213" r="2.5" fill="#2ca02c" opacity="0.6"/>
<circle cx="286.22323363902535" cy="277.20721019741075" r="2.5" fill="#2ca02c" opacity="0.6"/>
<circle cx="158.16878208853134" cy="372.9250514843817" r="2.5" fill="#2ca02c" opacity="0.6"/>
<circle cx="197.1427430584887" cy="348.36304751181854" r="2.5" fill="#2ca02c" opacity="0.6"/>
<circle cx="286.22323363902535" cy="257.87078662772785" r="2.5" fill="#2ca02c" opacity="0.6"/>
<circle cx="240.41396813893408" cy="299.3273506149763" r="2.5" fill="#2ca02c" opacity="0.6"/>
<circle cx="158.16878208853134" cy="371.25168839385896" r="2.5" fill="#2ca02c" opacity="0.6"/>
<circle cx="197.1427430584887" cy="339.03615572561705" r="2.5" fill="#2ca02c" opacity="0.6"/>
<circle cx="158.16878208853134" cy="373.2470638094587" r="2.5" fill="#2ca02c" opacity="0.6"/>
<circle cx="197.1427430584887" cy="350.06367977180224" r="2.5" fill="#2ca02c" opacity="0.6"/>
<circle cx="125.61532556403547" cy="399.225229959223" r="2.5" fill="#2ca02c" opacity="0.6"/>
<circle cx="240.41396813893408" cy="303.8780573416314" r="2.5" fill="#2ca02c" opacity="0.6"/>
<circle cx="333.4208540138829" cy="238.01106948391276" r="2.5" fill="#2ca02c" opacity="0.6"/>
<circle cx="125.61532556403547" cy="403.8527975472393" r="2.5" fill="#2ca02c" opacity="0.6"/>
<circle cx="286.22323363902535" cy="265.26188263670764" r="2.5" fill="#2ca02c" opacity="0.6"/>
<circle cx="197.1427430584887" cy="340.42248227914865" r="2.5" fill="#2ca02c" opacity="0.6"/>
<circle cx="286.22323363902535" cy="271.19829554241824" r="2.5" fill="#2ca02c" opacity="0.6"/>
<circle cx="240.41396813893408" cy="312.8635326636212" r="2.5" fill="#2ca02c" opacity="0.6"/>
<circle cx="255.3256203237408" cy="302.09675825640085" r="2.5" fill="#1f77b4" opacity="0.6"/>
<circle cx="429.64354426210224" cy="144.83763949520738" r="2.5" fill="#1f77b4" opacity="0.6"/>
<circle cx="286.22323363902535" cy="264.4754013722412" r="2.5" fill="#1f77b4" opacity="0.6"/>
<circle cx="301.69249621346523" cy="262.56983947945014" r="2.5" fill="#1f77b4" opacity="0.6"/>
<circle cx="397.2616796946877" cy="169.14647843657983" r="2.5" fill="#1f77b4" opacity="0.6"/>
<circle cx="349.18492520851754" cy="222.47363408579864" r="2.5" fill="#1f77b4" opacity="0.6"/>
<circle cx="286.22323363902535" cy="270.9982693865064" r="2.5" fill="#1f77b4" opacity="0.6"/>
<circle cx="397.2616796946877" cy="170.99419858906444" r="2.5" fill="#1f77b4" opacity="0.6"/>
<circle cx="197.1427430584887" cy="332.31460528342205" r="2.5" fill="#1f77b4" opacity="0.6"/>
<circle cx="240.41396813893408" cy="309.84199441107864" r="2.5" fill="#1f77b4" opacity="0.6"/>
<circle cx="397.2616796946877" cy="176.26685937254678" r="2.5" fill="#1f77b4" opacity="0.6"/>
<circle cx="240.41396813893408" cy="303.0202018257678" r="2.5" fill="#1f77b4" opacity="0.6"/>
<circle cx="381.34593167253814" cy="184.72070238271095" r="2.5" fill="#1f77b4" opacity="0.6"/>
<circle cx="381.34593167253814" cy="184.74991902713128" r="2.5" fill="#1f77b4" opacity="0.6"/>
<circle cx="301.69249621346523" cy="255.9138610077665" r="2.5" fill="#1f77b4" opacity="0.6"/>
<circle cx="349.18492520851754" cy="222.4954976714484" r="2.5" fill="#1f77b4" opacity="0.6"/>
<circle cx="170.43061071947875" cy="373.41644572851516" r="2.5" fill="#1f77b4" opacity="0.6"/>
<circle cx="286.22323363902535" cy="270.9537630048592" r="2.5" fill="#1f77b4" opacity="0.6"/>
<circle cx="197.1427430584887" cy="345.7491077314277" r="2.5" fill="#1f77b4" opacity="0.6"/>
<circle cx="381.34593167253814" cy="191.04715234160284" r="2.5" fill="#1f77b4" opacity="0.6"/>
<circle cx="333.4208540138829" cy="229.87183315067736" r="2.5" fill="#1f77b4" opacity="0.6"/>
<circle cx="158.16878208853134" cy="377.834498993745" r="2.5" fill="#1f77b4" opacity="0.6"/>
<circle cx="240.41396813893408" cy="310.0199657452986" r="2.5" fill="#ff7f0e" opacity="0.6"/>
<circle cx="240.41396813893408" cy="309.8315397003388" r="2.5" fill="#ff7f0e" opacity="0.6"/>
<circle cx="349.18492520851754" cy="211.19232833847394" r="2.5" fill="#ff7f0e" opacity="0.6"/>
<circle cx="381.34593167253814" cy="184.76826790957236" r="2.5" fill="#ff7f0e" opacity="0.6"/>
<circle cx="333.4208540138829" cy="231.21790814064067" r="2.5" fill="#ff7f0e" opacity="0.6"/>
<circle cx="381.34593167253814" cy="189.35319795207317" r="2.5" fill="#ff7f0e" opacity="0.6"/>
<circle cx="158.16878208853134" cy="377.61877791780745" r="2.5" fill="#ff7f0e" opacity="0.6"/>
<circle cx="255.3256203237408" cy="300.75616123616174" r="2.5" fill="#ff7f0e" opacity="0.6"/>
<circle cx="286.22323363902535" cy="271.17122842713707" r="2.5" fill="#ff7f0e" opacity="0.6"/>
<circle cx="349.18492520851754" cy="208.5084085462041" r="2.5" fill="#ff7f0e" opacity="0.6"/>
<circle cx="286.22323363902535" cy="264.46453468593165" r="2.5" fill="#ff7f0e" opacity="0.6"/>
<circle cx="397.2616796946877" cy="168.76959423893985" r="2.5" fill="#ff7f0e" opacity="0.6"/>
<circle cx="286.22323363902535" cy="264.3427324165683" r="2.5" fill="#ff7f0e" opacity="0.6"/>
<circle cx="240.41396813893408" cy="302.60285559264605" r="2.5" fill="#ff7f0e" opacity="0.6"/>
<circle cx="301.69249621346523" cy="260.7751340999305" r="2.5" fill="#ff7f0e" opacity="0.6"/>
<circle cx="255.3256203237408" cy="293.86836621176957" r="2.5" fill="#ff7f0e" opacity="0.6"/>
<circle cx="397.2616796946877" cy="173.9713112372471" r="2.5" fill="#ff7f0e" opacity="0.6"/>
<circle cx="301.69249621346523" cy="250.80284252708583" r="2.5" fill="#ff7f0e" opacity="0.6"/>
<circle cx="333.4208540138829" cy="224.73200141308294" r="2.5" fill="#ff7f0e" opacity="0.6"/>
<circle cx="286.22323363902535" cy="271.1996522516808" r="2.5" fill="#ff7f0e" opacity="0.6"/>
<circle cx="333.4208540138829" cy="224.75226452336048" r="2.5" fill="#ff7f0e" opacity="0.6"/>
<circle cx="397.2616796946877" cy="166.6215817962794" r="2.5" fill="#ff7f0e" opacity="0.6"/>
<circle cx="333.4208540138829" cy="223.6492005675329" r="2.5" fill="#2ca02c" opacity="0.6"/>
<circle cx="197.1427430584887" cy="345.79727344588605" r="2.5" fill="#2ca02c" opacity="0.6"/>
<circle cx="381.34593167253814" cy="191.82225675071297" r="2.5" fill="#2ca02c" opacity="0.6"/>
<circle cx="240.41396813893408" cy="310.65509788005505" r="2.5" fill="#2ca02c" opacity="0.6"/>
<circle cx="197.1427430584887" cy="344.36915208798035" r="2.5" fill="#2ca02c" opacity="0.6"/>
<circle cx="333.4208540138829" cy="226.69405152826178" r="2.5" fill="#2ca02c" opacity="0.6"/>
<circle cx="381.34593167253814" cy="193.67101426876582" r="2.5" fill="#2ca02c" opacity="0.6"/>
<circle cx="333.4208540138829" cy="232.35599110725235" r="2.5" fill="#2ca02c" opacity="0.6"/>
<circle cx="286.22323363902535" cy="269.0045598570031" r="2.5" fill="#2ca02c" opacity="0.6"/>
<circle cx="240.41396813893408" cy="314.2808366324122" r="2.5" fill="#2ca02c" opacity="0.6"/>
<circle cx="286.22323363902535" cy="265.58584456367385" r="2.5" fill="#2ca02c" opacity="0.6"/>
<circle cx="333.4208540138829" cy="227.13434650705503" r="2.5" fill="#2ca02c" opacity="0.6"/>
<circle cx="286.22323363902535" cy="277.84044584188115" r="2.5" fill="#2ca02c" opacity="0.6"/>
<circle cx="240.41396813893408" cy="310.7319880626318" r="2.5" fill="#2ca02c" opacity="0.6"/>
<circle cx="286.22323363902535" cy="271.87504228658645" r="2.5" fill="#2ca02c" opacity="0.6"/>
<circle cx="381.34593167253814" cy="198.61616618606615" r="2.5" fill="#2ca02c" opacity="0.6"/>
<circle cx="286.22323363902535" cy="267.65847950357266" r="2.5" fill="#2ca02c" opacity="0.6"/>
<circle cx="158.16878208853134" cy="377.61877791780745" r="2.5" fill="#2ca02c" opacity="0.6"/>
<circle cx="286.22323363902535" cy="270.5426442976283" r="2.5" fill="#2ca02c" opacity="0.6"/>
<circle cx="429.64354426210224" cy="154.33675638987717" r="2.5" fill="#2ca02c" opacity="0.6"/>
<circle cx="158.16878208853134" cy="377.834498993745" r="2.5" fill="#2ca02c" opacity="0.6"/>
<circle cx="240.41396813893408" cy="310.19847775752595" r="2.5" fill="#2ca02c" opacity="0.6"/>
<circle cx="286.22323363902535" cy="264.6023250859981" r="2.5" fill="#1f77b4" opacity="0.6"/>
<circle cx="397.2616796946877" cy="180.15742711037623" r="2.5" fill="#1f77b4" opacity="0.6"/>
<circle cx="445.6362352780005" cy="128.63749454287347" r="2.5" fill="#1f77b4" opacity="0.6"/>
<circle cx="478.1296906308787" cy="112.46335964286718" r="2.5" fill="#1f77b4" opacity="0.6"/>
<circle cx="494.1611340126904" cy="87.19045719169671" r="2.5" fill="#1f77b4" opacity="0.6"/>
<circle cx="445.6362352780005" cy="138.96809417743336" r="2.5" fill="#1f77b4" opacity="0.6"/>
<circle cx="445.6362352780005" cy="128.60783163659073" r="2.5" fill="#1f77b4" opacity="0.6"/>
<circle cx="381.34593167253814" cy="194.69569180737344" r="2.5" fill="#1f77b4" opacity="0.6"/>
<circle cx="542.761569207817" cy="44.12983293505342" r="2.5" fill="#1f77b4" opacity="0.6"/>
<circle cx="397.2616796946877" cy="181.4710592594622" r="2.5" fill="#1f77b4" opacity="0.6"/>
<circle cx="478.1296906308787" cy="104.4306879928465" r="2.5" fill="#1f77b4" opacity="0.6"/>
<circle cx="381.34593167253814" cy="194.1335030060282" r="2.5" fill="#1f77b4" opacity="0.6"/>
<circle cx="255.3256203237408" cy="305.544768935305" r="2.5" fill="#1f77b4" opacity="0.6"/>
<circle cx="397.2616796946877" cy="171.33467980961976" r="2.5" fill="#1f77b4" opacity="0.6"/>
<circle cx="526.7106788244009" cy="63.81690930885585" r="2.5" fill="#1f77b4" opacity="0.6"/>
<circle cx="478.1296906308787" cy="104.46152168174" r="2.5" fill="#1f77b4" opacity="0.6"/>
<circle cx="333.4208540138829" cy="225.0632396002134" r="2.5" fill="#1f77b4" opacity="0.6"/>
<circle cx="429.64354426210224" cy="144.570751111165" r="2.5" fill="#1f77b4" opacity="0.6"/>
<circle cx="429.64354426210224" cy="153.59896592392008" r="2.5" fill="#1f77b4" opacity="0.6"/>
<circle cx="349.18492520851754" cy="226.15378949304042" r="2.5" fill="#1f77b4" opacity="0.6"/>
<circle cx="429.64354426210224" cy="144.51883802507734" r="2.5" fill="#1f77b4" opacity="0.6"/>
<circle cx="381.34593167253814" cy="184.81151237978438" r="2.5" fill="#1f77b4" opacity="0.6"/>
<circle cx="301.69249621346523" cy="264.4416024991674" r="2.5" fill="#ff7f0e" opacity="0.6"/>
<circle cx="542.761569207817" cy="42.866892507140015" r="2.5" fill="#ff7f0e" opacity="0.6"/>
<circle cx="381.34593167253814" cy="195.21610841947708" r="2.5" fill="#ff7f0e" opacity="0.6"/>
<circle cx="429.64354426210224" cy="144.52463659043434" r="2.5" fill="#ff7f0e" opacity="0.6"/>
<circle cx="478.1296906308787" cy="104.41135314052318" r="2.5" fill="#ff7f0e" opacity="0.6"/>
<circle cx="397.2616796946877" cy="177.22184007125432" r="2.5" fill="#ff7f0e" opacity="0.6"/>
<circle cx="381.34593167253814" cy="192.90129660954943" r="2.5" fill="#ff7f0e" opacity="0.6"/>
<circle cx="445.6362352780005" cy="127.24096867732646" r="2.5" fill="#ff7f0e" opacity="0.6"/>
<circle cx="445.6362352780005" cy="105.84883583498993" r="2.5" fill="#ff7f0e" opacity="0.6"/>
<circle cx="349.18492520851754" cy="222.21660600319248" r="2.5" fill="#ff7f0e" opacity="0.6"/>
<circle cx="478.1296906308787" cy="104.40145204134123" r="2.5" fill="#ff7f0e" opacity="0.6"/>
<circle cx="286.22323363902535" cy="275.1805847055873" r="2.5" fill="#ff7f0e" opacity="0.6"/>
<circle cx="381.34593167253814" cy="184.84357685104624" r="2.5" fill="#ff7f0e" opacity="0.6"/>
<circle cx="526.7106788244009" cy="63.80241931163664" r="2.5" fill="#ff7f0e" opacity="0.6"/>
<circle cx="494.1611340126904" cy="94.20543916024684" r="2.5" fill="#ff7f0e" opacity="0.6"/>
<circle cx="494.1611340126904" cy="85.26175658192957" r="2.5" fill="#ff7f0e" opacity="0.6"/>
<circle cx="429.64354426210224" cy="144.516642102169" r="2.5" fill="#ff7f0e" opacity="0.6"/>
<circle cx="286.22323363902535" cy="264.5660338270862" r="2.5" fill="#ff7f0e" opacity="0.6"/>
<circle cx="349.18492520851754" cy="210.5382099837979" r="2.5" fill="#ff7f0e" opacity="0.6"/>
<circle cx="301.69249621346523" cy="254.12015353573" r="2.5" fill="#ff7f0e" opacity="0.6"/>
<circle cx="445.6362352780005" cy="135.4020370849801" r="2.5" fill="#ff7f0e" opacity="0.6"/>
<circle cx="397.2616796946877" cy="167.4078437773814" r="2.5" fill="#ff7f0e" opacity="0.6"/>
<circle cx="478.1296906308787" cy="115.77094079440495" r="2.5" fill="#2ca02c" opacity="0.6"/>
<circle cx="478.1296906308787" cy="114.28254791710071" r="2.5" fill="#2ca02c" opacity="0.6"/>
<circle cx="381.34593167253814" cy="189.67992384395126" r="2.5" fill="#2ca02c" opacity="0.6"/>
<circle cx="526.7106788244009" cy="73.0553504775242" r="2.5" fill="#2ca02c" opacity="0.6"/>
<circle cx="526.7106788244009" cy="77.98903163039176" r="2.5" fill="#2ca02c" opacity="0.6"/>
<circle cx="381.34593167253814" cy="198.90265456583134" r="2.5" fill="#2ca02c" opacity="0.6"/>
<circle cx="429.64354426210224" cy="154.66432379514862" r="2.5" fill="#2ca02c" opacity="0.6"/>
<circle cx="429.64354426210224" cy="158.6083342595242" r="2.5" fill="#2ca02c" opacity="0.6"/>
<circle cx="429.64354426210224" cy="155.43665380147564" r="2.5" fill="#2ca02c" opacity="0.6"/>
<circle cx="429.64354426210224" cy="152.9920789383655" r="2.5" fill="#2ca02c" opacity="0.6"/>
<circle cx="240.41396813893408" cy="314.9212604809699" r="2.5" fill="#2ca02c" opacity="0.6"/>
<circle cx="333.4208540138829" cy="232.8607395608931" r="2.5" fill="#2ca02c" opacity="0.6"/>
<circle cx="286.22323363902535" cy="270.26349429974726" r="2.5" fill="#2ca02c" opacity="0.6"/>
<circle cx="333.4208540138829" cy="220.41911956367795" r="2.5" fill="#2ca02c" opacity="0.6"/>
<circle cx="429.64354426210224" cy="155.14626322192123" r="2.5" fill="#2ca02c" opacity="0.6"/>
<circle cx="333.4208540138829" cy="235.69457284212294" r="2.5" fill="#2ca02c" opacity="0.6"/>
<circle cx="286.22323363902535" cy="275.84789876118055" r="2.5" fill="#2ca02c" opacity="0.6"/>
<circle cx="381.34593167253814" cy="194.75611573534604" r="2.5" fill="#2ca02c" opacity="0.6"/>
<circle cx="478.1296906308787" cy="114.21146225309066" r="2.5" fill="#2ca02c" opacity="0.6"/>
<circle cx="333.4208540138829" cy="220.35582841939456" r="2.5" fill="#2ca02c" opacity="0.6"/>
<circle cx="240.41396813893408" cy="313.1558818757174" r="2.5" fill="#2ca02c" opacity="0.6"/>
<circle cx="333.4208540138829" cy="236.2043375614151" r="2.5" fill="#2ca02c" opacity="0.6"/>
<text x="315.0" y="500" text-anchor="middle" font-size="13">Predicted runtime (ms)</text>
<text x="20" y="245.0" text-anchor="middle" transform="rotate(-90,20,245.0)" font-size="13">Measured runtime (ms)</text>
<text x="70" y="25" font-size="14" font-weight="bold">Figure 1: Predicted vs. measured runtime (real B200)</text>
<rect x="480" y="50" width="10" height="10" fill="#1f77b4"/>
<text x="495" y="59" font-size="11">bf16</text>
<rect x="480" y="68" width="10" height="10" fill="#ff7f0e"/>
<text x="495" y="77" font-size="11">fp16</text>
<rect x="480" y="86" width="10" height="10" fill="#2ca02c"/>
<text x="495" y="95" font-size="11">fp8</text>
<text x="480" y="110" font-size="10" fill="#666">Shaded band = ±30%</text>
</svg>
